SplineFontDB: 3.2
FontName: tigger-bold
FullName: tigger-bold
FamilyName: tigger
Weight: bold
Copyright: (c) 2025 Tadhg O'Brien
Version: 2025.10
ItalicAngle: 0
UnderlinePosition: -150
UnderlineWidth: 50
Ascent: 800
Descent: 200
InvalidEm: 0
LayerCount: 2
Layer: 0 1 "Back" 1
Layer: 1 1 "Fore" 0
XUID: [1021 796 -163880829 1938445]
StyleMap: 0x0040
FSType: 0
OS2Version: 1
OS2_WeightWidthSlopeOnly: 0
OS2_UseTypoMetrics: 0
CreationTime: 1280473793
ModificationTime: 1736629914
PfmFamily: 17
TTFWeight: 500
TTFWidth: 5
LineGap: 90
VLineGap: 0
Panose: 2 0 6 3 0 0 0 0 0 0
OS2TypoAscent: 800
OS2TypoAOffset: 0
OS2TypoDescent: -200
OS2TypoDOffset: 0
OS2TypoLinegap: 90
OS2WinAscent: 843
OS2WinAOffset: 0
OS2WinDescent: 347
OS2WinDOffset: 0
HheadAscent: 843
HheadAOffset: 0
HheadDescent: -347
HheadDOffset: 0
OS2SubXSize: 650
OS2SubYSize: 700
OS2SubXOff: 0
OS2SubYOff: 140
OS2SupXSize: 650
OS2SupYSize: 700
OS2SupXOff: 0
OS2SupYOff: 480
OS2StrikeYSize: 49
OS2StrikeYPos: 258
OS2Vendor: '2ttf'
OS2CodePages: 00000001.00000000
OS2UnicodeRanges: a00000af.00010042.00000000.00000000
Lookup: 1 0 0 "'rtla' Right to Left Alternates lookup 0" { "'rtla' Right to Left Alternates lookup 0 subtable"  } ['rtla' ('DFLT' <'dflt' > ) ]
Lookup: 260 0 0 "'mark' Mark Positioning lookup 2" { "'mark' Mark Positioning lookup 2-1"  } ['mark' ('DFLT' <'dflt' > 'arab' <'dflt' > 'armn' <'dflt' > 'cher' <'dflt' > 'cyrl' <'dflt' > 'grek' <'dflt' > 'hang' <'dflt' > 'hebr' <'dflt' > 'khmr' <'dflt' > 'latn' <'dflt' > 'mong' <'dflt' > ) ]
Lookup: 258 0 0 "'kern' Horizontal Kerning in Latin lookup 0" { "'kern' Horizontal Kerning in Latin lookup 0 subtable" [150,15,0] } ['kern' ('DFLT' <'dflt' > 'latn' <'dflt' > ) ]
MarkAttachClasses: 1
DEI: 91125
TtTable: prep
PUSHW_1
 511
SCANCTRL
PUSHB_1
 1
SCANTYPE
SVTCA[y-axis]
MPPEM
PUSHB_1
 8
LT
IF
PUSHB_2
 1
 1
INSTCTRL
EIF
PUSHB_2
 70
 6
CALL
IF
POP
PUSHB_1
 16
EIF
MPPEM
PUSHB_1
 20
GT
IF
POP
PUSHB_1
 128
EIF
SCVTCI
PUSHB_1
 6
CALL
NOT
IF
EIF
PUSHB_1
 20
CALL
EndTTInstrs

StartChar: .notdef
Encoding: 65536 -1 0
Width: 500
GlyphClass: 1
Flags: W
LayerCount: 2
Fore
SplineSet
100 50 m 1,0,-1
 400 50 l 1,1,-1
 400 483 l 1,2,-1
 100 483 l 1,3,-1
 100 50 l 1,0,-1
50 0 m 1,4,-1
 50 533 l 1,5,-1
 450 533 l 1,6,-1
 450 0 l 1,7,-1
 50 0 l 1,4,-1
EndSplineSet
Validated: 1
EndChar

StartChar: exclam
Encoding: 33 33 4
AltUni2: 00ff01.ffffffff.0 00fe57.ffffffff.0 00fe15.ffffffff.0 002762.ffffffff.0 00ff01.ffffffff.0 00fe57.ffffffff.0 00fe15.ffffffff.0 002762.ffffffff.0
Width: 176
GlyphClass: 1
Flags: W
LayerCount: 2
UndoRedoHistory
Layer: 1
Undoes
UndoOperation
Index: 0
Type: 1
WasModified: 0
WasOrder2: 1
Layer: 2
Width: 176
VWidth: 1000
LBearingChange: 0
UnicodeEnc: 0
InstructionsLength: 0
SplineSet
93 115 m 0,0,1
 103 115 103 115 108 113 c 0,2,3
 130 102 130 102 144 89 c 0,4,5
 160 69 160 69 159 50 c 0,6,7
 157 12 157 12 119 -2 c 0,8,9
 102 -9 102 -9 87 -6 c 0,10,11
 65 -3 65 -3 53 14 c 0,12,13
 41 32 41 32 44 55 c 0,14,15
 45 73 45 73 58 98 c 0,16,17
 70 120 70 120 93 115 c 0,0,1
165 637 m 0,18,19
 140 383 140 383 140 207 c 0,20,21
 140 194 140 194 130.5 184.5 c 128,-1,22
 121 175 121 175 107 175 c 0,23,24
 94 175 94 175 84.5 184.5 c 128,-1,25
 75 194 75 194 75 207 c 0,26,27
 75 390 75 390 101 644 c 0,28,29
 102 657 102 657 112 666 c 128,-1,30
 122 675 122 675 136 673 c 128,-1,31
 150 671 150 671 158 660.5 c 128,-1,32
 166 650 166 650 165 637 c 0,18,19
EndSplineSet
EndUndoOperation
EndUndoes
Redoes
EndRedoes
EndUndoRedoHistory
Fore
SplineSet
84.8587105624 130.925925926 m 0,0,1
 89.5873023646 130.925925926 89.5873023646 130.925925926 94.5484283357 129.992382201 c 0,2,3
 107.0355349 129.864365526 107.0355349 129.864365526 114.693630675 126.425154997 c 0,4,5
 138.618719631 114.462610519 138.618719631 114.462610519 155.020754101 99.2321499398 c 1,6,7
 174.058823529 75.4345631544 174.058823529 75.4345631544 174.058823529 52.2387543253 c 0,8,9
 174.058823529 24.4874009414 174.058823529 24.4874009414 156.863323429 5.20759779798 c 0,10,11
 144.660139377 -8.47476007816 144.660139377 -8.47476007816 124.440777403 -15.9836398633 c 0,12,13
 109.949540787 -21.8999983939 109.949540787 -21.8999983939 96.18 -21.9 c 0,14,15
 90.2423165865 -21.9 90.2423165865 -21.9 84.5065254871 -20.7989324654 c 0,16,17
 56.3728741373 -16.7866064279 56.3728741373 -16.7866064279 40.6215485172 5.52777153392 c 0,18,19
 28.4 23.8600943097 28.4 23.8600943097 28.4 46 c 0,20,21
 28.4 74.3365916087 28.4 74.3365916087 44.822208457 105.167033788 c 0,22,23
 58.8725132598 130.925925926 58.8725132598 130.925925926 84.8587105624 130.925925926 c 0,0,1
155 207 m 0,24,25
 155 187.79095625 155 187.79095625 141.104521875 173.895478125 c 128,-1,26
 127.20904375 160 127.20904375 160 107.5 160 c 128,-1,27
 87.79095625 160 87.79095625 160 73.895478125 173.895478125 c 128,-1,28
 60 187.79095625 60 187.79095625 60 207 c 0,29,30
 60 390.713954704 60 390.713954704 86.0609966697 645.371494826 c 0,31,32
 87.5920462848 664.209532629 87.5920462848 664.209532629 101.010992806 676.286584496 c 128,-1,33
 114.429939328 688.363636364 114.429939328 688.363636364 131.041322314 688.363636364 c 0,34,35
 155.625782076 688.363636364 155.625782076 688.363636364 169.938266873 669.578500067 c 0,36,37
 180.111111111 656.226642005 180.111111111 656.226642005 180.111111111 639.858024691 c 0,38,39
 180.111111111 637.612117112 180.111111111 637.612117112 179.927329274 635.51555945 c 0,40,41
 155 382.25389403 155 382.25389403 155 207 c 0,24,25
EndSplineSet
Validated: 33
EndChar

StartChar: quotedbl
Encoding: 34 34 5
AltUni2: 00ff02.ffffffff.0 00201d.ffffffff.0 00201c.ffffffff.0 00030e.ffffffff.0 00030b.ffffffff.0 0002ba.ffffffff.0 00ff02.ffffffff.0 00201d.ffffffff.0 00201c.ffffffff.0 00030e.ffffffff.0 00030b.ffffffff.0 0002ba.ffffffff.0
Width: 292
GlyphClass: 1
InSpiro: 1
Flags: W
LayerCount: 2
UndoRedoHistory
Layer: 1
Undoes
UndoOperation
Index: 0
Type: 1
WasModified: 0
WasOrder2: 1
Layer: 2
Width: 292
VWidth: 1000
LBearingChange: 0
UnicodeEnc: 0
InstructionsLength: 0
SplineSet
123 747 m 0,0,1
 94 645 94 645 104 542 c 0,2,3
 106 526 106 526 96 513.5 c 128,-1,4
 86 501 86 501 70 500 c 0,5,6
 54 498 54 498 42 508 c 128,-1,7
 30 518 30 518 28 534 c 0,8,9
 16 647 16 647 49 768 c 0,10,11
 53 784 53 784 67 791.5 c 128,-1,12
 81 799 81 799 97 795 c 0,13,14
 112 790 112 790 119.5 776.5 c 128,-1,15
 127 763 127 763 123 747 c 0,0,1
  Spiro
    123 747 o
    103.75 644.75 o
    104 542 o
    103 526.875 o
    96 513.5 o
    84.5 503.875 o
    70 500 o
    55 501 o
    42 508 o
    32.5 519.5 o
    28 534 o
    27.25 649 o
    49 768 o
    55.5 781.875 o
    67 791.5 o
    81.5 796.125 o
    97 795 o
    110.125 787.875 o
    119.5 776.5 o
    124.125 762.375 o
    0 0 z
  EndSpiro
267 751 m 0,16,17
 234 628 234 628 255 533 c 0,18,19
 258 517 258 517 249.5 504 c 128,-1,20
 241 491 241 491 225 487 c 0,21,22
 209 484 209 484 196 493 c 128,-1,23
 183 502 183 502 180 517 c 0,24,25
 156 629 156 629 192 770 c 0,26,27
 196 786 196 786 209.5 794 c 128,-1,28
 223 802 223 802 239 798 c 0,29,30
 254 793 254 793 262.5 780 c 128,-1,31
 271 767 271 767 267 751 c 0,16,17
  Spiro
    267 751 o
    247.5 635 o
    255 533 o
    255.125 517.75 o
    249.5 504 o
    239.125 493.25 o
    225 487 o
    209.75 487 o
    196 493 o
    185.5 503.5 o
    180 517 o
    171 636.25 o
    192 770 o
    198.375 784 o
    209.5 794 o
    223.625 799 o
    239 798 o
    252.375 791 o
    262.5 780 o
    267.875 766.25 o
    0 0 z
  EndSpiro
EndSplineSet
EndUndoOperation
EndUndoes
Redoes
EndRedoes
EndUndoRedoHistory
Fore
SplineSet
116.435897436 594.754766601 m 0,0,1
 116.435897436 569.24103329 116.435897436 569.24103329 117.88461516 554.705470157 c 128,-1,2
 119.333332885 540.169907025 119.333332885 540.169907025 119.333333333 536.763888889 c 0,3,4
 119.333333333 518.6585741 119.333333333 518.6585741 107.718626301 504.140190311 c 0,5,6
 92.1398111245 484.666671339 92.1398111245 484.666671339 64.7777777778 484.666666667 c 0,7,8
 46.5731258041 484.666666667 46.5731258041 484.666666667 31.2105821816 497.468786352 c 0,9,10
 15.6203376891 510.460656763 15.6203376891 510.460656763 13.0844331097 532.400588904 c 0,11,12
 9.8 563.329000688 9.8 563.329000688 9.8 594.835555556 c 0,13,14
 9.8 681.218895638 9.8 681.218895638 34.4880575123 771.809261041 c 0,15,16
 40.1399681626 794.128453628 40.1399681626 794.128453628 59.9322487946 804.731461204 c 0,17,18
 72.3639559959 811.391304348 72.3639559959 811.391304348 86.1115311909 811.391304348 c 0,19,20
 95.2693905774 811.391304348 95.2693905774 811.391304348 101.74091829 809.234128444 c 0,21,22
 122.277420894 802.388627576 122.277420894 802.388627576 132.621796532 783.768751428 c 0,23,24
 139.391304348 771.583637359 139.391304348 771.583637359 139.391304348 757.827977316 c 0,25,26
 139.391304348 750.236914194 139.391304348 750.236914194 137.430421427 742.895044001 c 0,27,28
 116.435897436 669.052235482 116.435897436 669.052235482 116.435897436 594.754766601 c 0,0,1
261.833333333 611.12345679 m 0,29,30
 261.833333333 574.508592833 261.833333333 574.508592833 269.74298591 535.776937564 c 0,31,32
 270.782608696 530.232282707 270.782608696 530.232282707 270.782608696 524.856332703 c 0,33,34
 270.782608696 509.14152698 270.782608696 509.14152698 262.063673013 495.80668417 c 0,35,36
 250.335400732 477.869326564 250.335400732 477.869326564 228.213790648 472.338924043 c 0,37,38
 222.406195751 471.25 222.406195751 471.25 217.1875 471.25 c 0,39,40
 201.066567304 471.25 201.066567304 471.25 187.476352435 480.658610294 c 0,41,42
 169.528119294 493.084310161 169.528119294 493.084310161 165.312777062 513.939301439 c 0,43,44
 155.385064564 558.28015842 155.385064564 558.28015842 155.385064564 607.420762034 c 0,45,46
 155.385064564 609.326770603 155.385064564 609.326770603 155.4 611.24 c 0,47,48
 155.4 687.295314201 155.4 687.295314201 177.44663671 773.644641315 c 0,49,50
 182.963070456 795.7103763 182.963070456 795.7103763 201.869054475 806.913922385 c 0,51,52
 214.38931045 814.333333333 214.38931045 814.333333333 228.611111111 814.333333333 c 0,53,54
 237.443303621 814.333333333 237.443303621 814.333333333 243.74091829 812.234128444 c 0,55,56
 263.69326952 805.5833447 263.69326952 805.5833447 275.063673013 788.19331583 c 0,57,58
 283.28 775.627168673 283.28 775.627168673 283.28 760.9328 c 0,59,60
 283.28 754.018679296 283.28 754.018679296 281.489387543 747.108467771 c 0,61,62
 261.833333333 673.844992991 261.833333333 673.844992991 261.833333333 611.12345679 c 0,29,30
EndSplineSet
EndChar

StartChar: numbersign
Encoding: 35 35 6
AltUni2: 00ff03.ffffffff.0 00fe5f.ffffffff.0 00ff03.ffffffff.0 00fe5f.ffffffff.0
Width: 731
GlyphClass: 1
Flags: W
LayerCount: 2
UndoRedoHistory
Layer: 1
Undoes
UndoOperation
Index: 0
Type: 1
WasModified: 0
WasOrder2: 1
Layer: 2
Width: 731
VWidth: 1000
LBearingChange: 0
UnicodeEnc: 0
InstructionsLength: 0
SplineSet
459 420 m 1,0,1
 362 414 362 414 329 413 c 0,2,3
 320 412 320 412 303 412 c 1,4,5
 303 406 303 406 302.5 400 c 128,-1,6
 302 394 302 394 301 387 c 128,-1,7
 300 380 300 380 300 376 c 0,8,9
 295 326 295 326 295 266 c 1,10,-1
 297 266 l 2,11,12
 357 266 357 266 463 270 c 1,13,14
 461 305 461 305 459 374 c 2,15,-1
 459 420 l 1,0,1
47 264 m 0,16,17
 85 265 85 265 178 265 c 2,18,-1
 230 265 l 1,19,20
 230 328 230 328 235 382 c 2,21,-1
 238 409 l 1,22,23
 152 407 152 407 55 406 c 0,24,25
 42 405 42 405 32.5 414.5 c 128,-1,26
 23 424 23 424 22 438 c 0,27,28
 22 451 22 451 31 460.5 c 128,-1,29
 40 470 40 470 54 471 c 0,30,31
 185 472 185 472 245 475 c 1,32,33
 246 483 246 483 248 501 c 0,34,35
 258 586 258 586 260 607 c 0,36,37
 266 661 266 661 266 696 c 0,38,39
 266 710 266 710 275 719 c 128,-1,40
 284 728 284 728 298 728 c 128,-1,41
 312 728 312 728 321.5 718.5 c 128,-1,42
 331 709 331 709 331 696 c 0,43,44
 331 657 331 657 325 600 c 0,45,46
 324 594 324 594 322.5 576.5 c 128,-1,47
 321 559 321 559 319 548 c 0,48,49
 317 532 317 532 316 521 c 0,50,51
 316 517 316 517 312 493 c 0,52,53
 312 491 312 491 311.5 485.5 c 128,-1,54
 311 480 311 480 311 477 c 1,55,56
 321 477 321 477 327 478 c 0,57,58
 358 479 358 479 460 485 c 1,59,60
 461 495 461 495 461.5 517 c 128,-1,61
 462 539 462 539 462 550 c 0,62,63
 465 676 465 676 464 697 c 0,64,65
 464 711 464 711 473.5 720.5 c 128,-1,66
 483 730 483 730 496 730 c 0,67,68
 510 731 510 731 519.5 721.5 c 128,-1,69
 529 712 529 712 529 699 c 0,70,71
 530 677 530 677 527 548 c 0,72,73
 527 538 527 538 526.5 518 c 128,-1,74
 526 498 526 498 525 489 c 1,75,76
 590 493 590 493 680 501 c 0,77,78
 693 502 693 502 703 493.5 c 128,-1,79
 713 485 713 485 715 471 c 0,80,81
 716 457 716 457 707 447 c 128,-1,82
 698 437 698 437 685 436 c 0,83,84
 592 428 592 428 524 424 c 1,85,-1
 524 374 l 2,86,87
 526 306 526 306 528 273 c 1,88,89
 630 281 630 281 685 287 c 0,90,91
 699 289 699 289 709 280 c 128,-1,92
 719 271 719 271 720 258 c 128,-1,93
 721 245 721 245 713 234.5 c 128,-1,94
 705 224 705 224 692 222 c 0,95,96
 618 214 618 214 533 209 c 1,97,98
 534 203 534 203 535.5 192 c 128,-1,99
 537 181 537 181 538 175 c 0,100,101
 553 81 553 81 583 41 c 0,102,103
 591 31 591 31 589 17.5 c 128,-1,104
 587 4 587 4 576 -4 c 128,-1,105
 565 -12 565 -12 552 -10.5 c 128,-1,106
 539 -9 539 -9 531 2 c 0,107,108
 491 55 491 55 474 165 c 0,109,110
 470 191 470 191 468 205 c 1,111,112
 360 201 360 201 298 201 c 1,113,114
 298 198 298 198 298.5 193.5 c 128,-1,115
 299 189 299 189 299 187 c 0,116,117
 311 96 311 96 351 46 c 0,118,119
 359 36 359 36 357.5 22 c 128,-1,120
 356 8 356 8 346 0 c 128,-1,121
 336 -8 336 -8 322 -6.5 c 128,-1,122
 308 -5 308 -5 300 5 c 0,123,124
 249 69 249 69 235 179 c 0,125,126
 233 193 233 193 233 200 c 1,127,-1
 178 200 l 2,128,129
 86 200 86 200 48 199 c 0,130,131
 35 199 35 199 25 208.5 c 128,-1,132
 15 218 15 218 15 231 c 0,133,134
 15 245 15 245 24.5 254.5 c 128,-1,135
 34 264 34 264 47 264 c 0,16,17
EndSplineSet
EndUndoOperation
EndUndoes
Redoes
EndRedoes
EndUndoRedoHistory
Fore
SplineSet
315 376 m 2,0,-1
 315 375.24208296 l 1,1,2
 310.632937368 331.571456642 310.632937368 331.571456642 310.081246831 281.044361181 c 1,3,4
 363.1452129 281.390573875 363.1452129 281.390573875 447.226948917 284.427721922 c 1,5,6
 445.616774175 318.000120452 445.616774175 318.000120452 444.006395254 373.558193239 c 2,7,-1
 444 374 l 1,8,-1
 444 404.050375199 l 1,9,10
 360.739165818 398.979034177 360.739165818 398.979034177 330.050727224 398.025066088 c 0,11,12
 324.663821729 397.457041709 324.663821729 397.457041709 317.314033492 397.209041256 c 1,13,14
 316.786530267 391.428216498 316.786530267 391.428216498 315.893265133 385.175360564 c 0,15,16
 315 378.922504631 315 378.922504631 315 376 c 2,0,-1
541.999962232 547.820868814 m 0,17,18
 541.999962232 527.29371964 541.999962232 527.29371964 541.094417803 505.059654252 c 1,19,20
 600.385627764 508.983121313 600.385627764 508.983121313 678.6571854 515.940593102 c 2,21,-1
 678.835653701 515.955388368 l 2,22,23
 680.784025967 516.105263158 680.784025967 516.105263158 682.703601108 516.105263158 c 0,24,25
 699.562314921 516.105263158 699.562314921 516.105263158 713.305081406 504.423911646 c 0,26,27
 730.1 490.148230841 730.1 490.148230841 730.1 468.24 c 0,28,29
 730.1 450.248121146 730.1 450.248121146 717.615216928 436.376139955 c 0,30,31
 705.130433857 422.504158765 705.130433857 422.504158765 686.300123683 421.055673367 c 0,32,33
 602.552061718 413.851539004 602.552061718 413.851539004 539 409.882129577 c 1,34,-1
 539 374.224510825 l 1,35,36
 540.570213241 320.882953426 540.570213241 320.882953426 542.141276454 289.165756413 c 1,37,38
 632.59662678 296.379372221 632.59662678 296.379372221 659.596939299 299.37150423 c 0,39,40
 686.597251818 302.363636239 686.597251818 302.363636239 689.958677686 302.363636364 c 0,41,42
 706.570060672 302.363636364 706.570060672 302.363636364 720.033282572 290.246736654 c 0,43,44
 735.111111111 276.676690969 735.111111111 276.676690969 735.111111111 255.141975309 c 0,45,46
 735.111111111 238.773357995 735.111111111 238.773357995 724.185000475 224.432837785 c 0,47,48
 712.890513918 209.608824179 712.890513918 209.608824179 693.627666297 207.08746069 c 0,49,50
 626.418955301 199.821654096 626.418955301 199.821654096 550.228048026 195.021041452 c 1,51,52
 550.294483483 194.536438693 550.294483483 194.536438693 551.064033576 188.89306972 c 0,53,54
 551.833583668 183.249700747 551.833583668 183.249700747 552.812172798 177.37816597 c 0,55,56
 567.196607826 87.2357064589 567.196607826 87.2357064589 594.885700849 50.1496804572 c 0,57,58
 604.399996453 38.1102919277 604.399996453 38.1102919277 604.4 22.76 c 0,59,60
 604.4 -1.89089265584 604.4 -1.89089265584 584.809165894 -16.1387720057 c 0,61,62
 571.611819507 -25.7368421053 571.611819507 -25.7368421053 556.055401662 -25.7368421053 c 0,63,64
 532.711453633 -25.7368421053 532.711453633 -25.7368421053 518.945352883 -6.92448522881 c 0,65,66
 476.73464745 49.0824440944 476.73464745 49.0824440944 459.174887531 162.704405451 c 0,67,68
 456.781169009 178.263575845 456.781169009 178.263575845 455.104095628 189.52103272 c 1,69,70
 369.487049696 186.467655835 369.487049696 186.467655835 314.263941862 186.062288644 c 1,71,72
 325.964124951 101.302936378 325.964124951 101.302936378 362.718626301 55.3598096894 c 0,73,74
 372.736842105 42.8370399346 372.736842105 42.8370399346 372.736842105 26.3213296399 c 0,75,76
 372.736842105 2.18299963127 372.736842105 2.18299963127 355.359809689 -11.7186263014 c 0,77,78
 342.837039935 -21.7368421053 342.837039935 -21.7368421053 326.32132964 -21.7368421053 c 0,79,80
 302.183034814 -21.7368421053 302.183034814 -21.7368421053 288.263408812 -4.33730960206 c 0,81,82
 233.4304209 64.4727144442 233.4304209 64.4727144442 219.074887172 185 c 1,83,-1
 178 185 l 2,84,85
 86.2008439758 185 86.2008439758 185 48.4012520581 184.005273897 c 2,86,-1
 48 184 l 2,87,88
 29.0150880818 184 29.0150880818 184 14.5075440409 197.782166839 c 0,89,90
 0 211.564333678 0 211.564333678 0 231.386688714 c 0,91,92
 0 251.20904375 0 251.20904375 13.895478125 265.104521875 c 0,93,94
 27.7016212538 278.910665004 27.7016212538 278.910665004 46.7802359692 278.999488494 c 0,95,96
 85 280 85 280 178 280 c 2,97,-1
 215.071342613 280 l 1,98,99
 215.60087625 335.191785286 215.60087625 335.191785286 220.06440397 383.397884659 c 2,100,-1
 220.077109469 383.53510405 l 1,101,-1
 221.197368516 393.617435473 l 1,102,103
 96.9062940396 390.904372146 96.9062940396 390.904372146 52.5555555556 390.904761905 c 0,104,105
 34.8861943452 390.904761905 34.8861943452 390.904761905 21.6610240573 404.129932193 c 0,106,107
 7.70887962857 418.082076621 7.70887962857 418.082076621 7 438 c 0,108,109
 7 456.972871321 7 456.972871321 20.1106872505 470.811930086 c 0,110,111
 33.7467788572 485.205582337 33.7467788572 485.205582337 53.8833407801 485.999554866 c 0,112,113
 171.408121349 486.896690595 171.408121349 486.896690595 231.598630046 489.404657669 c 1,114,115
 232.267589328 495.246594574 232.267589328 495.246594574 237.675735131 541.42476654 c 0,116,117
 243.083880934 587.602938507 243.083880934 587.602938507 245.068093433 608.437169744 c 2,118,-1
 245.079286753 608.554699601 l 2,119,120
 251 661.841118826 251 661.841118826 251 696 c 0,121,122
 251 716.20904375 251 716.20904375 264.395478125 729.604521875 c 0,123,124
 277.79095625 743 277.79095625 743 298 743 c 0,125,126
 318.20904375 743 318.20904375 743 332.104521875 729.104521875 c 0,127,128
 346 715.20904375 346 715.20904375 346 696 c 0,129,130
 346 656.202642547 346 656.202642547 339.917022178 598.414353242 c 0,131,132
 338.607911094 588.775020156 338.607911094 588.775020156 337.2594776 573.043296057 c 0,133,134
 335.911044106 557.311571959 335.911044106 557.311571959 333.833438484 545.722239 c 0,135,136
 331.955732041 530.664239129 331.955732041 530.664239129 331.41746933 522.814386072 c 0,137,138
 330.879206619 514.964533015 330.879206619 514.964533015 327.211992991 493.01512703 c 1,139,140
 356.341689376 493.983455503 356.341689376 493.983455503 445.909562601 499.201155539 c 1,141,142
 447 522.925542622 447 522.925542622 447 550 c 2,143,-1
 447 550.363153322 l 1,144,145
 449.988477449 675.879206175 449.988477449 675.879206175 449.017201132 696.276008836 c 2,146,-1
 449 696.637232601 l 2,147,148
 449 717.20904375 449 717.20904375 462.783570336 730.992614086 c 0,149,150
 476.88619388 745.09523763 476.88619388 745.09523763 496.999999768 745.095237863 c 0,151,152
 517.113805655 745.095238095 517.113805655 745.095238095 530.481763551 731.727280199 c 0,153,154
 543.849721447 718.359322303 543.849721447 718.359322303 543.998551353 699.369802601 c 0,155,156
 544.988971829 676.391963774 544.988971829 676.391963774 541.999962232 547.820868814 c 0,17,18
EndSplineSet
Validated: 33
EndChar

StartChar: dollar
Encoding: 36 36 7
AltUni2: 00ff04.ffffffff.0 00fe69.ffffffff.0 00ff04.ffffffff.0 00fe69.ffffffff.0
Width: 595
GlyphClass: 1
Flags: W
LayerCount: 2
UndoRedoHistory
Layer: 1
Undoes
EndUndoes
Redoes
RedoOperation
Index: 0
Type: 1
WasModified: 1
WasOrder2: 1
Layer: 2
Width: 595
VWidth: 1000
LBearingChange: 0
UnicodeEnc: 0
InstructionsLength: 0
SplineSet
364 119 m 5,0,1
 393 131 393 131 419.486613102 150.641758031 c 4,2,3
 482 197 482 197 479.879656204 252.835719954 c 4,4,5
 479 276 479 276 467.64878406 294.058752631 c 4,6,7
 457 311 457 311 439.72067896 319.428937093 c 4,8,9
 416 331 416 331 365 334 c 5,10,-1
 365 274 l 6,11,12
 365 237 365 237 364 223 c 6,13,-1
 364 119 l 5,0,1
160.382036752 443.862270301 m 4,14,15
 161 440 161 440 161.985376335 439.014623665 c 132,-1,16
 163 438 163 438 168.226515568 437.346685554 c 4,17,18
 171 437 171 437 174.682275221 436.386287463 c 4,19,20
 195 433 195 433 261 436 c 5,21,22
 262 446 262 446 262 466.5 c 132,-1,23
 262 487 262 487 262.446006855 492.798089111 c 4,24,25
 263 500 263 500 265 550 c 5,26,27
 259 549 259 549 249.476623965 544.154773596 c 4,28,29
 202 520 202 520 177.938251811 490.591196658 c 4,30,31
 157 465 157 465 160.382036752 443.862270301 c 4,14,15
436.71139684 580.445921739 m 4,32,33
 415 586 415 586 371 580 c 5,34,35
 370 557 370 557 368.889988864 539.239821826 c 4,36,37
 368 525 368 525 367.463947827 511.598695676 c 4,38,39
 367 500 367 500 366.694472732 492.361818303 c 4,40,41
 366 475 366 475 366 438 c 5,42,43
 380 438 380 438 399.853281964 435.763010483 c 4,44,45
 451 430 451 430 488.080499971 411.890918619 c 4,46,47
 580 367 580 367 584.323141315 260.156650348 c 4,48,49
 587 194 587 194 553.248102362 141.044436465 c 4,50,51
 529 103 529 103 485.024978034 69.4744882044 c 4,52,53
 428 26 428 26 360 7 c 5,54,55
 357 -75 357 -75 352.759870748 -112.004764383 c 4,56,57
 346 -171 346 -171 324.825873195 -187.814747757 c 4,58,59
 312 -198 312 -198 292.08157183 -195.683903701 c 4,60,61
 269 -193 269 -193 255.505340802 -175.353137971 c 4,62,63
 243 -159 243 -159 248.71701088 -108.182125507 c 4,64,65
 252 -79 252 -79 255 -6 c 5,66,67
 189 -6 189 -6 131.200916829 5.46428095957 c 4,68,69
 68 18 68 18 52.7414805369 40.8877791947 c 4,70,71
 44 54 44 54 48.2224178662 73.704616709 c 4,72,73
 53 96 53 96 70.6448310968 108.099312752 c 4,74,75
 88 120 88 120 148.522511919 108.320216998 c 4,76,77
 202 98 202 98 259 99 c 5,78,79
 260 136 260 136 260 223 c 6,80,-1
 260 274 l 5,81,-1
 260 332 l 5,82,83
 218 330 218 330 201.845671067 330 c 4,84,85
 179 330 179 330 159.941192601 332.957401148 c 4,86,87
 121 339 121 339 96.5581355643 356.331503873 c 4,88,89
 66 378 66 378 57.3469760562 423.62503534 c 4,90,91
 44 494 44 494 94.3903559589 556.018899642 c 4,92,93
 135 606 135 606 210.291084492 640.356125933 c 4,94,95
 238 653 238 653 271 664 c 5,96,97
 274 730 274 730 272.287594244 753.54557914 c 4,98,99
 270 785 270 785 284.999717033 803.213942111 c 4,100,101
 298 819 298 819 320.1720052 820.007818418 c 4,102,103
 342 821 342 821 358.171171831 806.850224647 c 4,104,105
 374 793 374 793 375.923011596 759.667799011 c 4,106,107
 377 741 377 741 376 686 c 5,108,109
 429 689 429 689 455.199296432 683.177934126 c 4,110,111
 483 677 483 677 494.946092311 656.365840554 c 4,112,113
 505 639 505 639 500.719855814 619.025993796 c 4,114,115
 496 597 496 597 476.609590675 585.773973549 c 4,116,117
 458 575 458 575 436.71139684 580.445921739 c 4,32,33
EndSplineSet
EndRedoOperation
EndRedoes
EndUndoRedoHistory
Fore
SplineSet
364 119 m 5,0,1
 393 131 393 131 420 152 c 4,2,3
 482 197 482 197 480 244 c 4,4,5
 479 276 479 276 467 296 c 4,6,7
 457 311 457 311 440 319 c 4,8,9
 416 331 416 331 365 334 c 5,10,-1
 365 274 l 6,11,12
 365 237 365 237 364 223 c 6,13,-1
 364 119 l 5,0,1
160 440 m 4,14,15
 161 440 161 440 161 439 c 4,16,17
 163 438 163 438 167 437.5 c 132,-1,18
 171 437 171 437 173 437 c 4,19,20
 195 433 195 433 261 436 c 5,21,22
 262 446 262 446 262 466.5 c 132,-1,23
 262 487 262 487 263 497 c 4,24,25
 263 500 263 500 265 550 c 5,26,27
 259 549 259 549 254 545 c 4,28,29
 202 520 202 520 177 491 c 4,30,31
 157 465 157 465 160 440 c 4,14,15
437 580 m 4,32,33
 415 586 415 586 371 580 c 5,34,35
 370 557 370 557 369 541 c 132,-1,36
 368 525 368 525 367.5 512.5 c 132,-1,37
 367 500 367 500 367 494 c 4,38,39
 366 475 366 475 366 438 c 5,40,41
 380 438 380 438 402 436 c 4,42,43
 451 430 451 430 485 413 c 4,44,45
 580 367 580 367 584 249 c 4,46,47
 587 194 587 194 554 144 c 4,48,49
 529 103 529 103 483 68 c 4,50,51
 428 26 428 26 360 7 c 5,52,53
 357 -75 357 -75 348 -149 c 4,54,55
 346 -171 346 -171 329 -184.5 c 132,-1,56
 312 -198 312 -198 291 -195 c 4,57,58
 269 -193 269 -193 256 -176 c 132,-1,59
 243 -159 243 -159 245 -138 c 4,60,61
 252 -79 252 -79 255 -6 c 5,62,63
 189 -6 189 -6 89 14 c 4,64,65
 68 18 68 18 56 36 c 132,-1,66
 44 54 44 54 48 75 c 4,67,68
 53 96 53 96 70.5 108 c 132,-1,69
 88 120 88 120 109 116 c 4,70,71
 202 98 202 98 259 99 c 5,72,73
 260 136 260 136 260 223 c 6,74,-1
 260 274 l 5,75,-1
 260 332 l 5,76,77
 218 330 218 330 215 330 c 4,78,79
 179 330 179 330 156 334 c 4,80,81
 121 339 121 339 98 356 c 4,82,83
 66 378 66 378 58 417 c 4,84,85
 44 494 44 494 96 556 c 4,86,87
 135 606 135 606 209 640 c 4,88,89
 238 653 238 653 271 664 c 5,90,91
 274 730 274 730 272 764 c 4,92,93
 270 785 270 785 284 802 c 132,-1,94
 298 819 298 819 320 820 c 132,-1,95
 342 821 342 821 358 807 c 132,-1,96
 374 793 374 793 376 772 c 4,97,98
 377 741 377 741 376 686 c 5,99,100
 429 689 429 689 462 681 c 4,101,102
 483 677 483 677 494 658 c 132,-1,103
 505 639 505 639 500 618 c 4,104,105
 496 597 496 597 477 586 c 132,-1,106
 458 575 458 575 437 580 c 4,32,33
EndSplineSet
EndChar

StartChar: percent
Encoding: 37 37 8
AltUni2: 00ff05.ffffffff.0 00fe6a.ffffffff.0 00066a.ffffffff.0 00ff05.ffffffff.0 00fe6a.ffffffff.0 00066a.ffffffff.0
Width: 731
GlyphClass: 1
Flags: W
LayerCount: 2
UndoRedoHistory
Layer: 1
Undoes
EndUndoes
Redoes
RedoOperation
Index: 0
Type: 1
WasModified: 1
WasOrder2: 1
Layer: 2
Width: 731
VWidth: 1000
LBearingChange: 0
UnicodeEnc: 0
InstructionsLength: 0
SplineSet
563 158 m 1,0,1
 548 155 548 155 536 159 c 1,2,3
 515 149 515 149 500.822506687 124.695725749 c 0,4,5
 487 101 487 101 487.615708256 76.987378035 c 0,6,7
 488 62 488 62 496.205605204 55.8457960973 c 0,8,9
 500 53 500 53 506.456291479 51.8606544449 c 0,10,11
 517 50 517 50 528.395382246 51.9534940992 c 0,12,13
 552 56 552 56 561.619268929 75.7448151701 c 0,14,15
 571 95 571 95 568.33392653 126.99288164 c 0,16,17
 567 143 567 143 563 158 c 1,0,1
  Spiro
    563 158 v
    548.75 156.75 o
    536 159 v
    516.75 145.5 o
    501 125 o
    490.75 101.25 o
    488 78 o
    489.5 64.75 o
    494 57 o
    499.75 53.75 o
    505 52 o
    518.25 51.25 o
    534 53 o
    549.75 59.5 o
    561 73 o
    567.75 98.5 o
    568 131 o
    566.25 143.75 o
    0 0 z
  EndSpiro
528 256 m 1,18,19
 554 275 554 275 584.016393448 270.497540983 c 128,-1,20
 614 266 614 266 636.569532438 238.656143393 c 0,21,22
 666 203 666 203 671.887579759 142.652307473 c 0,23,24
 678 80 678 80 655.063312821 29.9563188819 c 0,25,26
 623 -40 623 -40 542.458832276 -51.9723357427 c 0,27,28
 475 -62 475 -62 429.213520769 -24.2638907437 c 0,29,30
 384 13 384 13 383.45080131 77.2562467583 c 0,31,32
 383 130 383 130 412.308008849 178.846681414 c 0,33,34
 443 230 443 230 482.089901711 248.934171141 c 0,35,36
 507 261 507 261 528 256 c 1,18,19
  Spiro
    528 256 v
    555 269.125 o
    584 270.5 o
    611.75 260.625 o
    635 240 o
    659.75 197 o
    672 142 o
    670.75 82.75 o
    655 29 o
    612.75 -25.25 o
    550 -50 o
    482 -49.25 o
    428 -23 o
    395 20 o
    384 77 o
    390.75 129.25 o
    413 180 o
    447.75 223.25 o
    492 253 o
    508.5 257.75 o
    0 0 z
  EndSpiro
218 584 m 1,37,38
 203 581 203 581 191 585 c 1,39,40
 170 575 170 575 155.822506687 550.695725749 c 0,41,42
 142 527 142 527 142.595633226 503.770304173 c 0,43,44
 143 488 143 488 149.292963748 483.10547264 c 0,45,46
 152 481 152 481 159.034680731 479.241329817 c 0,47,48
 172 476 172 476 184.971779358 478.161963226 c 0,49,50
 208 482 208 482 217.130423898 501.782585113 c 0,51,52
 226 521 226 521 223.365167378 552.617991468 c 0,53,54
 222 569 222 569 218 584 c 1,37,38
  Spiro
    218 584 v
    203.75 582.75 o
    191 585 v
    171.75 571.5 o
    156 551 o
    145.75 527.25 o
    143 504 o
    144.75 490.75 o
    150 483 o
    153.5 480.75 o
    160 478 o
    173.25 477.25 o
    189 479 o
    205.25 485.75 o
    216 500 o
    222.75 525 o
    223 558 o
    221.25 570 o
    0 0 z
  EndSpiro
183 683 m 1,55,56
 210 702 210 702 239.864051751 696.938296313 c 0,57,58
 269 692 269 692 291.262999717 665.027519574 c 0,59,60
 321 629 321 629 326.884412115 569.66551117 c 0,61,62
 333 508 333 508 309.975052706 457.763751359 c 0,63,64
 278 388 278 388 198.003369906 375.027573498 c 0,65,66
 130 364 130 364 83.964175576 401.941613536 c 0,67,68
 39 439 39 439 38.4514944419 503.175150301 c 0,69,70
 38 556 38 556 67.3195256306 604.865876051 c 0,71,72
 98 656 98 656 137.950719665 675.668046604 c 0,73,74
 163 688 163 688 183 683 c 1,55,56
  Spiro
    183 683 v
    210.625 696 o
    239.5 697 o
    266.875 686.75 o
    290 666 o
    314.75 623 o
    327 568 o
    325.75 509.75 o
    310 455 o
    267.75 401.75 o
    205 376 o
    137 376.75 o
    83 403 o
    50 446 o
    39 503 o
    45.75 555.25 o
    68 606 o
    102.75 649.25 o
    147 679 o
    164 684.5 o
    0 0 z
  EndSpiro
119.592444752 14.9501639051 m 0,75,76
 162 145 162 145 328.7318776 363.073096007 c 0,77,78
 490 574 490 574 596.755521194 662.852421367 c 0,79,80
 651 708 651 708 679.168673418 705.439211507 c 0,81,82
 695 704 695 704 707.377676368 688.871728884 c 0,83,84
 722 671 722 671 719.406202659 648.693342868 c 0,85,86
 717 628 717 628 663.240403554 582.911306207 c 0,87,88
 562 498 562 498 430.181853289 325.257918853 c 0,89,90
 256 97 256 97 217.313166185 -22.6426156857 c 0,91,92
 202 -70 202 -70 178.241082373 -82.1840603215 c 0,93,94
 163 -90 163 -90 143.962207195 -83.8127173383 c 0,95,96
 123 -77 123 -77 115.106207581 -62.71599467 c 0,97,98
 102 -39 102 -39 119.592444752 14.9501639051 c 0,75,76
  Spiro
    109 -18 o
    191 160 o
    331 368 o
    486.5 552.5 o
    635 694 o
    652.5 704 o
    673 706 o
    692.75 700.25 o
    708 687 o
    717.875 669.625 o
    719.5 649.5 o
    713.625 629.875 o
    701 614 o
    559.75 478.75 o
    414 305 o
    283.5 112.25 o
    208 -50 o
    198.625 -67.5 o
    182.5 -80 o
    162.875 -86 o
    143 -84 o
    125.375 -74 o
    112.5 -58 o
    106.375 -38.5 o
    0 0 z
  EndSpiro
EndSplineSet
EndRedoOperation
EndRedoes
EndUndoRedoHistory
Fore
SplineSet
563 158 m 1,0,1
 548 155 548 155 536 159 c 1,2,3
 515 149 515 149 501 125 c 128,-1,4
 487 101 487 101 488 78 c 0,5,6
 488 62 488 62 494 57 c 0,7,8
 500 53 500 53 505 52 c 0,9,10
 517 50 517 50 534 53 c 0,11,12
 552 56 552 56 561 73 c 0,13,14
 571 95 571 95 568 131 c 0,15,16
 567 143 567 143 563 158 c 1,0,1
  Spiro
    563 158 v
    548.75 156.75 o
    536 159 v
    516.75 145.5 o
    501 125 o
    490.75 101.25 o
    488 78 o
    489.5 64.75 o
    494 57 o
    499.75 53.75 o
    505 52 o
    518.25 51.25 o
    534 53 o
    549.75 59.5 o
    561 73 o
    567.75 98.5 o
    568 131 o
    566.25 143.75 o
    0 0 z
  EndSpiro
528 256 m 1,17,18
 554 275 554 275 584 270.5 c 128,-1,19
 614 266 614 266 635 240 c 0,20,21
 666 203 666 203 672 142 c 0,22,23
 678 80 678 80 655 29 c 0,24,25
 623 -40 623 -40 550 -50 c 0,26,27
 475 -62 475 -62 428 -23 c 0,28,29
 384 13 384 13 384 77 c 0,30,31
 383 130 383 130 413 180 c 128,-1,32
 443 230 443 230 492 253 c 0,33,34
 507 261 507 261 528 256 c 1,17,18
  Spiro
    528 256 v
    555 269.125 o
    584 270.5 o
    611.75 260.625 o
    635 240 o
    659.75 197 o
    672 142 o
    670.75 82.75 o
    655 29 o
    612.75 -25.25 o
    550 -50 o
    482 -49.25 o
    428 -23 o
    395 20 o
    384 77 o
    390.75 129.25 o
    413 180 o
    447.75 223.25 o
    492 253 o
    508.5 257.75 o
    0 0 z
  EndSpiro
218 584 m 1,35,36
 203 581 203 581 191 585 c 1,37,38
 170 575 170 575 156 551 c 128,-1,39
 142 527 142 527 143 504 c 0,40,41
 143 488 143 488 150 483 c 0,42,43
 152 481 152 481 160 478 c 0,44,45
 172 476 172 476 189 479 c 0,46,47
 208 482 208 482 216 500 c 0,48,49
 226 521 226 521 223 558 c 0,50,51
 222 569 222 569 218 584 c 1,35,36
  Spiro
    218 584 v
    203.75 582.75 o
    191 585 v
    171.75 571.5 o
    156 551 o
    145.75 527.25 o
    143 504 o
    144.75 490.75 o
    150 483 o
    153.5 480.75 o
    160 478 o
    173.25 477.25 o
    189 479 o
    205.25 485.75 o
    216 500 o
    222.75 525 o
    223 558 o
    221.25 570 o
    0 0 z
  EndSpiro
183 683 m 1,52,53
 210 702 210 702 239.5 697 c 128,-1,54
 269 692 269 692 290 666 c 0,55,56
 321 629 321 629 327 568 c 0,57,58
 333 508 333 508 310 455 c 0,59,60
 278 388 278 388 205 376 c 0,61,62
 130 364 130 364 83 403 c 0,63,64
 39 439 39 439 39 503 c 0,65,66
 38 556 38 556 68 606 c 128,-1,67
 98 656 98 656 147 679 c 0,68,69
 163 688 163 688 183 683 c 1,52,53
  Spiro
    183 683 v
    210.625 696 o
    239.5 697 o
    266.875 686.75 o
    290 666 o
    314.75 623 o
    327 568 o
    325.75 509.75 o
    310 455 o
    267.75 401.75 o
    205 376 o
    137 376.75 o
    83 403 o
    50 446 o
    39 503 o
    45.75 555.25 o
    68 606 o
    102.75 649.25 o
    147 679 o
    164 684.5 o
    0 0 z
  EndSpiro
109 -18 m 0,70,71
 162 145 162 145 331 368 c 0,72,73
 490 574 490 574 635 694 c 0,74,75
 651 708 651 708 673 706 c 128,-1,76
 695 704 695 704 708 687 c 0,77,78
 722 671 722 671 719.5 649.5 c 128,-1,79
 717 628 717 628 701 614 c 0,80,81
 562 498 562 498 414 305 c 0,82,83
 256 97 256 97 208 -50 c 0,84,85
 202 -70 202 -70 182.5 -80 c 128,-1,86
 163 -90 163 -90 143 -84 c 0,87,88
 123 -77 123 -77 112.5 -58 c 128,-1,89
 102 -39 102 -39 109 -18 c 0,70,71
  Spiro
    109 -18 o
    191 160 o
    331 368 o
    486.5 552.5 o
    635 694 o
    652.5 704 o
    673 706 o
    692.75 700.25 o
    708 687 o
    717.875 669.625 o
    719.5 649.5 o
    713.625 629.875 o
    701 614 o
    559.75 478.75 o
    414 305 o
    283.5 112.25 o
    208 -50 o
    198.625 -67.5 o
    182.5 -80 o
    162.875 -86 o
    143 -84 o
    125.375 -74 o
    112.5 -58 o
    106.375 -38.5 o
    0 0 z
  EndSpiro
EndSplineSet
EndChar

StartChar: ampersand
Encoding: 38 38 9
AltUni2: 00ff06.ffffffff.0 00fe60.ffffffff.0 00ff06.ffffffff.0 00fe60.ffffffff.0
Width: 650
GlyphClass: 1
Flags: W
LayerCount: 2
UndoRedoHistory
Layer: 1
Undoes
EndUndoes
Redoes
RedoOperation
Index: 0
Type: 1
WasModified: 0
WasOrder2: 1
Layer: 2
Width: 650
VWidth: 1000
LBearingChange: 0
UnicodeEnc: 0
InstructionsLength: 0
SplineSet
161 457 m 0,0,1
 161 417.674893208 161 417.674893208 171.597428629 370.468165679 c 0,2,3
 182.194857258 323.261438151 182.194857258 323.261438151 190.597428629 307.50661683 c 0,4,5
 199 291.751795509 199 291.751795509 199 281 c 2,6,-1
 199 277.048440922 l 1,7,-1
 166.687954464 219.963827142 l 1,8,9
 79 96.2263802869 79 96.2263802869 79 18 c 0,10,11
 79 -5.95778511253 79 -5.95778511253 81.0662626725 -13.0163336335 c 0,12,13
 85.4768480791 -18.3724090397 85.4768480791 -18.3724090397 102.348303735 -29.5390387631 c 0,14,15
 151.93078899 -62.8407079646 151.93078899 -62.8407079646 222.610697784 -62.8407079646 c 0,16,17
 240.983222446 -62.8407079646 240.983222446 -62.8407079646 260.795778334 -60.5959356225 c 0,18,19
 357.962920463 -49.5868505538 357.962920463 -49.5868505538 428.563132494 7.6565646063 c 1,20,-1
 429.142745211 8.10365274668 l 1,21,-1
 459.142745211 30.1036527467 l 1,22,-1
 468 36.5989729252 l 1,23,-1
 476.857254789 30.1036527467 l 1,24,-1
 506.857254789 8.10365274668 l 1,25,-1
 507.787765593 7.42127815718 l 1,26,27
 534.20904375 -19 534.20904375 -19 558 -19 c 2,28,-1
 573 -19 l 1,29,-1
 573 25.6385392146 l 1,30,31
 571.640054272 26 571.640054272 26 569.5 26 c 0,32,33
 551.633699895 26 551.633699895 26 533.389059688 45.3907264543 c 1,34,-1
 517.745541996 60.0565242911 l 1,35,-1
 507.560693769 69.6048195032 l 1,36,-1
 516.343435394 80.4368675065 l 1,37,-1
 537.921879901 107.050282398 l 1,38,-1
 505.898519947 139.689476197 l 1,39,-1
 501.604521875 135.395478125 l 1,40,-1
 500.492938231 134.283894481 l 1,41,42
 479.495322314 120.589797144 479.495322314 120.589797144 473.801105232 118.294898572 c 0,43,44
 468.106888151 116 468.106888151 116 464.874457742 116 c 0,45,46
 458.970136997 116 458.970136997 116 453.400047325 120.013510532 c 0,47,48
 439.09948411 130.317736218 439.09948411 130.317736218 381.494155976 181.119285438 c 0,49,50
 323.888827843 231.920834659 323.888827843 231.920834659 300.515295842 255.27570833 c 2,51,-1
 277.635514584 277.16071649 l 1,52,-1
 269.412844582 285.025879101 l 1,53,-1
 274.755470687 295.043303047 l 1,54,-1
 290.755470687 325.043303047 l 1,55,-1
 291.368226075 326.1922194 l 1,56,57
 373.320478577 431.131079311 373.320478577 431.131079311 417.160239288 515.400841567 c 0,58,59
 461 599.670603824 461 599.670603824 461 641.369611897 c 0,60,61
 461 683.068619971 461 683.068619971 455.097744126 697.627517793 c 0,62,63
 449.195488252 712.186415615 449.195488252 712.186415615 430.790894832 721.593207808 c 0,64,65
 412.386301412 731 412.386301412 731 400.181551702 731 c 0,66,67
 387.976801991 731 387.976801991 731 359.104290414 723.300663579 c 1,68,69
 317.83764606 716.881407791 317.83764606 716.881407791 264.065096664 666.915764547 c 0,70,71
 210.292547268 616.950121303 210.292547268 616.950121303 181.515206759 559.486331046 c 0,72,73
 168.313053403 531.163128714 168.313053403 531.163128714 164.656526701 513.794627729 c 0,74,75
 161 496.426126744 161 496.426126744 161 457 c 0,0,1
389.5 678 m 0,76,77
 402.799055936 678 402.799055936 678 408.697282132 666.044136089 c 0,78,79
 411.648648649 660.061636393 411.648648649 660.061636393 411.648648649 651.407596786 c 0,80,81
 411.648648649 642.613626995 411.648648649 642.613626995 408.590687461 629.508079046 c 0,82,83
 391.989962586 559.978100364 391.989962586 559.978100364 316.560751 444.795655645 c 1,84,-1
 269.736604014 376.595267644 l 1,85,86
 255.861366049 361.728941253 255.861366049 361.728941253 250.084683619 358.864470627 c 0,87,88
 244.308001189 356 244.308001189 356 238.865902671 356 c 0,89,90
 229.662727572 356 229.662727572 356 222.730872669 367.730831375 c 0,91,92
 218.815370118 374.357066462 218.815370118 374.357066462 213.67004238 388.506717741 c 1,93,94
 204.865546218 421.723680531 204.865546218 421.723680531 204.865546218 451.712237836 c 0,95,96
 204.865546218 503.577546092 204.865546218 503.577546092 230.574527335 547.111420784 c 0,97,98
 269.920839641 613.737842955 269.920839641 613.737842955 332.989988427 653.681637186 c 0,99,100
 372.60928046 678 372.60928046 678 389.5 678 c 0,76,77
417.767985235 55.2448073719 m 0,101,102
 410.653617529 48.5167401749 410.653617529 48.5167401749 398.836959434 39.8814900283 c 0,103,104
 371.524815159 19.9226153659 371.524815159 19.9226153659 335.345851078 3.96130768297 c 0,105,106
 299.166886996 -12 299.166886996 -12 247.654396261 -12 c 0,107,108
 196.141905525 -12 196.141905525 -12 168.208780097 -5.0167186429 c 0,109,110
 140.275654668 1.96656271421 140.275654668 1.96656271421 131.637827334 10.7483538372 c 0,111,112
 123 19.5301449601 123 19.5301449601 123 28.4033225953 c 0,113,114
 123 37.2765002304 123 37.2765002304 128.683062744 52.8122641456 c 0,115,116
 134.366125489 68.3480280609 134.366125489 68.3480280609 147.438552386 95.913797823 c 0,117,118
 171.021060335 145.642129802 171.021060335 145.642129802 201.842550307 184.803731151 c 1,119,-1
 241.365807878 244.088617507 l 1,120,-1
 358.053752803 134.132669405 l 1,121,122
 415.242519688 84.5690714376 415.242519688 84.5690714376 415.411292568 84.4936261163 c 0,123,124
 424.882352941 80.2595050081 424.882352941 80.2595050081 424.882352941 71.1161897885 c 0,125,126
 424.882352941 61.9728745689 424.882352941 61.9728745689 417.767985235 55.2448073719 c 0,101,102
EndSplineSet
EndRedoOperation
EndRedoes
EndUndoRedoHistory
Fore
SplineSet
356 738 m 0,0,1
 311 731 311 731 254.5 678.5 c 128,-1,2
 198 626 198 626 168 566 c 0,3,4
 154 536 154 536 150 517 c 128,-1,5
 146 498 146 498 146 457 c 128,-1,6
 146 416 146 416 157 367 c 128,-1,7
 168 318 168 318 176 303 c 128,-1,8
 184 288 184 288 184 281 c 2,9,-1
 154 228 l 1,10,11
 64 101 64 101 64 18 c 0,12,13
 64 -12 64 -12 67.5 -19.5 c 128,-1,14
 71 -27 71 -27 94 -42 c 0,15,16
 161 -87 161 -87 262.5 -75.5 c 128,-1,17
 364 -64 364 -64 438 -4 c 1,18,-1
 468 18 l 1,19,-1
 498 -4 l 1,20,21
 528 -34 528 -34 558 -34 c 2,22,-1
 588 -34 l 1,23,-1
 588 33 l 1,24,25
 581 41 581 41 569.5 41 c 128,-1,26
 558 41 558 41 544 56 c 2,27,-1
 528 71 l 1,28,-1
 558 108 l 1,29,-1
 506 161 l 1,30,-1
 491 146 l 1,31,32
 468 131 468 131 464.5 131 c 128,-1,33
 461 131 461 131 397.5 187 c 128,-1,34
 334 243 334 243 311 266 c 2,35,-1
 288 288 l 1,36,-1
 304 318 l 1,37,38
 386 423 386 423 431 509.5 c 128,-1,39
 476 596 476 596 476 641 c 128,-1,40
 476 686 476 686 468.5 704.5 c 128,-1,41
 461 723 461 723 438.5 734.5 c 128,-1,42
 416 746 416 746 401 746 c 128,-1,43
 386 746 386 746 356 738 c 0,0,1
341 641 m 0,44,45
 378 663 378 663 389.5 663 c 128,-1,46
 401 663 401 663 394 633 c 0,47,48
 378 566 378 566 304 453 c 2,49,-1
 258 386 l 2,50,51
 244 371 244 371 240 371 c 128,-1,52
 236 371 236 371 228 393 c 0,53,54
 206 476 206 476 243.5 539.5 c 128,-1,55
 281 603 281 603 341 641 c 0,44,45
214 176 m 2,56,-1
 244 221 l 1,57,-1
 348 123 l 1,58,-1
 408 71 l 1,59,60
 416 71 416 71 390 52 c 128,-1,61
 364 33 364 33 330 18 c 128,-1,62
 296 3 296 3 247 3 c 128,-1,63
 198 3 198 3 168 10.5 c 128,-1,64
 138 18 138 18 138 29.5 c 128,-1,65
 138 41 138 41 161 89.5 c 128,-1,66
 184 138 184 138 214 176 c 2,56,-1
EndSplineSet
EndChar

StartChar: quotesingle
Encoding: 39 39 10
AltUni2: 00ff07.ffffffff.0 002032.ffffffff.0 002019.ffffffff.0 0002c8.ffffffff.0 0002bc.ffffffff.0 0002b9.ffffffff.0 00ff07.ffffffff.0 002032.ffffffff.0 002019.ffffffff.0 0002c8.ffffffff.0 0002bc.ffffffff.0 0002b9.ffffffff.0 000374.ffffffff.0
Width: 196
GlyphClass: 1
Flags: W
LayerCount: 2
UndoRedoHistory
Layer: 1
Undoes
UndoOperation
Index: 0
Type: 1
WasModified: 1
WasOrder2: 1
Layer: 2
Width: 166
VWidth: 1000
LBearingChange: 0
UnicodeEnc: 0
InstructionsLength: 0
SplineSet
137 781 m 132,-1,1
 152 766 152 766 152 748.75 c 132,-1,2
 152 731.5 152 731.5 155 520 c 4,3,4
 155 498 155 498 140 483 c 132,-1,5
 125 468 125 468 103 468 c 132,-1,6
 81 468 81 468 66 483 c 132,-1,7
 51 498 51 498 51 520 c 6,8,9
 51 520 51 520 49.5 606.5 c 132,-1,10
 48 693 48 693 48 744 c 4,11,12
 48 766 48 766 63 781 c 132,-1,13
 78 796 78 796 100 796 c 132,-1,0
 122 796 122 796 137 781 c 132,-1,1
EndSplineSet
EndUndoOperation
EndUndoes
Redoes
EndRedoes
EndUndoRedoHistory
Fore
SplineSet
51 504.860351562 m 0,0,1
 48 677.8671875 48 677.8671875 48 729 c 0,2,3
 48 757.208984375 48 757.208984375 67.3955078125 776.604492188 c 128,-1,4
 86.791015625 796 86.791015625 796 115 796 c 128,-1,5
 143.208984375 796 143.208984375 796 162.604492188 776.604492188 c 128,-1,6
 181.952148438 757.256835938 181.952148438 757.256835938 182 733.858398438 c 2,7,8
 183.500976562 604.4296875 183.500976562 604.4296875 185.000976562 505 c 2,9,10
 185.000976562 476.791015625 185.000976562 476.791015625 165.604492188 457.395507812 c 128,-1,11
 146.208984375 438 146.208984375 438 118 438 c 128,-1,12
 89.791015625 438 89.791015625 438 70.3955078125 457.395507812 c 128,-1,13
 51.052734375 476.73828125 51.052734375 476.73828125 51 504.860351562 c 0,0,1
EndSplineSet
EndChar

StartChar: parenright
Encoding: 41 41 12
AltUni2: 00ff09.ffffffff.0 00fe5a.ffffffff.0 00fe36.ffffffff.0 00208e.ffffffff.0 00207e.ffffffff.0 00ff09.ffffffff.0 00fe5a.ffffffff.0 00fe36.ffffffff.0 00208e.ffffffff.0 00207e.ffffffff.0
Width: 353
GlyphClass: 1
InSpiro: 1
Flags: W
LayerCount: 2
UndoRedoHistory
Layer: 1
Undoes
UndoOperation
Index: 0
Type: 1
WasModified: 0
WasOrder2: 1
Layer: 2
Width: 353
VWidth: 1000
LBearingChange: 0
UnicodeEnc: 0
InstructionsLength: 0
SplineSet
120.6875 778 m 0,0,1
 127.177734375 778 127.177734375 778 133.819335938 777 c 0,2,3
 160.927734375 772.973632812 160.927734375 772.973632812 176.428710938 754.905273438 c 0,4,5
 301.749023438 575.46484375 301.749023438 575.46484375 331.284179688 432.202148438 c 0,6,7
 343.301757812 374.262695312 343.301757812 374.262695312 343.301757812 304.235351562 c 0,8,9
 343.301757812 200.986328125 343.301757812 200.986328125 317.72265625 71.48828125 c 0,10,11
 297.381835938 -30.984375 297.381835938 -30.984375 253.759765625 -124.310546875 c 0,12,13
 210.138671875 -215.762695312 210.138671875 -215.762695312 136.3046875 -270.909179688 c 0,14,15
 119.221679688 -281.5625 119.221679688 -281.5625 97.0390625 -281.5625 c 0,16,17
 62.314453125 -281.5625 62.314453125 -281.5625 42.078125 -260.98828125 c 0,18,19
 28.4375 -247.245117188 28.4375 -247.245117188 28.4375 -230.404296875 c 0,20,21
 28.4375 -188.836914062 28.4375 -188.836914062 54.8955078125 -164.166015625 c 0,22,23
 148.334960938 -94.935546875 148.334960938 -94.935546875 188.265625 107.786132812 c 1,24,25
 188.296875 112.5859375 188.296875 112.5859375 188.327148438 108.24609375 c 1,26,27
 208.581054688 202.044921875 208.581054688 202.044921875 208.581054688 301.703125 c 0,28,29
 208.581054688 364.541992188 208.581054688 364.541992188 198.8046875 410.966796875 c 0,30,31
 176.404296875 518.05078125 176.404296875 518.05078125 65.626953125 679.905273438 c 0,32,33
 54 700.38671875 54 700.38671875 54 725.03125 c 0,34,35
 54 730.174804688 54 730.174804688 55.2529296875 735.512695312 c 0,36,37
 60.408203125 756.981445312 60.408203125 756.981445312 83.6943359375 769.008789062 c 0,38,39
 100.959960938 778 100.959960938 778 120.6875 778 c 0,0,1
  Spiro
    120.688 778 o
    127.216 777.75 o
    133.819 777 o
    158.026 769.463 o
    176.429 754.905 o
    277.803 584.509 o
    331.284 432.202 o
    340.297 371.241 o
    343.302 304.235 o
    336.907 194.424 o
    317.723 71.4883 o
    291.562 -28.6978 o
    253.76 -124.311 o
    202.585 -206.686 o
    136.305 -270.909 o
    117.947 -278.899 o
    97.0391 -281.562 o
    65.9365 -276.419 o
    42.0781 -260.988 o
    31.8477 -246.471 o
    28.4375 -230.404 o
    35.052 -193.061 o
    54.8955 -164.166 o
    134.958 -61.5627 o
    188.266 107.786 v
    188.297 110.301 o
    188.327 108.246 v
    203.518 203.51 o
    208.581 301.703 o
    206.137 360.438 o
    198.805 410.967 o
    154.31 531.743 o
    65.627 679.905 o
    56.9067 701.427 o
    54 725.031 o
    54.3132 730.223 o
    55.2529 735.513 o
    64.9409 754.621 o
    83.6943 769.009 o
    101.575 775.752 o
    0 0 z
  EndSpiro
EndSplineSet
EndUndoOperation
UndoOperation
Index: 1
Type: 3
WasModified: 0
WasOrder2: 1
Layer: 2
EndUndoOperation
UndoOperation
Index: 2
Type: 1
WasModified: 1
WasOrder2: 1
Layer: 2
Width: 323
VWidth: 1000
LBearingChange: 0
UnicodeEnc: 0
InstructionsLength: 0
SplineSet
149 755 m 0,0,1
 272.643794147 574.957282207 272.643794147 574.957282207 301.582874704 432.19115146 c 128,-1,2
 330.521955261 289.425020713 330.521955261 289.425020713 288 71.5 c 0,3,4
 268 -31 268 -31 225.5 -123.5 c 128,-1,5
 183 -216 183 -216 112 -271 c 0,6,7
 96 -284 96 -284 74 -281 c 128,-1,8
 52 -278 52 -278 39 -261 c 128,-1,9
 26 -244 26 -244 29 -222.5 c 128,-1,10
 32 -201 32 -201 49 -188 c 0,11,12
 147 -113 147 -113 188 102 c 0,13,14
 205 182 205 182 208 269 c 128,-1,15
 211 356 211 356 198.5 417 c 0,16,17
 175.50093187 529.235452475 175.50093187 529.235452475 63 697 c 0,18,19
 51 714 51 714 55 735.5 c 128,-1,20
 59 757 59 757 77 769 c 128,-1,21
 95 781 95 781 116 777 c 128,-1,22
 137 773 137 773 149 755 c 0,0,1
  Spiro
    149 755 o
    200.75 675 o
    242 601 o
    278.75 513.5 o
    303 425 o
    311.125 356.75 o
    311.5 270 o
    304.375 175 o
    290 82 o
    263.75 -23.75 o
    229 -115 o
    176.75 -204.5 o
    112 -271 o
    94.5 -280 o
    74 -281 o
    54.25 -274.5 o
    39 -261 o
    30 -242.875 o
    29 -222.5 o
    35.5 -203.125 o
    49 -188 o
    132.75 -78 o
    188 102 o
    201.5 186 o
    208 278 o
    207.75 348.5 o
    201 404 o
    180.5 478.5 o
    149 554 o
    113 618.75 o
    63 697 o
    55 715.125 o
    55 735.5 o
    62.5 754.625 o
    77 769 o
    95.75 777 o
    116 777 o
    134.75 769.5 o
    0 0 z
  EndSpiro
EndSplineSet
EndUndoOperation
EndUndoes
Redoes
EndRedoes
EndUndoRedoHistory
Fore
SplineSet
127.206054688 778 m 0,0,1
 133.046875 778 133.046875 778 139.024414062 777 c 0,2,3
 163.421875 772.973632812 163.421875 772.973632812 177.373046875 754.905273438 c 0,4,5
 290.161132812 575.46484375 290.161132812 575.46484375 316.743164062 432.202148438 c 0,6,7
 327.55859375 374.262695312 327.55859375 374.262695312 327.55859375 304.235351562 c 0,8,9
 327.55859375 200.986328125 327.55859375 200.986328125 304.537109375 71.48828125 c 0,10,11
 286.23046875 -30.984375 286.23046875 -30.984375 246.970703125 -124.310546875 c 0,12,13
 207.711914062 -215.762695312 207.711914062 -215.762695312 141.260742188 -270.909179688 c 0,14,15
 125.88671875 -281.5625 125.88671875 -281.5625 105.921875 -281.5625 c 0,16,17
 74.669921875 -281.5625 74.669921875 -281.5625 56.45703125 -260.98828125 c 0,18,19
 44.1806640625 -247.245117188 44.1806640625 -247.245117188 44.1806640625 -230.404296875 c 0,20,21
 44.1806640625 -188.836914062 44.1806640625 -188.836914062 67.9931640625 -164.166015625 c 0,22,23
 152.088867188 -94.935546875 152.088867188 -94.935546875 188.026367188 107.786132812 c 1,24,25
 188.053710938 112.5859375 188.053710938 112.5859375 188.081054688 108.24609375 c 1,26,27
 206.309570312 202.044921875 206.309570312 202.044921875 206.309570312 301.703125 c 0,28,29
 206.309570312 364.541992188 206.309570312 364.541992188 197.510742188 410.966796875 c 0,30,31
 177.350585938 518.05078125 177.350585938 518.05078125 77.6513671875 679.905273438 c 0,32,33
 67.1865234375 700.38671875 67.1865234375 700.38671875 67.1865234375 725.03125 c 0,34,35
 67.1865234375 730.174804688 67.1865234375 730.174804688 68.314453125 735.512695312 c 0,36,37
 72.9541015625 756.981445312 72.9541015625 756.981445312 93.912109375 769.008789062 c 0,38,39
 109.451171875 778 109.451171875 778 127.206054688 778 c 0,0,1
  Spiro
    127.206 778 o
    133.081 777.75 o
    139.024 777 o
    160.81 769.463 o
    177.373 754.905 o
    268.61 584.509 o
    316.743 432.202 o
    324.854 371.241 o
    327.559 304.235 o
    321.803 194.424 o
    304.538 71.4883 o
    280.993 -28.6978 o
    246.971 -124.311 o
    200.913 -206.686 o
    141.261 -270.909 o
    124.739 -278.899 o
    105.922 -281.562 o
    77.9298 -276.419 o
    56.4573 -260.988 o
    47.2499 -246.471 o
    44.1807 -230.404 o
    50.1338 -193.061 o
    67.9929 -164.166 o
    140.049 -61.5627 o
    188.026 107.786 v
    188.054 110.301 o
    188.081 108.246 v
    201.753 203.51 o
    206.31 301.703 o
    204.11 360.438 o
    197.511 410.967 o
    157.466 531.743 o
    77.6513 679.905 o
    69.803 701.427 o
    67.187 725.031 o
    67.4689 730.223 o
    68.3146 735.513 o
    77.0338 754.621 o
    93.9118 769.009 o
    110.004 775.752 o
    0 0 z
  EndSpiro
EndSplineSet
Substitution2: "'rtla' Right to Left Alternates lookup 0 subtable" parenleft
EndChar

StartChar: asterisk
Encoding: 42 42 13
AltUni2: 00ff0a.ffffffff.0 00fe61.ffffffff.0 002731.ffffffff.0 002217.ffffffff.0 00ff0a.ffffffff.0 00fe61.ffffffff.0 002731.ffffffff.0 002217.ffffffff.0
Width: 503
GlyphClass: 1
Flags: W
LayerCount: 2
UndoRedoHistory
Layer: 1
Undoes
UndoOperation
Index: 0
Type: 1
WasModified: 0
WasOrder2: 1
Layer: 2
Width: 503
VWidth: 1000
LBearingChange: 0
UnicodeEnc: 0
InstructionsLength: 0
SplineSet
249 430 m 5,0,1
 242 420 242 420 222 394 c 132,-1,2
 202 368 202 368 190 352 c 4,3,4
 177 335 177 335 155.5 331.5 c 132,-1,5
 134 328 134 328 117 341 c 132,-1,6
 100 354 100 354 97 375.5 c 132,-1,7
 94 397 94 397 107 414 c 4,8,9
 118 429 118 429 138 455 c 5,10,11
 110 453 110 453 100 453 c 4,12,13
 78 452 78 452 62.5 467 c 132,-1,14
 47 482 47 482 47 504 c 4,15,16
 46 525 46 525 61 540.5 c 132,-1,17
 76 556 76 556 98 557 c 4,18,19
 106 557 106 557 134 559 c 5,20,21
 91 616 91 616 80 634 c 132,-1,22
 69 652 69 652 73.5 673 c 132,-1,23
 78 694 78 694 97 705 c 4,24,25
 115 717 115 717 136 712 c 132,-1,26
 157 707 157 707 168 689 c 4,27,28
 194 648 194 648 244 590 c 5,29,30
 245 591 245 591 251 598 c 132,-1,31
 257 605 257 605 260 609 c 4,32,33
 267 616 267 616 270 620 c 4,34,35
 273 623 273 623 301 656 c 4,36,37
 305 660 305 660 319.5 676.5 c 132,-1,38
 334 693 334 693 337 696 c 4,39,40
 351 712 351 712 372 713 c 132,-1,41
 393 714 393 714 410 700 c 4,42,43
 426 686 426 686 427.5 664.5 c 132,-1,44
 429 643 429 643 415 627 c 4,45,46
 412 624 412 624 397.5 607.5 c 132,-1,47
 383 591 383 591 379 587 c 4,48,49
 377 584 377 584 372 579 c 5,50,51
 427 572 427 572 463 554 c 4,52,53
 483 544 483 544 490 524 c 132,-1,54
 497 504 497 504 487 485 c 4,55,56
 477 465 477 465 457 458 c 132,-1,57
 437 451 437 451 417 461 c 4,58,59
 395 473 395 473 352 476 c 5,60,61
 393 438 393 438 417 426 c 4,62,63
 436 416 436 416 443 396 c 132,-1,64
 450 376 450 376 440 357 c 4,65,66
 430 337 430 337 410 330 c 132,-1,67
 390 323 390 323 370 333 c 4,68,69
 320 358 320 358 249 430 c 5,0,1
EndSplineSet
EndUndoOperation
UndoOperation
Index: 1
Type: 3
WasModified: 0
WasOrder2: 1
Layer: 2
EndUndoOperation
EndUndoes
Redoes
EndRedoes
EndUndoRedoHistory
Fore
SplineSet
250.950195312 439.150390625 m 5,0,1
 244.650390625 430.150390625 244.650390625 430.150390625 226.650390625 406.75 c 132,-1,2
 208.650390625 383.349609375 208.650390625 383.349609375 197.849609375 368.950195312 c 4,3,4
 186.150390625 353.650390625 186.150390625 353.650390625 166.799804688 350.5 c 132,-1,5
 147.450195312 347.349609375 147.450195312 347.349609375 132.150390625 359.049804688 c 132,-1,6
 116.849609375 370.75 116.849609375 370.75 114.150390625 390.099609375 c 132,-1,7
 111.450195312 409.450195312 111.450195312 409.450195312 123.150390625 424.75 c 4,8,9
 133.049804688 438.25 133.049804688 438.25 151.049804688 461.650390625 c 5,10,11
 125.849609375 459.849609375 125.849609375 459.849609375 116.849609375 459.849609375 c 4,12,13
 97.0498046875 458.950195312 97.0498046875 458.950195312 83.099609375 472.450195312 c 132,-1,14
 69.150390625 485.950195312 69.150390625 485.950195312 69.150390625 505.75 c 4,15,16
 68.25 524.650390625 68.25 524.650390625 81.75 538.599609375 c 132,-1,17
 95.25 552.549804688 95.25 552.549804688 115.049804688 553.450195312 c 4,18,19
 122.25 553.450195312 122.25 553.450195312 147.450195312 555.25 c 5,20,21
 108.75 606.549804688 108.75 606.549804688 98.849609375 622.75 c 132,-1,22
 88.9501953125 638.950195312 88.9501953125 638.950195312 93 657.849609375 c 132,-1,23
 97.0498046875 676.75 97.0498046875 676.75 114.150390625 686.650390625 c 4,24,25
 130.349609375 697.450195312 130.349609375 697.450195312 149.25 692.950195312 c 132,-1,26
 168.150390625 688.450195312 168.150390625 688.450195312 178.049804688 672.25 c 4,27,28
 201.450195312 635.349609375 201.450195312 635.349609375 246.450195312 583.150390625 c 5,29,30
 247.349609375 584.049804688 247.349609375 584.049804688 252.75 590.349609375 c 132,-1,31
 258.150390625 596.650390625 258.150390625 596.650390625 260.849609375 600.25 c 4,32,33
 267.150390625 606.549804688 267.150390625 606.549804688 269.849609375 610.150390625 c 4,34,35
 272.549804688 612.849609375 272.549804688 612.849609375 297.75 642.549804688 c 4,36,37
 301.349609375 646.150390625 301.349609375 646.150390625 314.400390625 661 c 132,-1,38
 327.450195312 675.849609375 327.450195312 675.849609375 330.150390625 678.549804688 c 4,39,40
 342.75 692.950195312 342.75 692.950195312 361.650390625 693.849609375 c 132,-1,41
 380.549804688 694.75 380.549804688 694.75 395.849609375 682.150390625 c 4,42,43
 410.25 669.549804688 410.25 669.549804688 411.599609375 650.200195312 c 132,-1,44
 412.950195312 630.849609375 412.950195312 630.849609375 400.349609375 616.450195312 c 4,45,46
 397.650390625 613.75 397.650390625 613.75 384.599609375 598.900390625 c 132,-1,47
 371.549804688 584.049804688 371.549804688 584.049804688 367.950195312 580.450195312 c 4,48,49
 366.150390625 577.75 366.150390625 577.75 361.650390625 573.25 c 5,50,51
 411.150390625 566.950195312 411.150390625 566.950195312 443.549804688 550.75 c 4,52,53
 461.549804688 541.75 461.549804688 541.75 467.849609375 523.75 c 132,-1,54
 474.150390625 505.75 474.150390625 505.75 465.150390625 488.650390625 c 4,55,56
 456.150390625 470.650390625 456.150390625 470.650390625 438.150390625 464.349609375 c 132,-1,57
 420.150390625 458.049804688 420.150390625 458.049804688 402.150390625 467.049804688 c 4,58,59
 382.349609375 477.849609375 382.349609375 477.849609375 343.650390625 480.549804688 c 5,60,61
 380.549804688 446.349609375 380.549804688 446.349609375 402.150390625 435.549804688 c 4,62,63
 419.25 426.549804688 419.25 426.549804688 425.549804688 408.549804688 c 132,-1,64
 431.849609375 390.549804688 431.849609375 390.549804688 422.849609375 373.450195312 c 4,65,66
 413.849609375 355.450195312 413.849609375 355.450195312 395.849609375 349.150390625 c 132,-1,67
 377.849609375 342.849609375 377.849609375 342.849609375 359.849609375 351.849609375 c 4,68,69
 314.849609375 374.349609375 314.849609375 374.349609375 250.950195312 439.150390625 c 5,0,1
EndSplineSet
EndChar

StartChar: plus
Encoding: 43 43 14
AltUni2: 00ff0b.ffffffff.0 00fe62.ffffffff.0 00fb29.ffffffff.0 00208a.ffffffff.0 00207a.ffffffff.0 00ff0b.ffffffff.0 00fe62.ffffffff.0 00fb29.ffffffff.0 00208a.ffffffff.0 00207a.ffffffff.0
Width: 638
GlyphClass: 1
Flags: W
LayerCount: 2
UndoRedoHistory
Layer: 1
Undoes
EndUndoes
Redoes
RedoOperation
Index: 0
Type: 1
WasModified: 0
WasOrder2: 1
Layer: 2
Width: 638
VWidth: 1000
LBearingChange: 0
UnicodeEnc: 0
InstructionsLength: 0
SplineSet
177.89288511 309.026189307 m 2,0,1
 155.590524033 307.714285714 155.590524033 307.714285714 133.332406882 307.714285714 c 128,-1,2
 111.074289731 307.714285714 111.074289731 307.714285714 99.8411597783 308.985187813 c 128,-1,3
 88.6080298256 310.256089912 88.6080298256 310.256089912 87.6472424558 310.258064516 c 0,4,5
 75.0343180431 310.258064516 75.0343180431 310.258064516 63.6962605723 301.254312995 c 0,6,7
 50.7419354839 290.967054837 50.7419354839 290.967054837 50.7419354839 272.647242456 c 0,8,9
 50.7419354839 260.034318043 50.7419354839 260.034318043 59.7456870048 248.696260572 c 128,-1,10
 68.7494385257 237.358203102 68.7494385257 237.358203102 84.3728630053 235.937891785 c 0,11,12
 107.72072675 233.714285714 107.72072675 233.714285714 132.699360225 233.714285714 c 128,-1,13
 157.6779937 233.714285714 157.6779937 233.714285714 182.052940369 234.971400253 c 0,14,15
 222.732614538 237.951849801 222.732614538 237.951849801 294 245.72647367 c 1,16,-1
 294 229 l 2,17,18
 294 203.841118826 294 203.841118826 296.907683933 177.671963425 c 2,19,-1
 296.923340985 177.524413723 l 2,20,21
 305.713795968 90.5965811118 305.713795968 90.5965811118 331.947303202 24.5270073365 c 0,22,23
 337.611739226 10.3659172761 337.611739226 10.3659172761 351.856496841 4.31189529004 c 0,24,25
 359.36398665 1.12121212121 359.36398665 1.12121212121 366.385811203 1.12121212121 c 128,-1,26
 373.407635757 1.12121212121 373.407635757 1.12121212121 380.437866336 3.93330435305 c 0,27,28
 394.458458701 9.54154129893 394.458458701 9.54154129893 400.066695647 23.5621336636 c 0,29,30
 403.266666667 31.5620612129 403.266666667 31.5620612129 403.266666667 38.7329916427 c 128,-1,31
 403.266666667 45.9039220725 403.266666667 45.9039220725 400.985315595 52.6207602609 c 0,32,33
 377.246664028 108.620722106 377.246664028 108.620722106 371.064107859 184.593936984 c 0,34,35
 369.037426046 203.916090328 369.037426046 203.916090328 366.175918156 252.561724462 c 1,36,37
 402.277811303 256 402.277811303 256 439 256 c 2,38,-1
 439.652027536 255.986054323 l 1,39,40
 513.780335622 252.809126834 513.780335622 252.809126834 555.228903926 225.540331897 c 0,41,42
 564.630310863 219.272727273 564.630310863 219.272727273 574.768595041 219.272727273 c 0,43,44
 595.155214388 219.272727273 595.155214388 219.272727273 606.510295257 236.305348576 c 0,45,46
 612.727272727 245.630814781 612.727272727 245.630814781 612.727272727 255.768595041 c 0,47,48
 612.727272727 276.155214388 612.727272727 276.155214388 595.694651424 287.510295257 c 0,49,50
 538.298146937 325.14734738 538.298146937 325.14734738 442.617064833 329.999972969 c 0,51,52
 404.345750014 329.999972969 404.345750014 329.999972969 366.75268505 328.291197289 c 1,53,54
 367.5 376.119354099 367.5 376.119354099 367.5 401.25 c 128,-1,55
 367.5 426.293739924 367.5 426.293739924 367.005562136 444.587940875 c 2,56,-1
 367.005562136 444.732204776 l 2,57,58
 366.026352005 500.547182256 366.026352005 500.547182256 358.223360277 547.40639054 c 0,59,60
 355.27218786 563.477624833 355.27218786 563.477624833 344.32213364 571.529134997 c 128,-1,61
 333.372079419 579.580645161 333.372079419 579.580645161 321.328824142 579.580645161 c 0,62,63
 302.955066205 579.580645161 302.955066205 579.580645161 291.592292429 564.127274541 c 0,64,65
 284.419354839 554.372079419 284.419354839 554.372079419 284.419354839 542.328824142 c 0,66,67
 284.419354839 539.327358961 284.419354839 539.327358961 284.850353395 536.127248331 c 0,68,69
 291.976148778 488.242958077 291.976148778 488.242958077 292.996236613 442.339010823 c 0,70,71
 293.5 424.707292263 293.5 424.707292263 293.5 399.75 c 128,-1,72
 293.5 374.926786829 293.5 374.926786829 293 342.880731603 c 2,73,-1
 293 334 l 1,74,-1
 293 319 l 1,75,-1
 281.20904375 319 l 1,76,-1
 280.20904375 318 l 1,77,-1
 274 318 l 1,78,-1
 272.855805148 318 l 1,79,80
 220.057432443 312.036749121 220.057432443 312.036749121 178.082124821 309.038512862 c 2,81,-1
 177.89288511 309.026189307 l 2,0,1
EndSplineSet
EndRedoOperation
EndRedoes
EndUndoRedoHistory
Fore
SplineSet
93 325 m 0,0,1
 126 321 126 321 177 324 c 0,2,3
 219 327 219 327 272 333 c 1,4,-1
 274 333 l 2,5,6
 275 334 275 334 278 334 c 1,7,-1
 278 343 l 2,8,9
 279 407 279 407 278 442 c 0,10,11
 277 487 277 487 270 534 c 0,12,13
 267 556 267 556 279.5 573 c 128,-1,14
 292 590 292 590 313 594 c 0,15,16
 335 597 335 597 352 584.5 c 128,-1,17
 369 572 369 572 373 550 c 0,18,19
 381 502 381 502 382 445 c 0,20,21
 383 408 383 408 382 344 c 1,22,23
 404 345 404 345 443 345 c 0,24,25
 543 340 543 340 604 300 c 0,26,27
 622 288 622 288 626.5 267 c 128,-1,28
 631 246 631 246 619 228 c 128,-1,29
 607 210 607 210 586 205.5 c 128,-1,30
 565 201 565 201 547 213 c 0,31,32
 509 238 509 238 439 241 c 0,33,34
 403 241 403 241 382 239 c 1,35,36
 384 205 384 205 386 186 c 0,37,38
 392 112 392 112 415 58 c 0,39,40
 422 38 422 38 414 18 c 128,-1,41
 406 -2 406 -2 386 -10 c 128,-1,42
 366 -18 366 -18 346 -9.5 c 128,-1,43
 326 -1 326 -1 318 19 c 0,44,45
 291 87 291 87 282 176 c 0,46,47
 279 203 279 203 279 229 c 1,48,49
 224 223 224 223 183 220 c 0,50,51
 125 217 125 217 83 221 c 0,52,53
 61 223 61 223 47.5 240 c 128,-1,54
 34 257 34 257 36 278 c 0,55,56
 38 300 38 300 55 313.5 c 128,-1,57
 72 327 72 327 93 325 c 0,0,1
EndSplineSet
EndChar

StartChar: comma
Encoding: 44 44 15
AltUni2: 00ff0c.ffffffff.0 00fe50.ffffffff.0 00fe10.ffffffff.0 003001.ffffffff.0 00066c.ffffffff.0 00ff0c.ffffffff.0 00fe50.ffffffff.0 00fe10.ffffffff.0 003001.ffffffff.0 00066c.ffffffff.0 00fe11.ffffffff.0 00fe51.ffffffff.0 00ff64.ffffffff.0
Width: 230
GlyphClass: 1
Flags: W
LayerCount: 2
UndoRedoHistory
Layer: 1
Undoes
UndoOperation
Index: 0
Type: 3
WasModified: 1
WasOrder2: 1
Layer: 2
EndUndoOperation
UndoOperation
Index: 1
Type: 1
WasModified: 0
WasOrder2: 1
Layer: 2
Width: 230
VWidth: 1000
LBearingChange: 0
UnicodeEnc: 0
InstructionsLength: 0
SplineSet
152 102 m 0,0,1
 188 63 188 63 203 34 c 0,2,3
 223 -5 223 -5 219 -40 c 0,4,5
 216 -75 216 -75 193 -107 c 0,6,7
 175 -132 175 -132 144 -162 c 0,8,9
 129 -178 129 -178 107.5 -178 c 128,-1,10
 86 -178 86 -178 71 -162 c 0,11,12
 56 -147 56 -147 56 -125.5 c 128,-1,13
 56 -104 56 -104 71 -89 c 0,14,15
 92 -68 92 -68 108 -48 c 0,16,17
 116 -35 116 -35 116 -31 c 0,18,19
 116 -24 116 -24 111 -14 c 0,20,21
 103 1 103 1 75 32 c 0,22,23
 61 48 61 48 62 69.5 c 128,-1,24
 63 91 63 91 79 105 c 0,25,26
 95 120 95 120 116.5 119 c 128,-1,27
 138 118 138 118 152 102 c 0,0,1
EndSplineSet
EndUndoOperation
EndUndoes
Redoes
EndRedoes
EndUndoRedoHistory
Fore
SplineSet
111.872070312 -58.6142578125 m 1,0,1
 91.7900390625 -83.716796875 91.7900390625 -83.716796875 66.1171875 -109.389648438 c 0,2,3
 51.6337890625 -123.874023438 51.6337890625 -123.874023438 51.6337890625 -144.706054688 c 0,4,5
 51.6337890625 -165.064453125 51.6337890625 -165.064453125 66.2314453125 -180.385742188 c 128,-1,6
 80.8291015625 -195.706054688 80.8291015625 -195.706054688 101.43359375 -195.706054688 c 0,7,8
 121.317382812 -195.706054688 121.317382812 -195.706054688 136.890625 -179.883789062 c 0,9,10
 173.317382812 -144.6328125 173.317382812 -144.6328125 194.2890625 -115.505859375 c 0,11,12
 224.033203125 -74.1220703125 224.033203125 -74.1220703125 224.033203125 -27.97265625 c 0,13,14
 224.033203125 4.7939453125 224.033203125 4.7939453125 206.073242188 39.673828125 c 128,-1,15
 188.112304688 74.552734375 188.112304688 74.552734375 146.014648438 120.158203125 c 0,16,17
 131.08203125 136.7734375 131.08203125 136.7734375 110.529296875 136.770507812 c 0,18,19
 90.484375 136.768554688 90.484375 136.768554688 75.1337890625 123.100585938 c 0,20,21
 58.7490234375 108.51171875 58.7490234375 108.51171875 58.7509765625 87.6357421875 c 128,-1,22
 58.7529296875 66.7607421875 58.7529296875 66.7607421875 71.40625 52.2578125 c 0,23,24
 106.698242188 13.1787109375 106.698242188 13.1787109375 115.166015625 -3.4462890625 c 128,-1,25
 123.633789062 -20.0712890625 123.633789062 -20.0712890625 123.633789062 -29.787109375 c 128,-1,26
 123.633789062 -39.5029296875 123.633789062 -39.5029296875 111.872070312 -58.6142578125 c 1,0,1
EndSplineSet
EndChar

StartChar: hyphen
Encoding: 45 45 16
AltUni2: 00ff0d.ffffffff.0 00fe63.ffffffff.0 002212.ffffffff.0 002015.ffffffff.0 002014.ffffffff.0 002013.ffffffff.0 002012.ffffffff.0 002010.ffffffff.0 00ff0d.ffffffff.0 00fe63.ffffffff.0 002212.ffffffff.0 002015.ffffffff.0 002014.ffffffff.0 002013.ffffffff.0 002012.ffffffff.0 002010.ffffffff.0 002011.ffffffff.0 00207b.ffffffff.0 00208b.ffffffff.0 002500.ffffffff.0 00fe31.ffffffff.0 00fe32.ffffffff.0 00fe58.ffffffff.0
Width: 444
GlyphClass: 1
Flags: W
LayerCount: 2
UndoRedoHistory
Layer: 0
Undoes
UndoOperation
Index: 0
Type: 1
WasModified: 1
WasOrder2: 1
Layer: 2
Width: 414
VWidth: 1000
LBearingChange: 0
UnicodeEnc: 0
InstructionsLength: 0
EndUndoOperation
EndUndoes
Redoes
EndRedoes
EndUndoRedoHistory
UndoRedoHistory
Layer: 1
Undoes
UndoOperation
Index: 0
Type: 3
WasModified: 1
WasOrder2: 1
Layer: 2
EndUndoOperation
UndoOperation
Index: 1
Type: 1
WasModified: 1
WasOrder2: 1
Layer: 2
Width: 382
VWidth: 1000
LBearingChange: 0
UnicodeEnc: 0
InstructionsLength: 0
SplineSet
60.3251953125 344.200195312 m 0,0,1
 90.224609375 334.599609375 90.224609375 334.599609375 127.924804688 333.400390625 c 0,2,3
 146.125 332.200195312 146.125 332.200195312 199.424804688 332.200195312 c 0,4,5
 248.825195312 332.200195312 248.825195312 332.200195312 268.325195312 331 c 0,6,7
 317.724609375 326.200195312 317.724609375 326.200195312 341.125 320.200195312 c 0,8,9
 360.625 316.599609375 360.625 316.599609375 371.025390625 295.599609375 c 128,-1,10
 381.424804688 274.599609375 381.424804688 274.599609375 378.825195312 248.200195312 c 0,11,12
 374.924804688 223 374.924804688 223 359.974609375 208 c 128,-1,13
 345.025390625 193 345.025390625 193 326.825195312 197.799804688 c 0,14,15
 289.125 205 289.125 205 264.424804688 206.200195312 c 0,16,17
 247.525390625 207.400390625 247.525390625 207.400390625 199.424804688 207.400390625 c 0,18,19
 144.825195312 207.400390625 144.825195312 207.400390625 124.025390625 208.599609375 c 0,20,21
 78.525390625 212.200195312 78.525390625 212.200195312 43.4248046875 220.599609375 c 0,22,23
 25.224609375 225.400390625 25.224609375 225.400390625 14.8251953125 247 c 128,-1,24
 4.4248046875 268.599609375 4.4248046875 268.599609375 7.6748046875 293.799804688 c 128,-1,25
 10.9248046875 319 10.9248046875 319 26.525390625 334 c 128,-1,26
 42.125 349 42.125 349 60.3251953125 344.200195312 c 0,0,1
EndSplineSet
EndUndoOperation
UndoOperation
Index: 2
Type: 1
WasModified: 0
WasOrder2: 1
Layer: 2
Width: 382
VWidth: 1000
LBearingChange: 0
UnicodeEnc: 0
InstructionsLength: 0
SplineSet
91 332 m 4,0,1
 114 324 114 324 143 323 c 4,2,3
 157 322 157 322 198 322 c 4,4,5
 236 322 236 322 251 321 c 4,6,7
 289 317 289 317 307 312 c 4,8,9
 322 309 322 309 330 291.5 c 132,-1,10
 338 274 338 274 336 252 c 4,11,12
 333 231 333 231 321.5 218.5 c 132,-1,13
 310 206 310 206 296 210 c 4,14,15
 267 216 267 216 248 217 c 4,16,17
 235 218 235 218 198 218 c 4,18,19
 156 218 156 218 140 219 c 4,20,21
 105 222 105 222 78 229 c 4,22,23
 64 233 64 233 56 251 c 132,-1,24
 48 269 48 269 50.5 290 c 132,-1,25
 53 311 53 311 65 323.5 c 132,-1,26
 77 336 77 336 91 332 c 4,0,1
EndSplineSet
EndUndoOperation
UndoOperation
Index: 3
Type: 3
WasModified: 0
WasOrder2: 1
Layer: 2
EndUndoOperation
EndUndoes
Redoes
EndRedoes
EndUndoRedoHistory
Fore
SplineSet
90.3251953125 344.200195312 m 0,0,1
 120.224609375 334.599609375 120.224609375 334.599609375 157.924804688 333.400390625 c 0,2,3
 176.125 332.200195312 176.125 332.200195312 229.424804688 332.200195312 c 0,4,5
 278.825195312 332.200195312 278.825195312 332.200195312 298.325195312 331 c 0,6,7
 347.724609375 326.200195312 347.724609375 326.200195312 371.125 320.200195312 c 0,8,9
 390.625 316.599609375 390.625 316.599609375 401.025390625 295.599609375 c 128,-1,10
 411.424804688 274.599609375 411.424804688 274.599609375 408.825195312 248.200195312 c 0,11,12
 404.924804688 223 404.924804688 223 389.974609375 208 c 128,-1,13
 375.025390625 193 375.025390625 193 356.825195312 197.799804688 c 0,14,15
 319.125 205 319.125 205 294.424804688 206.200195312 c 0,16,17
 277.525390625 207.400390625 277.525390625 207.400390625 229.424804688 207.400390625 c 0,18,19
 174.825195312 207.400390625 174.825195312 207.400390625 154.025390625 208.599609375 c 0,20,21
 108.525390625 212.200195312 108.525390625 212.200195312 73.4248046875 220.599609375 c 0,22,23
 55.224609375 225.400390625 55.224609375 225.400390625 44.8251953125 247 c 128,-1,24
 34.4248046875 268.599609375 34.4248046875 268.599609375 37.6748046875 293.799804688 c 128,-1,25
 40.9248046875 319 40.9248046875 319 56.525390625 334 c 128,-1,26
 72.125 349 72.125 349 90.3251953125 344.200195312 c 0,0,1
EndSplineSet
EndChar

StartChar: period
Encoding: 46 46 17
AltUni2: 00ff0e.ffffffff.0 00fe52.ffffffff.0 002024.ffffffff.0 00ff0e.ffffffff.0 00fe52.ffffffff.0 002024.ffffffff.0
Width: 198
GlyphClass: 1
Flags: W
LayerCount: 2
UndoRedoHistory
Layer: 1
Undoes
UndoOperation
Index: 0
Type: 1
WasModified: 1
WasOrder2: 1
Layer: 2
Width: 198
VWidth: 1000
LBearingChange: 0
UnicodeEnc: 0
InstructionsLength: 0
SplineSet
146.695120263 -0.965372561093 m 4,0,1
 177.125 12.2209086584 177.125 12.2209086584 177.125 51.3806061649 c 4,2,3
 177.125 58.823748496 177.125 58.823748496 174.340243851 70.134932974 c 4,4,5
 171.865799073 80.1856878236 171.865799073 80.1856878236 164.98887569 93.6617697935 c 4,6,7
 152.206524914 120.1394964 152.206524914 120.1394964 134.278073066 131.792990102 c 4,8,9
 122.813654071 140.391304348 122.813654071 140.391304348 105.328413386 140.391304348 c 132,-1,10
 87.8431727004 140.391304348 87.8431727004 140.391304348 74.300089817 126.167988887 c 4,11,12
 64.4060646131 115.420946981 64.4060646131 115.420946981 61.8831715574 100.46275772 c 4,13,14
 61.021148982 94.3085691211 61.021148982 94.3085691211 61.0004579283 82.5232332352 c 4,15,16
 62.0558824336 72.8466493853 62.0558824336 72.8466493853 67.6947631642 46.4921498603 c 4,17,18
 70.6519098154 36.6438055017 70.6519098154 36.6438055017 70.9314027149 32.85603772 c 4,19,20
 71.380442593 31.5518529282 71.380442593 31.5518529282 73.6412417557 25.6617995582 c 4,21,22
 80.1140465058 2.19788233909 80.1140465058 2.19788233909 103.509260987 -4.31648040776 c 4,23,24
 117.39233782 -6.65159735984 117.39233782 -6.65159735984 122.345679012 -6.72222222222 c 4,25,26
 135.70477091 -6.72222222222 135.70477091 -6.72222222222 146.695120263 -0.965372561093 c 4,0,1
EndSplineSet
EndUndoOperation
UndoOperation
Index: 1
Type: 3
WasModified: 1
WasOrder2: 1
Layer: 2
EndUndoOperation
UndoOperation
Index: 2
Type: 1
WasModified: 0
WasOrder2: 1
Layer: 2
Width: 198
VWidth: 1000
LBearingChange: 0
UnicodeEnc: 0
InstructionsLength: 0
SplineSet
61 31 m 0,0,1
 61 34 61 34 58 44 c 0,2,3
 52 72 52 72 51 82 c 0,4,5
 51 95 51 95 52 102 c 0,6,7
 55 120 55 120 67 133 c 0,8,9
 86 153 86 153 113 150 c 0,10,11
 128 149 128 149 140 140 c 0,12,13
 160 127 160 127 174 98 c 0,14,15
 181 85 181 85 184 72 c 0,16,17
 189 53 189 53 186 37 c 0,18,19
 181 3 181 3 151 -10 c 0,20,21
 130 -21 130 -21 101 -14 c 0,22,23
 72 -6 72 -6 64 23 c 0,24,25
 63 25 63 25 61 31 c 0,0,1
EndSplineSet
EndUndoOperation
EndUndoes
Redoes
EndRedoes
EndUndoRedoHistory
Fore
SplineSet
152.221679688 -14.525390625 m 4,0,1
 188.737304688 1.2978515625 188.737304688 1.2978515625 188.737304688 48.2900390625 c 4,2,3
 188.737304688 57.2216796875 188.737304688 57.2216796875 185.395507812 70.794921875 c 4,4,5
 182.426757812 82.85546875 182.426757812 82.85546875 174.173828125 99.02734375 c 4,6,7
 158.834960938 130.80078125 158.834960938 130.80078125 137.321289062 144.78515625 c 4,8,9
 123.563476562 155.102539062 123.563476562 155.102539062 102.58203125 155.102539062 c 132,-1,10
 81.599609375 155.102539062 81.599609375 155.102539062 65.34765625 138.03515625 c 4,11,12
 53.474609375 125.138671875 53.474609375 125.138671875 50.447265625 107.188476562 c 4,13,14
 49.4130859375 99.8037109375 49.4130859375 99.8037109375 49.3876953125 85.6611328125 c 4,15,16
 50.654296875 74.048828125 50.654296875 74.048828125 57.4208984375 42.423828125 c 4,17,18
 60.9697265625 30.60546875 60.9697265625 30.60546875 61.3046875 26.060546875 c 4,19,20
 61.84375 24.4951171875 61.84375 24.4951171875 64.556640625 17.427734375 c 4,21,22
 72.32421875 -10.7294921875 72.32421875 -10.7294921875 100.3984375 -18.546875 c 4,23,24
 117.05859375 -21.3486328125 117.05859375 -21.3486328125 123.001953125 -21.43359375 c 4,25,26
 139.033203125 -21.43359375 139.033203125 -21.43359375 152.221679688 -14.525390625 c 4,0,1
EndSplineSet
EndChar

StartChar: slash
Encoding: 47 47 18
AltUni2: 00ff0f.ffffffff.0 002215.ffffffff.0 00ff0f.ffffffff.0 002215.ffffffff.0
Width: 678
GlyphClass: 1
Flags: W
LayerCount: 2
UndoRedoHistory
Layer: 1
Undoes
UndoOperation
Index: 0
Type: 1
WasModified: 1
WasOrder2: 1
Layer: 2
Width: 586
VWidth: 1000
LBearingChange: 0
UnicodeEnc: 0
InstructionsLength: 0
EndUndoOperation
UndoOperation
Index: 1
Type: 3
WasModified: 1
WasOrder2: 1
Layer: 2
EndUndoOperation
EndUndoes
Redoes
EndRedoes
EndUndoRedoHistory
Fore
SplineSet
40.408203125 -92.4990234375 m 0,0,1
 38.2734375 -108.583984375 38.2734375 -108.583984375 52.9990234375 -121.420898438 c 128,-1,2
 67.7236328125 -134.2578125 67.7236328125 -134.2578125 90.845703125 -134.2578125 c 128,-1,3
 113.966796875 -134.2578125 113.966796875 -134.2578125 130.99609375 -125.2421875 c 128,-1,4
 148.025390625 -116.2265625 148.025390625 -116.2265625 150.120117188 -101.5625 c 2,5,-1
 150.13671875 -101.44921875 l 1,6,7
 183.467773438 99.5458984375 183.467773438 99.5458984375 302.221679688 308.311523438 c 128,-1,8
 420.876953125 516.90234375 420.876953125 516.90234375 603.799804688 699.321289062 c 0,9,10
 613.518554688 709.040039062 613.518554688 709.040039062 613.518554688 724.33984375 c 128,-1,11
 613.518554688 739.639648438 613.518554688 739.639648438 593.98828125 748.3203125 c 128,-1,12
 574.458007812 757 574.458007812 757 551.508789062 757 c 128,-1,13
 528.55859375 757 528.55859375 757 512.252929688 740.694335938 c 0,14,15
 321.661132812 550.103515625 321.661132812 550.103515625 198.138671875 333.318359375 c 128,-1,16
 74.6162109375 116.534179688 74.6162109375 116.534179688 40.408203125 -92.4990234375 c 0,0,1
EndSplineSet
EndChar

StartChar: zero
Encoding: 48 48 19
AltUni2: 00ff10.ffffffff.0 002080.ffffffff.0 002070.ffffffff.0 00ff10.ffffffff.0 002080.ffffffff.0 002070.ffffffff.0
Width: 531
GlyphClass: 1
Flags: W
LayerCount: 2
UndoRedoHistory
Layer: 1
Undoes
UndoOperation
Index: 0
Type: 1
WasModified: 1
WasOrder2: 1
Layer: 2
Width: 471
VWidth: 1000
LBearingChange: 0
UnicodeEnc: 0
InstructionsLength: 0
SplineSet
180 619 m 1,0,1
 153 569 153 569 130 479 c 0,2,3
 101 366 101 366 101 275 c 0,4,5
 99 168 99 168 139 112 c 0,6,7
 181 53 181 53 278 63 c 0,8,9
 339 69 339 69 373 169 c 0,10,11
 407 273 407 273 391 401 c 0,12,13
 375 533 375 533 321 598 c 0,14,15
 269 661 269 661 192 622 c 0,16,17
 186 619 186 619 180 619 c 1,0,1
151 671 m 1,18,19
 155 677 155 677 162 680 c 0,20,21
 285 742 285 742 371 640 c 0,22,23
 439 558 439 558 456 409 c 0,24,25
 472 262 472 262 434 149 c 0,26,27
 414 86 414 86 380 49 c 0,28,29
 340 4 340 4 285 -2 c 0,30,31
 151 -16 151 -16 86 74 c 0,32,33
 34 148 34 148 36 276 c 0,34,35
 36 374 36 374 67 496 c 0,36,37
 94 599 94 599 126 655 c 0,38,39
 136 669 136 669 151 671 c 1,18,19
EndSplineSet
EndUndoOperation
EndUndoes
Redoes
EndRedoes
EndUndoRedoHistory
Fore
SplineSet
277.073086885 606.912109375 m 0,0,1
 251.771415398 606.912109375 251.771415398 606.912109375 221.839896398 595.193359375 c 0,2,3
 216.802711338 592.24609375 216.802711338 592.24609375 211.5440504 590.690429688 c 0,4,5
 183.97976353 548.284179688 183.97976353 548.284179688 160.038109751 475.280273438 c 0,6,7
 131 364.094726562 131 364.094726562 131 275 c 2,8,-1
 131 274.71484375 l 2,9,10
 130.907226562 269.758789062 130.907226562 269.758789062 130.904296875 264.924804688 c 0,11,12
 130.904296875 175.868164062 130.904296875 175.868164062 167.65064749 129.422851562 c 0,13,14
 203.471866742 91.55078125 203.471866742 91.55078125 281.416907761 91.55078125 c 0,15,16
 295.231883048 91.55078125 295.231883048 91.55078125 310.372374774 92.8486328125 c 0,17,18
 370.44242038 97.2255859375 370.44242038 97.2255859375 403.766601562 173.7421875 c 0,19,20
 426 242 426 242 426.120117188 321.538085938 c 0,21,22
 426.120117188 359.094726562 426.120117188 359.094726562 421.116210938 399.124023438 c 0,23,24
 405.638671875 520.3515625 405.638671875 520.3515625 347.994337601 578.838867188 c 0,25,26
 316.4935674 606.912109375 316.4935674 606.912109375 277.073086885 606.912109375 c 0,0,1
520.741210938 324.874023438 m 0,27,28
 520.741210938 228.740234375 520.741210938 228.740234375 493.26171875 149.119140625 c 0,29,30
 472.290039062 86.4853515625 472.290039062 86.4853515625 436.130859375 49.08984375 c 0,31,32
 391.12982557 4.0595703125 391.12982557 4.0595703125 321.914718179 -1.9990234375 c 0,33,34
 300.464946272 -3.884765625 300.464946272 -3.884765625 280.430839276 -3.884765625 c 0,35,36
 148.7578125 -3.884765625 148.7578125 -3.884765625 88.71875 74.09375 c 0,37,38
 35.92578125 145.971679688 35.92578125 145.971679688 35.92578125 266.592773438 c 0,39,40
 35.92578125 271.322265625 35.92578125 271.322265625 36 276.119140625 c 0,41,42
 36.0185546875 375.959960938 36.0185546875 375.959960938 67.48828125 499.80859375 c 0,43,44
 94.9873046875 599.111328125 94.9873046875 599.111328125 128.34375 654.3671875 c 1,45,46
 140.34375 666.673828125 140.34375 666.673828125 158.041488011 670.139648438 c 1,47,48
 164.294008043 676.334960938 164.294008043 676.334960938 172.690058438 679.877929688 c 0,49,50
 229.059564865 703.439453125 229.059564865 703.439453125 279.904416711 703.439453125 c 0,51,52
 365.11586985 703.439453125 365.11586985 703.439453125 427.55078125 639.896484375 c 0,53,54
 498.3984375 557.919921875 498.3984375 557.919921875 515.911132812 410.638671875 c 0,55,56
 520.741210938 366.268554688 520.741210938 366.268554688 520.741210938 324.874023438 c 0,27,28
EndSplineSet
EndChar

StartChar: one
Encoding: 49 49 20
AltUni2: 00ff11.ffffffff.0 002081.ffffffff.0 0000b9.ffffffff.0 00ff11.ffffffff.0 002081.ffffffff.0 0000b9.ffffffff.0
Width: 337
GlyphClass: 1
Flags: W
LayerCount: 2
UndoRedoHistory
Layer: 1
Undoes
EndUndoes
Redoes
RedoOperation
Index: 0
Type: 1
WasModified: 1
WasOrder2: 1
Layer: 2
Width: 367
VWidth: 1000
LBearingChange: 0
UnicodeEnc: 0
InstructionsLength: 0
SplineSet
293.040039062 730.200195312 m 0,0,1
 324.336914062 730.200195312 324.336914062 730.200195312 343.03125 716.918945312 c 0,2,3
 357.23046875 709.25 357.23046875 709.25 357.23046875 699.42578125 c 0,4,5
 357.23046875 690.661132812 357.23046875 690.661132812 355.983398438 681.828125 c 0,6,7
 355.737304688 671.185546875 355.737304688 671.185546875 348.130859375 646.046875 c 0,8,9
 335.173828125 579.953125 335.173828125 579.953125 332.421875 573.331054688 c 0,10,11
 319.852539062 524.875976562 319.852539062 524.875976562 312.896484375 501.6953125 c 0,12,13
 261.814453125 327.928710938 261.814453125 327.928710938 258.264648438 97.447265625 c 1,14,15
 272.477539062 96.244140625 272.477539062 96.244140625 285.576171875 85.029296875 c 0,16,17
 306.794921875 67.5185546875 306.794921875 67.5185546875 313.916992188 30.9111328125 c 0,18,19
 316.599609375 18.1884765625 316.599609375 18.1884765625 316.599609375 4.0634765625 c 0,20,21
 316.599609375 -3.375 316.599609375 -3.375 308.43359375 -9.9091796875 c 0,22,23
 296.584960938 -21.7255859375 296.584960938 -21.7255859375 273.129882812 -25.705078125 c 0,24,25
 262.407226562 -29.53515625 262.407226562 -29.53515625 230.209960938 -36.84765625 c 128,-1,26
 198.01171875 -44.25390625 198.01171875 -44.25390625 163.544921875 -64.44921875 c 1,27,28
 141.649414062 -70.693359375 141.649414062 -70.693359375 133.838867188 -70.693359375 c 128,-1,29
 126.02734375 -70.693359375 126.02734375 -70.693359375 118.348632812 -69.501953125 c 0,30,31
 94.1640625 -66.111328125 94.1640625 -66.111328125 80.6865234375 -54.59765625 c 0,32,33
 70.3330078125 -47.2080078125 70.3330078125 -47.2080078125 70.3330078125 -38.5556640625 c 0,34,35
 70.3330078125 -27.3505859375 70.3330078125 -27.3505859375 72.3193359375 -16.1572265625 c 0,36,37
 78.5419921875 20.4814453125 78.5419921875 20.4814453125 101.130859375 41.3671875 c 1,38,39
 120.473632812 53.0947265625 120.473632812 53.0947265625 133.016601562 59.7744140625 c 1,40,41
 133.919921875 301.450195312 133.919921875 301.450195312 185.130859375 490.270507812 c 1,42,43
 166.588867188 490.645507812 166.588867188 490.645507812 149.64453125 509.4453125 c 0,44,45
 124.599609375 535.092773438 124.599609375 535.092773438 124.599609375 583.440429688 c 0,46,47
 124.599609375 593.487304688 124.599609375 593.487304688 138.032226562 600.990234375 c 0,48,49
 161.162109375 632.025390625 161.162109375 632.025390625 191.517578125 668.40625 c 1,50,51
 224.21484375 701.578125 224.21484375 701.578125 230.4453125 706.408203125 c 0,52,53
 233.692382812 709.068359375 233.692382812 709.068359375 249.245117188 720.118164062 c 0,54,55
 270.048828125 730.200195312 270.048828125 730.200195312 293.040039062 730.200195312 c 0,0,1
EndSplineSet
EndRedoOperation
EndRedoes
EndUndoRedoHistory
Fore
SplineSet
193.58203125 526.625 m 1,0,1
 184.1015625 520.262695312 184.1015625 520.262695312 170.861328125 520.262695312 c 128,-1,2
 157.622070312 520.262695312 157.622070312 520.262695312 144.560546875 532.030273438 c 0,3,4
 124.599609375 549.256835938 124.599609375 549.256835938 124.599609375 583.440429688 c 0,5,6
 124.599609375 593.836914062 124.599609375 593.836914062 134.09375 601.833007812 c 0,7,8
 157.294921875 632.70703125 157.294921875 632.70703125 187.694335938 668.73828125 c 1,9,10
 219.958984375 702.637695312 219.958984375 702.637695312 225.133789062 706.645507812 c 0,11,12
 227.782226562 709.080078125 227.782226562 709.080078125 242.640625 720.610351562 c 0,13,14
 246.416992188 722.810546875 246.416992188 722.810546875 256.610351562 726.870117188 c 0,15,16
 267.01171875 730.200195312 267.01171875 730.200195312 278.040039062 730.200195312 c 0,17,18
 303.59765625 730.200195312 303.59765625 730.200195312 318.006835938 716.987304688 c 0,19,20
 327.23046875 708.856445312 327.23046875 708.856445312 327.23046875 699.42578125 c 0,21,22
 327.23046875 692.577148438 327.23046875 692.577148438 326 685.630859375 c 0,23,24
 326 678.96484375 326 678.96484375 323.889648438 673.307617188 c 0,25,26
 323.583007812 669.977539062 323.583007812 669.977539062 318.586914062 654.427734375 c 0,27,28
 305.549804688 589.015625 305.549804688 589.015625 303.197265625 584.114257812 c 0,29,30
 290.442382812 533.788085938 290.442382812 533.788085938 283.4765625 510.060546875 c 0,31,32
 230.034179688 319.692382812 230.034179688 319.692382812 228.07421875 65.5712890625 c 1,33,34
 245.646484375 71.4326171875 245.646484375 71.4326171875 262.071289062 60.2685546875 c 128,-1,35
 278.497070312 48.9345703125 278.497070312 48.9345703125 284.33984375 23.8232421875 c 0,36,37
 286.599609375 14.5185546875 286.599609375 14.5185546875 286.599609375 2.8603515625 c 0,38,39
 286.599609375 -3.1865234375 286.599609375 -3.1865234375 281.424804688 -9.9853515625 c 0,40,41
 272.684570312 -21.826171875 272.684570312 -21.826171875 253.927734375 -25.8916015625 c 0,42,43
 240.030273438 -30.9716796875 240.030273438 -30.9716796875 215.643554688 -35.8837890625 c 2,44,45
 213.454101562 -21.251953125 213.454101562 -21.251953125 211.263671875 -37.0009765625 c 2,46,47
 177.4765625 -44.6640625 177.4765625 -44.6640625 142.458007812 -64.9384765625 c 0,48,49
 124.317382812 -70.693359375 124.317382812 -70.693359375 119.154296875 -70.693359375 c 0,50,51
 112.436523438 -70.693359375 112.436523438 -70.693359375 106.095703125 -69.501953125 c 0,52,53
 86.9658203125 -65.955078125 86.9658203125 -65.955078125 77.0341796875 -54.734375 c 0,54,55
 70.3330078125 -46.9873046875 70.3330078125 -46.9873046875 70.3330078125 -38.5556640625 c 0,56,57
 70.3330078125 -30.392578125 70.3330078125 -30.392578125 72.013671875 -22.1962890625 c 0,58,59
 77.1142578125 2.671875 77.1142578125 2.671875 94.53125 16.0078125 c 0,60,61
 119.127929688 30.595703125 119.127929688 30.595703125 133 37.1943359375 c 1,62,63
 133 317.36328125 133 317.36328125 192.389648438 530.544921875 c 0,64,65
 192.885742188 528.826171875 192.885742188 528.826171875 193.58203125 526.625 c 1,0,1
EndSplineSet
EndChar

StartChar: two
Encoding: 50 50 21
AltUni2: 00ff12.ffffffff.0 002082.ffffffff.0 0000b2.ffffffff.0 00ff12.ffffffff.0 002082.ffffffff.0 0000b2.ffffffff.0
Width: 540
GlyphClass: 1
Flags: W
LayerCount: 2
UndoRedoHistory
Layer: 1
Undoes
EndUndoes
Redoes
RedoOperation
Index: 0
Type: 1
WasModified: 1
WasOrder2: 1
Layer: 2
Width: 600
VWidth: 1000
LBearingChange: 0
UnicodeEnc: 0
InstructionsLength: 0
SplineSet
94.4794921875 91.3095703125 m 128,-1,1
 97.7119140625 97.2109375 97.7119140625 97.2109375 101.974609375 103.763671875 c 1,2,3
 101.979492188 103.908203125 101.979492188 103.908203125 101.984375 105.110351562 c 2,4,5
 102.627929688 113.15625 102.627929688 113.15625 109.366210938 116.590820312 c 0,6,7
 123.631835938 139.212890625 123.631835938 139.212890625 125.6484375 141.93359375 c 0,8,9
 128.916992188 146.341796875 128.916992188 146.341796875 129.305664062 148.4609375 c 0,10,11
 131.27734375 159.19921875 131.27734375 159.19921875 139.41015625 162.39453125 c 1,12,13
 156.321344398 184.379882812 156.321344398 184.379882812 191.141856299 218.017578125 c 0,14,15
 225.22455421 256.809570312 225.22455421 256.809570312 259.361107157 289.083984375 c 0,16,17
 317.682879549 349.018554688 317.682879549 349.018554688 350.22747764 390.776367188 c 0,18,19
 388.209280138 441.374023438 388.209280138 441.374023438 403.087272308 484.928710938 c 0,20,21
 409.442166524 508.8984375 409.442166524 508.8984375 409.500329963 528.194335938 c 0,22,23
 408.567560744 557.21875 408.567560744 557.21875 381.207048393 571.756835938 c 0,24,25
 360.080794977 582.803710938 360.080794977 582.803710938 327.991810488 582.803710938 c 0,26,27
 313.811779581 582.803710938 313.811779581 582.803710938 298.816383433 581.026367188 c 0,28,29
 241.136563066 574.44140625 241.136563066 574.44140625 198.984226601 546.924804688 c 0,30,31
 158.500319143 518.19921875 158.500319143 518.19921875 153.287151685 479.474609375 c 0,32,33
 150.778584121 454.677734375 150.778584121 454.677734375 130.12109375 438.779296875 c 0,34,35
 113.446289062 425.821289062 113.446289062 425.821289062 92.2060546875 425.821289062 c 0,36,37
 60.1455078125 425.821289062 60.1455078125 425.821289062 41.306640625 449.55859375 c 0,38,39
 28.599609375 465.569335938 28.599609375 465.569335938 28.599609375 485.252929688 c 0,40,41
 28.599609375 489.66015625 28.599609375 489.66015625 29.267578125 494.114257812 c 0,42,43
 39.9091796875 581.080078125 39.9091796875 581.080078125 110.70703125 639.379882812 c 0,44,45
 177.088923276 691.056640625 177.088923276 691.056640625 278.29761482 700.763671875 c 0,46,47
 302.843663004 703.630859375 302.843663004 703.630859375 326.027178785 703.630859375 c 0,48,49
 402.233131442 703.630859375 402.233131442 703.630859375 462.97514914 673.765625 c 1,50,51
 539.403320312 626.837890625 539.403320312 626.837890625 542.979492188 530.723632812 c 2,52,53
 542.985351562 515.584960938 542.985351562 515.584960938 542.990234375 530.4453125 c 1,54,55
 542.991210938 514.009765625 542.991210938 514.009765625 542.9921875 527.57421875 c 2,56,57
 542.9921875 526.934570312 542.9921875 526.934570312 542.994140625 526.279296875 c 0,58,59
 542.583007812 489.051757812 542.583007812 489.051757812 534.168945312 456.494140625 c 0,60,61
 521.084960938 400.35546875 521.084960938 400.35546875 477.766601562 328.344726562 c 1,62,63
 477.501953125 312.935546875 477.501953125 312.935546875 477.237304688 327.526367188 c 1,64,65
 442.086934982 280.602539062 442.086934982 280.602539062 383.725309863 218.520507812 c 1,66,67
 383.722078561 203.407226562 383.722078561 203.407226562 383.717770158 218.29296875 c 1,68,69
 381.824227102 201.392578125 381.824227102 201.392578125 379.929606945 214.491210938 c 1,70,71
 366.223500352 184.971679688 366.223500352 184.971679688 352.516316658 185.451171875 c 1,72,73
 352.492620443 171.125976562 352.492620443 171.125976562 352.467847126 186.80078125 c 1,74,75
 295.983608553 137.017578125 295.983608553 137.017578125 270.838692371 110.065429688 c 1,76,77
 275.7050334 111.383789062 275.7050334 111.383789062 276.68519505 111.711914062 c 0,78,79
 329.800262588 129.487304688 329.800262588 129.487304688 365.574008621 137.895507812 c 0,80,81
 417.852168904 149.82421875 417.852168904 149.82421875 457.994635435 151.987304688 c 1,82,83
 462.808198529 155.83984375 462.808198529 155.83984375 469.745804231 155.83984375 c 0,84,85
 476.155273438 155.83984375 476.155273438 155.83984375 480.54296875 151.879882812 c 1,86,87
 487.611328125 151.166015625 487.611328125 151.166015625 494.813476562 149.50390625 c 0,88,89
 497.056640625 149.959960938 497.056640625 149.959960938 499.33203125 149.959960938 c 0,90,91
 511.55078125 149.959960938 511.55078125 149.959960938 519.41015625 139.114257812 c 0,92,93
 521.909179688 137.759765625 521.909179688 137.759765625 525.837890625 135.647460938 c 0,94,95
 526.256835938 135.654296875 526.256835938 135.654296875 526.665039062 135.654296875 c 0,96,97
 543.717773438 135.654296875 543.717773438 135.654296875 558.834960938 127.981445312 c 0,98,99
 581.977539062 116.234375 581.977539062 116.234375 587.393554688 94.4814453125 c 0,100,101
 590 83.615234375 590 83.615234375 590 77.6767578125 c 2,102,103
 590 78.6337890625 590 78.6337890625 590 76.8896484375 c 1,104,105
 590 77.919921875 590 77.919921875 590 76.03515625 c 1,106,107
 586.5625 53.103515625 586.5625 53.103515625 572.055664062 40.3359375 c 0,108,109
 557.28515625 25.8291015625 557.28515625 25.8291015625 534.234375 22.830078125 c 1,110,111
 533.083007812 16.34375 533.083007812 16.34375 531.931640625 -11.6728515625 c 1,112,113
 522.276367188 21.4375 522.276367188 21.4375 512.62109375 24.5478515625 c 1,114,115
 511.302734375 40.1806640625 511.302734375 40.1806640625 509.983398438 25.8134765625 c 1,116,117
 501.69140625 28.4443359375 501.69140625 28.4443359375 493.399414062 1.0751953125 c 1,118,119
 492.090820312 33.1376953125 492.090820312 33.1376953125 490.783203125 35.201171875 c 1,120,121
 478.881835938 41.5732421875 478.881835938 41.5732421875 457.756596177 54.6025390625 c 1,122,123
 437.71282898 51.703125 437.71282898 51.703125 415.651652144 45.662109375 c 128,-1,124
 393.590475308 39.62109375 393.590475308 39.62109375 340.227674606 20.9365234375 c 1,125,126
 314.864106979 26.40234375 314.864106979 26.40234375 289.500539352 1.8671875 c 2,127,128
 257.400783856 -9.91015625 257.400783856 -9.91015625 233.27372785 -14.978515625 c 0,129,130
 174.876558408 -25.9814453125 174.876558408 -25.9814453125 159.050717609 -25.9814453125 c 0,131,132
 134.387695312 -25.9814453125 134.387695312 -25.9814453125 112.74609375 -18.5263671875 c 0,133,134
 78.298828125 -7.99609375 78.298828125 -7.99609375 72.025390625 28.75390625 c 1,135,136
 72.0205078125 37.171875 72.0205078125 37.171875 72.0166015625 29.716796875 c 1,137,138
 71.91015625 40.705078125 71.91015625 40.705078125 71.8037109375 36.7177734375 c 2,139,140
 71.8037109375 54.349609375 71.8037109375 54.349609375 87.6337890625 79.6357421875 c 0,141,0
 91.2470703125 85.4091796875 91.2470703125 85.4091796875 94.4794921875 91.3095703125 c 128,-1,1
527.995117188 541.002929688 m 2,142,143
 522.396484375 520.454101562 522.396484375 520.454101562 516.798828125 529.904296875 c 1,144,145
 521.0390625 529.904296875 521.0390625 529.904296875 529.51953125 529.900390625 c 128,-1,146
 538.000976562 529.896484375 538.000976562 529.896484375 542.241210938 529.896484375 c 1,147,148
 541.998046875 515.9375 541.998046875 515.9375 541.755859375 531.978515625 c 1,149,150
 540.782226562 518.610351562 540.782226562 518.610351562 539.80859375 535.243164062 c 2,151,152
 537.102539062 537.918945312 537.102539062 537.918945312 535.498046875 538.776367188 c 0,153,154
 532.82421875 540.20703125 532.82421875 540.20703125 531.013671875 540.504882812 c 128,-1,155
 529.202148438 540.803710938 529.202148438 540.803710938 527.995117188 541.002929688 c 2,142,143
EndSplineSet
EndRedoOperation
EndRedoes
EndUndoRedoHistory
Fore
SplineSet
105.927734375 465.629882812 m 0,0,1
 93.306640625 455.821289062 93.306640625 455.821289062 77.2060546875 455.821289062 c 0,2,3
 52.3876953125 455.821289062 52.3876953125 455.821289062 38.0615234375 473.873046875 c 0,4,5
 28.599609375 485.794921875 28.599609375 485.794921875 28.599609375 500.252929688 c 0,6,7
 28.599609375 503.624023438 28.599609375 503.624023438 29.1298828125 507.065429688 c 0,8,9
 38.869140625 587.30859375 38.869140625 587.30859375 105.14453125 642.724609375 c 0,10,11
 165.479203629 691.653320312 165.479203629 691.653320312 252.955017393 700.865234375 c 0,12,13
 274.339955281 703.630859375 274.339955281 703.630859375 294.466176938 703.630859375 c 0,14,15
 359.751739187 703.630859375 359.751739187 703.630859375 411.116210938 675.776367188 c 0,16,17
 479.7109375 633.293945312 479.7109375 633.293945312 482.990234375 545.157226562 c 2,18,19
 482.995117188 536.98046875 482.995117188 536.98046875 483 544.896484375 c 1,20,21
 483 507.438476562 483 507.438476562 474.600585938 475.083007812 c 0,22,23
 462.076171875 421.166992188 462.076171875 421.166992188 419.903320312 351.060546875 c 1,24,25
 386.83123727 303.376953125 386.83123727 303.376953125 332.211116316 239.556640625 c 1,26,27
 332.078735993 243.6015625 332.078735993 243.6015625 331.946355671 239.254882812 c 2,28,29
 283.644085596 185.798828125 283.644085596 185.798828125 271.312858579 170.55859375 c 0,30,31
 241.569206512 136.255859375 241.569206512 136.255859375 224.187670202 110.875 c 0,32,33
 223.347055156 107.969726562 223.347055156 107.969726562 218.964163321 102.381835938 c 128,-1,34
 214.580168316 96.794921875 214.580168316 96.794921875 212.607701515 93.4423828125 c 128,-1,35
 210.635234713 90.08984375 210.635234713 90.08984375 205.877265298 82.4345703125 c 1,36,37
 212.366107427 84.9794921875 212.366107427 84.9794921875 214.434549961 85.681640625 c 128,-1,38
 216.502992496 86.3837890625 216.502992496 86.3837890625 235.420140544 94.421875 c 1,39,-1
 236.525516234 94.421875 l 2,40,41
 237.016426596 94.6201171875 237.016426596 94.6201171875 239.837230629 95.818359375 c 128,-1,42
 242.656931493 97.0166015625 242.656931493 97.0166015625 248.305158575 98.9365234375 c 128,-1,43
 253.953385657 100.856445312 253.953385657 100.856445312 255.584973128 101.549804688 c 0,44,45
 300.636203124 120.69140625 300.636203124 120.69140625 334.497986382 131.092773438 c 0,46,47
 386.597365367 146.186523438 386.597365367 146.186523438 424.538085938 147.211914062 c 2,48,49
 424.76953125 155.104492188 424.76953125 155.104492188 425 147.21875 c 2,50,51
 437.443359375 147.21875 437.443359375 147.21875 450.63671875 142.997070312 c 1,52,53
 456.970703125 147.778320312 456.970703125 147.778320312 463.305664062 136.168945312 c 2,54,55
 465.809570312 134.56640625 465.809570312 134.56640625 476.931640625 127.6953125 c 0,56,57
 480.501953125 127.923828125 480.501953125 127.923828125 481.665039062 127.923828125 c 0,58,59
 494.65625 127.923828125 494.65625 127.923828125 506.283203125 121.129882812 c 0,60,61
 523.5390625 111.046875 523.5390625 111.046875 527.708984375 92.45703125 c 0,62,63
 530 81.4599609375 530 81.4599609375 530 76.1826171875 c 2,64,65
 530 86.482421875 530 86.482421875 530 75.2763671875 c 1,66,67
 527.302734375 54.5654296875 527.302734375 54.5654296875 516.09375 43.4423828125 c 0,68,69
 502 27.2255859375 502 27.2255859375 478 27.2255859375 c 2,70,-1
 476.502929688 27.2255859375 l 1,71,72
 475.774414062 40.0556640625 475.774414062 40.0556640625 475.046875 27.5048828125 c 1,73,74
 467.546875 41.572265625 467.546875 41.572265625 460.046875 30.384765625 c 1,75,76
 459.069335938 43.134765625 459.069335938 43.134765625 458.091796875 30.7607421875 c 1,77,78
 445.390625 36.8564453125 445.390625 36.8564453125 419 54.1904296875 c 1,79,80
 419 66.212890625 419 66.212890625 419 55.0380859375 c 1,81,82
 418.698242188 66.8056640625 418.698242188 66.8056640625 418.397460938 55.4248046875 c 1,83,84
 395.76911536 52.388671875 395.76911536 52.388671875 373.288730305 45.5986328125 c 128,-1,85
 350.808345251 38.8095703125 350.808345251 38.8095703125 301.773570726 19.869140625 c 0,86,87
 301.695245702 19.8408203125 301.695245702 19.8408203125 255.730591483 0.7783203125 c 0,88,89
 230.995328273 -9.2314453125 230.995328273 -9.2314453125 207.306972778 -15.2919921875 c 0,90,91
 155.869495404 -25.9814453125 155.869495404 -25.9814453125 143.075195312 -25.9814453125 c 0,92,93
 142.606445312 -25.9814453125 142.606445312 -25.9814453125 142.190429688 -25.9658203125 c 0,94,95
 121.862304688 -25.9658203125 121.862304688 -25.9658203125 103.94140625 -19.666015625 c 0,96,97
 86.021484375 -13.619140625 86.021484375 -13.619140625 78.099609375 1.3447265625 c 0,98,99
 74.16796875 6.74609375 74.16796875 6.74609375 72.0166015625 20.947265625 c 0,100,101
 72 23.21484375 72 23.21484375 71.8330078125 27.2841796875 c 0,102,103
 71.1669921875 43.5576171875 71.1669921875 43.5576171875 85.755859375 69.8173828125 c 0,104,105
 89.5673828125 76.6796875 89.5673828125 76.6796875 93.1142578125 83.9755859375 c 128,-1,106
 96.66015625 91.2705078125 96.66015625 91.2705078125 101.966796875 100.185546875 c 1,107,108
 101.983398438 110.405273438 101.983398438 110.405273438 102 101.45703125 c 1,109,110
 104.534179688 106.389648438 104.534179688 106.389648438 123.140625 139.138671875 c 0,111,112
 126.64453125 144.184570312 126.64453125 144.184570312 129 149.837890625 c 1,113,114
 129 158.279296875 129 158.279296875 129 151.538085938 c 1,115,116
 130.422851562 160.270507812 130.422851562 160.270507812 131.845703125 153.985351562 c 1,117,118
 147.3515625 179.793945312 147.3515625 179.793945312 183.806156074 223.553710938 c 1,119,120
 214.434549961 262.013671875 214.434549961 262.013671875 245.064047019 293.930664062 c 2,121,122
 298.699037742 354.706054688 298.699037742 354.706054688 328.741648704 397.2421875 c 0,123,124
 364.680699852 450.020507812 364.680699852 450.020507812 378.806783404 495.950195312 c 0,125,126
 385.124634283 522.043945312 385.124634283 522.043945312 385.147800839 543.392578125 c 0,127,128
 384.148329406 580.962890625 384.148329406 580.962890625 351.9512287 599.7734375 c 0,129,130
 328.893886074 612.799804688 328.893886074 612.799804688 295.207506743 612.799804688 c 0,131,132
 282.377647179 612.799804688 282.377647179 612.799804688 267.905168451 610.908203125 c 0,133,134
 211.675523412 603.828125 211.675523412 603.828125 170.285712496 573.9296875 c 0,135,136
 128.340820312 541.215820312 128.340820312 541.215820312 122.930664062 496.059570312 c 0,137,138
 121.322265625 477.594726562 121.322265625 477.594726562 105.927734375 465.629882812 c 0,0,1
EndSplineSet
EndChar

StartChar: three
Encoding: 51 51 22
AltUni2: 00ff13.ffffffff.0 002083.ffffffff.0 0000b3.ffffffff.0 00ff13.ffffffff.0 002083.ffffffff.0 0000b3.ffffffff.0
Width: 532
GlyphClass: 1
Flags: W
LayerCount: 2
UndoRedoHistory
Layer: 1
Undoes
EndUndoes
Redoes
RedoOperation
Index: 0
Type: 1
WasModified: 1
WasOrder2: 1
Layer: 2
Width: 592
VWidth: 1000
LBearingChange: 0
UnicodeEnc: 0
InstructionsLength: 0
SplineSet
458.003256139 615.30859375 m 1,0,1
 492.802734375 562.166992188 492.802734375 562.166992188 492.802734375 504.444335938 c 0,2,3
 492.802734375 453.741210938 492.802734375 453.741210938 468.264648438 405.890625 c 1,4,5
 482.155273438 399.64453125 482.155273438 399.64453125 494.732421875 391.032226562 c 0,6,7
 536.189453125 364.7265625 536.189453125 364.7265625 558.619140625 321.725585938 c 128,-1,8
 581.048828125 278.724609375 581.048828125 278.724609375 581.048828125 232.618164062 c 0,9,10
 581.048828125 137.256835938 581.048828125 137.256835938 485.807617188 73.0673828125 c 0,11,12
 485.801757812 72.5654296875 485.801757812 72.5654296875 485.801757812 72.4658203125 c 2,13,14
 482.567382812 76.08984375 482.567382812 76.08984375 479.33203125 68.8125 c 1,15,16
 467.8125 67.9208984375 467.8125 67.9208984375 455.783675277 53.994140625 c 1,17,18
 455.769620454 62.6103515625 455.769620454 62.6103515625 455.754484491 56.802734375 c 1,19,20
 331.465524213 3 331.465524213 3 129 3 c 0,21,22
 103.58203125 3 103.58203125 3 85.291015625 21.291015625 c 128,-1,23
 67 39.58203125 67 39.58203125 67 65.5 c 128,-1,24
 67 91.41796875 67 91.41796875 85.291015625 109.708984375 c 128,-1,25
 103.58203125 128 103.58203125 128 129 128 c 0,26,27
 310.745471989 128 310.745471989 128 395.125222364 167.4921875 c 0,28,29
 455.459333212 195.458984375 455.459333212 195.458984375 455.459333212 231.567382812 c 0,30,31
 455.461495493 235.020507812 455.461495493 235.020507812 455.463657773 235.436523438 c 2,32,33
 455.473388035 220.784179688 455.473388035 220.784179688 455.483118297 236.131835938 c 2,34,35
 455.502578821 236.484375 455.502578821 236.484375 455.539337588 236.834960938 c 2,36,37
 455.531769607 222.48828125 455.531769607 222.48828125 455.525282766 238.140625 c 2,38,39
 454.654964892 273.202148438 454.654964892 273.202148438 419.142752244 292.482421875 c 0,40,41
 395.086301316 305.022460938 395.086301316 305.022460938 364.750588018 305.022460938 c 0,42,43
 344.617594931 305.022460938 344.617594931 305.022460938 321.189286468 299.663085938 c 0,44,45
 318.819427116 299.03125 318.819427116 299.03125 302.983966384 293.700195312 c 128,-1,46
 287.148505653 288.370117188 287.148505653 288.370117188 264.412126927 288.370117188 c 0,47,48
 215.730545318 288.370117188 215.730545318 288.370117188 196.55003676 324.948242188 c 0,49,50
 190.650254606 336.5625 190.650254606 336.5625 190.650254606 348.681640625 c 128,-1,51
 190.650254606 360.80078125 190.650254606 360.80078125 196.746804279 372.340820312 c 0,52,53
 209.295598757 396.08984375 209.295598757 396.08984375 237.022520716 404.197265625 c 0,54,55
 257.096051091 410.067382812 257.096051091 410.067382812 265.557054415 412.766601562 c 0,56,57
 324.857595218 435.872070312 324.857595218 435.872070312 342.633702636 477.615234375 c 0,58,59
 347.408017826 491.407226562 347.408017826 491.407226562 347.408017826 504.046875 c 0,60,61
 347.408017826 528.203125 347.408017826 528.203125 329.531364368 550.228515625 c 0,62,63
 306.451183054 577.564453125 306.451183054 577.564453125 269.589707418 577.564453125 c 0,64,65
 268.115032164 577.564453125 268.115032164 577.564453125 266.58521876 577.524414062 c 0,66,67
 206.923577125 573.387695312 206.923577125 573.387695312 142.82421875 504.205078125 c 0,68,69
 128.65625 485.590820312 128.65625 485.590820312 103.177734375 481.2578125 c 0,70,71
 97.28515625 480.256835938 97.28515625 480.256835938 91.560546875 480.256835938 c 0,72,73
 71.302734375 480.256835938 71.302734375 480.256835938 53.9208984375 493.498046875 c 128,-1,74
 36.5390625 506.739257812 36.5390625 506.739257812 31.990234375 530.995117188 c 0,75,76
 30.904296875 536.787109375 30.904296875 536.787109375 30.904296875 542.428710938 c 0,77,78
 30.904296875 562.079101562 30.904296875 562.079101562 43.4599609375 577.3046875 c 0,79,80
 133.756835938 691.44140625 133.756835938 691.44140625 257.562022524 696.958007812 c 0,81,82
 270.321639343 697.43359375 270.321639343 697.43359375 274.684040112 697.43359375 c 0,83,84
 389.471940179 697.43359375 389.471940179 697.43359375 457.330786925 616.17578125 c 1,85,86
 457.667021532 600.7421875 457.667021532 600.7421875 458.003256139 615.30859375 c 1,0,1
EndSplineSet
EndRedoOperation
EndRedoes
EndUndoRedoHistory
Fore
SplineSet
85.650390625 511.045898438 m 0,0,1
 81.0078125 510.256835938 81.0078125 510.256835938 76.560546875 510.256835938 c 0,2,3
 61.361328125 510.256835938 61.361328125 510.256835938 48.291015625 520.212890625 c 128,-1,4
 35.2216796875 530.169921875 35.2216796875 530.169921875 31.7333984375 548.772460938 c 0,5,6
 30.904296875 553.193359375 30.904296875 553.193359375 30.904296875 557.428710938 c 0,7,8
 30.904296875 571.771484375 30.904296875 571.771484375 40.1279296875 582.880859375 c 0,9,10
 126.225585938 691.787109375 126.225585938 691.787109375 232.873602034 696.970703125 c 0,11,12
 244.085431726 697.43359375 244.085431726 697.43359375 247.710634379 697.43359375 c 0,13,14
 343.923313046 697.43359375 343.923313046 697.43359375 400.708167821 622.155273438 c 0,15,16
 432.802734375 572.725585938 432.802734375 572.725585938 432.802734375 519.444335938 c 0,17,18
 432.802734375 490.565429688 432.802734375 490.565429688 423.981445312 462.500976562 c 128,-1,19
 415.16015625 434.436523438 415.16015625 434.436523438 401.603515625 413.219726562 c 1,20,21
 423.060546875 406.163085938 423.060546875 406.163085938 441.489257812 393.499023438 c 0,22,23
 479.689453125 369.337890625 479.689453125 369.337890625 500.369140625 329.692382812 c 128,-1,24
 521.048828125 290.045898438 521.048828125 290.045898438 521.048828125 247.618164062 c 0,25,26
 521.048828125 144.016601562 521.048828125 144.016601562 426.053710938 74.935546875 c 2,27,28
 425.9609375 86.271484375 425.9609375 86.271484375 425.868164062 74.802734375 c 2,29,30
 313.403700631 3 313.403700631 3 114 3 c 0,31,32
 94.791015625 3 94.791015625 3 80.8955078125 16.8955078125 c 128,-1,33
 67 30.791015625 67 30.791015625 67 50.5 c 128,-1,34
 67 70.208984375 67 70.208984375 80.8955078125 84.1044921875 c 128,-1,35
 94.791015625 98 94.791015625 98 114 98 c 0,36,37
 281.237378471 98 281.237378471 98 364.6902759 151.364257812 c 0,38,39
 426 192.278320312 426 192.278320312 426 246.559570312 c 2,40,41
 426.00390625 253.9921875 426.00390625 253.9921875 426.008789062 247.05078125 c 2,42,43
 426.08203125 249.104492188 426.08203125 249.104492188 426.08203125 251.1015625 c 0,44,45
 426.08203125 296.260742188 426.08203125 296.260742188 385.793460488 320.416992188 c 0,46,47
 360.555747255 335.022460938 360.555747255 335.022460938 329.06519749 335.022460938 c 0,48,49
 308.881906688 335.022460938 308.881906688 335.022460938 285.762501341 329.137695312 c 0,50,51
 279.819255119 327.416992188 279.819255119 327.416992188 269.527319213 323.103515625 c 0,52,53
 256.34365447 318.368164062 256.34365447 318.368164062 238.41737689 318.370117188 c 0,54,55
 204.369100736 318.370117188 204.369100736 318.370117188 190.775977841 346.19140625 c 0,56,57
 186.805676314 354.84375 186.805676314 354.84375 186.805676314 363.573242188 c 128,-1,58
 186.805676314 372.401367188 186.805676314 372.401367188 190.8580914 380.893554688 c 0,59,60
 199.405669004 398.802734375 199.405669004 398.802734375 218.310651433 404.922851562 c 128,-1,61
 237.215633862 411.04296875 237.215633862 411.04296875 244.933198738 413.787109375 c 0,62,63
 304.973745151 439.533203125 304.973745151 439.533203125 323.265095175 487.685546875 c 0,64,65
 328.400521522 503.89453125 328.400521522 503.89453125 328.400521522 519.046875 c 0,66,67
 328.400521522 548.171875 328.400521522 548.171875 309.273610556 574.19921875 c 0,68,69
 283.892753417 607.564453125 283.892753417 607.564453125 243.108946163 607.564453125 c 0,70,71
 241.374574646 607.564453125 241.374574646 607.564453125 239.592488493 607.506835938 c 0,72,73
 179.174663567 603.080078125 179.174663567 603.080078125 116.1015625 528.569335938 c 0,74,75
 105.52734375 514.42578125 105.52734375 514.42578125 85.650390625 511.045898438 c 0,0,1
EndSplineSet
EndChar

StartChar: four
Encoding: 52 52 23
AltUni2: 00ff14.ffffffff.0 002084.ffffffff.0 002074.ffffffff.0 00ff14.ffffffff.0 002084.ffffffff.0 002074.ffffffff.0
Width: 574
GlyphClass: 1
Flags: W
LayerCount: 2
UndoRedoHistory
Layer: 1
Undoes
UndoOperation
Index: 0
Type: 1
WasModified: 1
WasOrder2: 1
Layer: 2
Width: 514
VWidth: 1000
LBearingChange: 0
UnicodeEnc: 0
InstructionsLength: 0
SplineSet
149 697 m 0,0,1
 148 686 148 686 141 615 c 0,2,3
 141 610 141 610 140 602 c 128,-1,4
 139 594 139 594 138 588 c 2,5,-1
 137 582 l 2,6,7
 137 580 137 580 136.5 575 c 128,-1,8
 136 570 136 570 136 567 c 0,9,10
 135 554 135 554 132 494 c 0,11,12
 128 386 128 386 149 328 c 0,13,14
 165 283 165 283 197 268 c 0,15,16
 226 254 226 254 274 260 c 0,17,18
 278 261 278 261 284.5 262 c 128,-1,19
 291 263 291 263 296.5 264 c 128,-1,20
 302 265 302 265 307 266 c 0,21,22
 308 270 308 270 308.5 279.5 c 128,-1,23
 309 289 309 289 309 294 c 0,24,25
 314 381 314 381 315 400 c 0,26,27
 318 448 318 448 316 482 c 0,28,29
 316 496 316 496 325.5 505.5 c 128,-1,30
 335 515 335 515 348 516 c 0,31,32
 362 517 362 517 371.5 507.5 c 128,-1,33
 381 498 381 498 381 485 c 0,34,35
 383 447 383 447 380 397 c 0,36,37
 379 375 379 375 374 290 c 0,38,39
 374 289 374 289 373.5 286.5 c 128,-1,40
 373 284 373 284 373 283 c 1,41,42
 374 283 374 283 376.5 283.5 c 128,-1,43
 379 284 379 284 380 284 c 0,44,45
 386 287 386 287 393 288 c 0,46,47
 442 303 442 303 463 307 c 0,48,49
 476 311 476 311 487.5 304 c 128,-1,50
 499 297 499 297 502 284 c 0,51,52
 506 271 506 271 499 259.5 c 128,-1,53
 492 248 492 248 478 244 c 0,54,55
 467 242 467 242 411 226 c 0,56,57
 408 225 408 225 403.5 223.5 c 128,-1,58
 399 222 399 222 398 222 c 0,59,60
 396 221 396 221 385 218 c 128,-1,61
 374 215 374 215 369 214 c 1,62,63
 362 77 362 77 371 22 c 0,64,65
 374 9 374 9 366.5 -2.5 c 128,-1,66
 359 -14 359 -14 346 -16 c 0,67,68
 332 -18 332 -18 321 -10.5 c 128,-1,69
 310 -3 310 -3 308 10 c 0,70,71
 301 42 301 42 301 120 c 0,72,73
 301 139 301 139 303 199 c 1,74,-1
 282 196 l 2,75,76
 216 187 216 187 169 209 c 0,77,78
 113 236 113 236 88 306 c 128,-1,79
 63 376 63 376 67 497 c 0,80,81
 70 554 70 554 71 572 c 0,82,83
 71 578 71 578 73 590 c 0,84,85
 73 602 73 602 77 622 c 0,86,87
 78 627 78 627 80.5 654.5 c 128,-1,88
 83 682 83 682 85 703 c 0,89,90
 86 716 86 716 96 725 c 128,-1,91
 106 734 106 734 120 732 c 0,92,93
 133 731 133 731 142 721 c 128,-1,94
 151 711 151 711 149 697 c 0,0,1
EndSplineSet
EndUndoOperation
EndUndoes
Redoes
EndRedoes
EndUndoRedoHistory
Fore
SplineSet
439.520304594 396.19921875 m 0,0,1
 438.467754084 375.806640625 438.467754084 375.806640625 433.624031623 302.701171875 c 1,2,3
 502.6953125 323.45703125 502.6953125 323.45703125 517.067382812 323.45703125 c 0,4,5
 517.166015625 323.45703125 517.166015625 323.45703125 517.255859375 323.454101562 c 0,6,7
 529.387695312 323.454101562 529.387695312 323.454101562 540.283203125 316.822265625 c 0,8,9
 556.93359375 306.6875 556.93359375 306.6875 561.493164062 287.905273438 c 0,10,11
 563.454101562 281.28515625 563.454101562 281.28515625 563.454101562 274.744140625 c 0,12,13
 563.454101562 263.169921875 563.454101562 263.169921875 556.822265625 252.774414062 c 0,14,15
 546.759765625 237.057617188 546.759765625 237.057617188 526.418945312 231.53125 c 1,16,17
 515.45703125 229.63671875 515.45703125 229.63671875 460.43359375 214.693359375 c 0,18,19
 450.271484375 211.47265625 450.271484375 211.47265625 448.822265625 211.1015625 c 128,-1,20
 447.374023438 210.729492188 447.374023438 210.729492188 446.155273438 210.267578125 c 0,21,22
 443.943359375 209.4296875 443.943359375 209.4296875 426.444133502 205.548828125 c 1,23,24
 423.622590539 155.586914062 423.622590539 155.586914062 423.622590539 110.466796875 c 128,-1,25
 423.622590539 65.34765625 423.622590539 65.34765625 429.052291751 37.0908203125 c 0,26,27
 430.324860697 32.228515625 430.324860697 32.228515625 430.324860697 27.4228515625 c 0,28,29
 430.324860697 14.6474609375 430.324860697 14.6474609375 421.511961418 3.2998046875 c 0,30,31
 406.196909252 -16.4208984375 406.196909252 -16.4208984375 377.544759608 -16.4208984375 c 0,32,33
 360.360103543 -16.4208984375 360.360103543 -16.4208984375 346.213692017 -7.90234375 c 0,34,35
 327.917887567 2.6796875 327.917887567 2.6796875 324.351156533 21.017578125 c 0,36,37
 316.138609068 53.4716796875 316.138609068 53.4716796875 316.138609068 129.345703125 c 0,38,39
 316.138609068 145.026367188 316.138609068 145.026367188 317.755025922 188.529296875 c 1,40,41
 292.11790279 185.421875 292.11790279 185.421875 270.03645449 185.421875 c 0,42,43
 217.049602408 185.421875 217.049602408 185.421875 177.499023438 201.838867188 c 0,44,45
 115.940429688 230.344726562 115.940429688 230.344726562 88.869140625 303.145507812 c 0,46,47
 66.4482421875 363.439453125 66.4482421875 363.439453125 66.4482421875 460.301757812 c 0,48,49
 66.4453125 475.641601562 66.4453125 475.641601562 67.0048828125 491.912109375 c 2,50,51
 69.00390625 521.1015625 69.00390625 521.1015625 71.001953125 563.87890625 c 2,52,53
 71.0517578125 570.489257812 71.0517578125 570.489257812 73.0087890625 581.9921875 c 0,54,55
 73.1875 594.61328125 73.1875 594.61328125 77.291015625 614.318359375 c 0,56,57
 78.0478515625 617.950195312 78.0478515625 617.950195312 81.5322265625 654.038085938 c 128,-1,58
 85.0166015625 690.125976562 85.0166015625 690.125976562 85.0546875 690.51953125 c 0,59,60
 86.55859375 708.658203125 86.55859375 708.658203125 99.994140625 720.271484375 c 0,61,62
 113.4296875 732.36328125 113.4296875 732.36328125 130.041015625 732.36328125 c 0,63,64
 153.44921875 732.36328125 153.44921875 732.36328125 168.151367188 716.544921875 c 0,65,66
 179.36328125 704.48046875 179.36328125 704.48046875 179.36328125 688.395507812 c 0,67,68
 179.36328125 686.486328125 179.36328125 686.486328125 170.99609375 603.428710938 c 0,69,70
 170.885742188 593.592773438 170.885742188 593.592773438 166.978515625 570.890625 c 0,71,72
 166.90625 568.657226562 166.90625 568.657226562 166.456054688 563.759765625 c 0,73,74
 165.376953125 552.045898438 165.376953125 552.045898438 161.986328125 486.374023438 c 0,75,76
 161.36328125 462.521484375 161.36328125 462.521484375 161.360351562 454.788085938 c 0,77,78
 161.360351562 376.000976562 161.360351562 376.000976562 178.137695312 331.127929688 c 0,79,80
 192.688365084 293.483398438 192.688365084 293.483398438 222.744652488 281.25390625 c 0,81,82
 242.247794287 273.200195312 242.247794287 273.200195312 271.882840364 273.200195312 c 0,83,84
 284.765527906 273.200195312 284.765527906 273.200195312 299.483545118 274.780273438 c 0,85,86
 304.447780191 275.8203125 304.447780191 275.8203125 311.5834535 276.790039062 c 128,-1,87
 318.719126809 277.759765625 318.719126809 277.759765625 324.546851323 278.689453125 c 1,88,89
 325.195850429 287.583984375 325.195850429 287.583984375 325.195850429 294 c 2,90,-1
 325.223490936 294.859375 l 1,91,-1
 332.021950059 400.948242188 l 2,92,93
 334.026439633 429.275390625 334.026439633 429.275390625 334.026439633 448.614257812 c 128,-1,94
 334.026439633 467.952148438 334.026439633 467.952148438 333.120936621 481.552734375 c 0,95,96
 333.120936621 502.208984375 333.120936621 502.208984375 348.587458765 515.870117188 c 0,97,98
 365.824078984 531.095703125 365.824078984 531.095703125 388.030462376 531.095703125 c 128,-1,99
 410.236845768 531.095703125 410.236845768 531.095703125 425.355097523 517.741210938 c 128,-1,100
 440.474454899 504.38671875 440.474454899 504.38671875 440.67346655 485.436523438 c 0,101,102
 442.948833093 446.749023438 442.948833093 446.749023438 439.520304594 396.19921875 c 0,0,1
EndSplineSet
EndChar

StartChar: five
Encoding: 53 53 24
AltUni2: 00ff15.ffffffff.0 002085.ffffffff.0 002075.ffffffff.0 00ff15.ffffffff.0 002085.ffffffff.0 002075.ffffffff.0
Width: 509
GlyphClass: 1
Flags: W
LayerCount: 2
UndoRedoHistory
Layer: 1
Undoes
UndoOperation
Index: 0
Type: 1
WasModified: 1
WasOrder2: 1
Layer: 2
Width: 449
VWidth: 1000
LBearingChange: 0
UnicodeEnc: 0
InstructionsLength: 0
SplineSet
157 669 m 0,0,1
 220 678 220 678 398 720 c 0,2,3
 411 723 411 723 422.5 716 c 128,-1,4
 434 709 434 709 437 695 c 0,5,6
 440 682 440 682 433 670.5 c 128,-1,7
 426 659 426 659 413 656 c 0,8,9
 235 616 235 616 181 607 c 1,10,11
 138 519 138 519 125 472 c 0,12,13
 114 431 114 431 120 416 c 0,14,15
 122 412 122 412 134 409 c 0,16,17
 147 407 147 407 189 408 c 0,18,19
 196 408 196 408 205 408.5 c 128,-1,20
 214 409 214 409 217 409 c 0,21,22
 244 409 244 409 265 406 c 0,23,24
 293 402 293 402 315 390 c 0,25,26
 367 361 367 361 379 288 c 0,27,28
 391 218 391 218 356 145 c 0,29,30
 324 80 324 80 269 38 c 0,31,32
 209 -7 209 -7 151 1 c 0,33,34
 82 9 82 9 52 85 c 0,35,36
 47 98 47 98 52 110.5 c 128,-1,37
 57 123 57 123 70 127 c 0,38,39
 82 132 82 132 94.5 127 c 128,-1,40
 107 122 107 122 112 109 c 0,41,42
 127 70 127 70 159 65 c 0,43,44
 190 62 190 62 230 91 c 0,45,46
 273 122 273 122 297 173 c 0,47,48
 323 226 323 226 315 278 c 0,49,50
 308 320 308 320 283 333 c 0,51,52
 264 344 264 344 218 344 c 0,53,54
 215 344 215 344 206.5 343.5 c 128,-1,55
 198 343 198 343 191 343 c 0,56,57
 173 342 173 342 156 342 c 0,58,59
 137 342 137 342 122 345 c 0,60,61
 76 354 76 354 60 391 c 0,62,63
 45 426 45 426 61.5 486 c 128,-1,64
 78 546 78 546 128 646 c 0,65,66
 130 650 130 650 133 654 c 0,67,68
 141 668 141 668 157 669 c 0,0,1
EndSplineSet
EndUndoOperation
EndUndoes
Redoes
EndRedoes
EndUndoRedoHistory
Fore
SplineSet
209.376965837 422.99609375 m 2,0,-1
 209.801334508 422.99609375 l 1,1,-1
 242.509663964 424 l 1,2,3
 275.308114724 424 275.308114724 424 306.102222053 420.362304688 c 128,-1,4
 336.896329382 416.725585938 336.896329382 416.725585938 365.504709897 403.823242188 c 0,5,6
 425.62890625 372.399414062 425.62890625 372.399414062 438.784179688 295.10546875 c 0,7,8
 442.063476562 276.626953125 442.063476562 276.626953125 442.063476562 257.931640625 c 0,9,10
 442.063476562 203.73828125 442.063476562 203.73828125 414.465820312 148.143554688 c 0,11,12
 380.907226562 82.3046875 380.907226562 82.3046875 313.752265906 39.5859375 c 0,13,14
 249.581334385 -0.2080078125 249.581334385 -0.2080078125 185.918048184 -0.2080078125 c 0,15,16
 90.4267578125 -0.2080078125 90.4267578125 -0.2080078125 52.994140625 90.490234375 c 0,17,18
 49.5 99.1787109375 49.5 99.1787109375 49.5 107.947265625 c 128,-1,19
 49.5 116.813476562 49.5 116.813476562 53.06640625 125.341796875 c 0,20,21
 60.57421875 143.29296875 60.57421875 143.29296875 79.8974609375 149.30859375 c 0,22,23
 97.24609375 155.9453125 97.24609375 155.9453125 115.44921875 148.981445312 c 128,-1,24
 133.65234375 142.016601562 133.65234375 142.016601562 141.005859375 123.73046875 c 0,25,26
 152.794921875 94.4140625 152.794921875 94.4140625 176.972082796 90.7451171875 c 0,27,28
 179.270746435 90.58203125 179.270746435 90.58203125 181.63899741 90.58203125 c 0,29,30
 209.670145268 90.58203125 209.670145268 90.58203125 247.46405413 113.016601562 c 0,31,32
 293.152132908 139.984375 293.152132908 139.984375 320.220465823 186.103515625 c 0,33,34
 341.665913836 221.893554688 341.665913836 221.893554688 341.665913836 256.765625 c 0,35,36
 341.665913836 267.368164062 341.665913836 267.368164062 339.687808253 277.938476562 c 0,37,38
 332.935555112 310.98046875 332.935555112 310.98046875 311.541442019 320.088867188 c 0,39,40
 291.720459028 329 291.720459028 329 243.677818588 329 c 0,41,42
 240.695830125 329 240.695830125 329 230.915957482 328.5078125 c 128,-1,43
 221.134944063 328.014648438 221.134944063 328.014648438 212.638444419 328 c 0,44,45
 158.635742188 325.427734375 158.635742188 325.427734375 134.107421875 330.231445312 c 0,46,47
 80.3662109375 340.357421875 80.3662109375 340.357421875 61.2060546875 383.02734375 c 0,48,49
 52.857421875 401.787109375 52.857421875 401.787109375 52.857421875 426.837890625 c 128,-1,50
 52.857421875 451.888671875 52.857421875 451.888671875 62.03515625 484.028320312 c 0,51,52
 78.921875 543.163085938 78.921875 543.163085938 129.575195312 640.723632812 c 0,53,54
 131.995117188 645.384765625 131.995117188 645.384765625 135.45703125 649.940429688 c 0,55,56
 147.369140625 669.102539062 147.369140625 669.102539062 170.542669263 670.798828125 c 0,57,58
 243.647017636 679.477539062 243.647017636 679.477539062 439.618164062 719.616210938 c 0,59,60
 445.1796875 720.900390625 445.1796875 720.900390625 450.665039062 720.900390625 c 0,61,62
 463.65625 720.900390625 463.65625 720.900390625 475.283203125 713.822265625 c 0,63,64
 492.26171875 703.994140625 492.26171875 703.994140625 496.642578125 684.766601562 c 0,65,66
 497.907226562 680.100585938 497.907226562 680.100585938 497.907226562 677.419921875 c 128,-1,67
 497.907226562 674.739257812 497.907226562 674.739257812 497.900390625 674.370117188 c 0,68,69
 497.900390625 662.016601562 497.900390625 662.016601562 490.822265625 650.958984375 c 0,70,71
 480.526367188 634.874023438 480.526367188 634.874023438 461.297851562 630.654296875 c 0,72,73
 280.27391265 594.97265625 280.27391265 594.97265625 212.285944635 585.158203125 c 1,74,75
 147.8828125 470.706054688 147.8828125 470.706054688 147.8828125 429.4921875 c 0,76,77
 147.8828125 426.946289062 147.8828125 426.946289062 148.189453125 424.7890625 c 0,78,79
 149.928710938 424.202148438 149.928710938 424.202148438 151.950195312 423.6953125 c 0,80,81
 169.094726562 422.213867188 169.094726562 422.213867188 209.376965837 422.99609375 c 2,0,-1
EndSplineSet
EndChar

StartChar: six
Encoding: 54 54 25
AltUni2: 00ff16.ffffffff.0 002086.ffffffff.0 002076.ffffffff.0 00ff16.ffffffff.0 002086.ffffffff.0 002076.ffffffff.0
Width: 502
GlyphClass: 1
Flags: W
LayerCount: 2
UndoRedoHistory
Layer: 1
Undoes
UndoOperation
Index: 0
Type: 1
WasModified: 1
WasOrder2: 1
Layer: 2
Width: 442
VWidth: 1000
LBearingChange: 0
UnicodeEnc: 0
InstructionsLength: 0
SplineSet
114 257 m 1,0,1
 98 173 98 173 116 123 c 0,2,3
 142 51 142 51 241 44 c 0,4,5
 307 40 307 40 341 89 c 0,6,7
 373 137 373 137 365 207 c 128,-1,8
 357 277 357 277 316 313 c 0,9,10
 274 349 274 349 210 324 c 0,11,12
 188 315 188 315 168 300.5 c 128,-1,13
 148 286 148 286 143 275 c 0,14,15
 135 257 135 257 114 257 c 1,0,1
320 668 m 0,16,17
 275 624 275 624 220 526 c 0,18,19
 175 446 175 446 144 363 c 1,20,21
 158 372 158 372 186 385 c 0,22,23
 287 423 287 423 358 362 c 0,24,25
 419 310 419 310 429 215 c 0,26,27
 440 121 440 121 395 53 c 0,28,29
 342 -27 342 -27 237 -21 c 0,30,31
 94 -10 94 -10 55 102 c 0,32,33
 25 188 25 188 64 328 c 0,34,35
 94 433 94 433 163 558 c 0,36,37
 228 669 228 669 275 715 c 0,38,39
 284 724 284 724 297.5 724 c 128,-1,40
 311 724 311 724 321 714 c 0,41,42
 330 704 330 704 330 691 c 128,-1,43
 330 678 330 678 320 668 c 0,16,17
EndSplineSet
EndUndoOperation
EndUndoes
Redoes
EndRedoes
EndUndoRedoHistory
Fore
SplineSet
347.753731071 301.725585938 m 0,0,1
 323.891451416 319.24609375 323.891451416 319.24609375 292.480934526 319.24609375 c 0,2,3
 269.53639101 319.24609375 269.53639101 319.24609375 243.953783613 310.5 c 128,-1,4
 218.37231626 301.75390625 218.37231626 301.75390625 197.788805718 288.971679688 c 128,-1,5
 177.20643522 276.188476562 177.20643522 276.188476562 173.288100923 268.805664062 c 0,6,7
 162.969554597 248.91796875 162.969554597 248.91796875 141.830078125 243.568359375 c 1,8,9
 136.581054688 199.786132812 136.581054688 199.786132812 136.470703125 185.470703125 c 0,10,11
 136.470703125 152.096679688 136.470703125 152.096679688 145.118164062 128.075195312 c 0,12,13
 168.763262743 65.2998046875 168.763262743 65.2998046875 272.905223669 58.9677734375 c 0,14,15
 278.139169773 58.6982421875 278.139169773 58.6982421875 283.161067526 58.6982421875 c 0,16,17
 342.546006 58.6982421875 342.546006 58.6982421875 373.587890625 97.421875 c 0,18,19
 396.599609375 132.01953125 396.599609375 132.01953125 396.599609375 179.879882812 c 0,20,21
 396.599609375 192.134765625 396.599609375 192.134765625 395.09765625 205.28125 c 0,22,23
 387.751953125 269.551757812 387.751953125 269.551757812 347.753731071 301.725585938 c 0,0,1
201.377667041 396.879882812 m 0,24,25
 249.599285923 411.807617188 249.599285923 411.807617188 292.891350687 411.807617188 c 0,26,27
 363.742860694 411.807617188 363.742860694 411.807617188 412.72265625 372.264648438 c 0,28,29
 478.263671875 318.598632812 478.263671875 318.598632812 488.908203125 221.703125 c 0,30,31
 491.161132812 203.171875 491.161132812 203.171875 491.161132812 185.588867188 c 0,32,33
 491.161132812 112.641601562 491.161132812 112.641601562 452.513671875 56.5458984375 c 0,34,35
 394.713867188 -27.2099609375 394.713867188 -27.2099609375 266.061534177 -20.9755859375 c 1,36,37
 265.888247353 -5.9658203125 265.888247353 -5.9658203125 265.714960529 -20.955078125 c 1,38,39
 98.0595703125 -9.666015625 98.0595703125 -9.666015625 55.8330078125 106.823242188 c 0,40,41
 41.9560546875 145.034179688 41.9560546875 145.034179688 41.9560546875 193.208007812 c 0,42,43
 41.9560546875 254.627929688 41.9560546875 254.627929688 64.5751953125 332.624023438 c 0,44,45
 95.0390625 435.048828125 95.0390625 435.048828125 165.344268109 556.55078125 c 1,46,47
 165.453712419 548.362304688 165.453712419 548.362304688 165.564296774 556.868164062 c 1,48,49
 242.633611627 665.165039062 242.633611627 665.165039062 299.055573423 710.604492188 c 0,50,51
 314.69356922 724 314.69356922 724 337.701955249 724 c 128,-1,52
 360.710341279 724 360.710341279 724 376.885742188 709.323242188 c 1,53,54
 390 695.327148438 390 695.327148438 390 677.095703125 c 128,-1,55
 390 658.865234375 390 658.865234375 375.483398438 644.921875 c 0,56,57
 325.482954087 604.112304688 325.482954087 604.112304688 262.501173976 511.77734375 c 0,58,59
 222.607583037 453.422851562 222.607583037 453.422851562 192.270988436 393.41015625 c 1,60,61
 199.35750749 396.181640625 199.35750749 396.181640625 201.377667041 396.879882812 c 0,24,25
EndSplineSet
EndChar

StartChar: seven
Encoding: 55 55 26
AltUni2: 00ff17.ffffffff.0 002087.ffffffff.0 002077.ffffffff.0 00ff17.ffffffff.0 002087.ffffffff.0 002077.ffffffff.0
Width: 539
GlyphClass: 1
Flags: W
LayerCount: 2
UndoRedoHistory
Layer: 1
Undoes
UndoOperation
Index: 0
Type: 1
WasModified: 1
WasOrder2: 1
Layer: 2
Width: 479
VWidth: 1000
LBearingChange: 0
UnicodeEnc: 0
InstructionsLength: 0
SplineSet
61 664 m 0,0,1
 91 672 91 672 112 678 c 0,2,3
 113 678 113 678 125 681 c 0,4,5
 166 693 166 693 210 704 c 0,6,7
 261 715 261 715 301 719 c 0,8,9
 302 719 302 719 305 719.5 c 128,-1,10
 308 720 308 720 310 720 c 0,11,12
 317 720 317 720 321 722 c 0,13,14
 348 725 348 725 365 725 c 0,15,16
 393 725 393 725 417 716 c 0,17,18
 447 704 447 704 464 675 c 0,19,20
 468 667 468 667 468 656 c 0,21,22
 468 648 468 648 467 644 c 0,23,24
 466 635 466 635 461 621 c 0,25,26
 454 603 454 603 437 563 c 0,27,28
 434 556 434 556 401.5 485.5 c 128,-1,29
 369 415 369 415 361 396 c 1,30,-1
 360 395 l 2,31,32
 360 394 360 394 360 393 c 1,33,-1
 363 393 l 2,34,35
 388 395 388 395 413 398 c 0,36,37
 426 401 426 401 437 393.5 c 128,-1,38
 448 386 448 386 451 372 c 0,39,40
 453 358 453 358 445 347 c 128,-1,41
 437 336 437 336 424 334 c 0,42,43
 419 334 419 334 401.5 332 c 128,-1,44
 384 330 384 330 369 328 c 0,45,46
 357 328 357 328 333 325 c 2,47,-1
 331 325 l 1,48,49
 325 311 325 311 323 304 c 0,50,51
 287 217 287 217 270 146 c 0,52,53
 253 70 253 70 263 35 c 0,54,55
 267 22 267 22 260 10.5 c 128,-1,56
 253 -1 253 -1 240 -5 c 128,-1,57
 227 -9 227 -9 215.5 -2 c 128,-1,58
 204 5 204 5 200 18 c 0,59,60
 186 71 186 71 207 161 c 0,61,62
 224 228 224 228 258 317 c 1,63,-1
 216 310 l 2,64,65
 202 308 202 308 191 315.5 c 128,-1,66
 180 323 180 323 178 336 c 0,67,68
 175 349 175 349 182.5 360.5 c 128,-1,69
 190 372 190 372 203 374 c 0,70,71
 245 381 245 381 286 385 c 1,72,73
 296 409 296 409 302 422 c 0,74,75
 320 464 320 464 378 589 c 0,76,77
 394 627 394 627 400 643 c 0,78,79
 400 646 400 646 402 650 c 1,80,81
 392 660 392 660 365 660 c 0,82,83
 352 660 352 660 329 657 c 0,84,85
 328 657 328 657 323.5 656.5 c 128,-1,86
 319 656 319 656 318 656 c 0,87,88
 314 655 314 655 308 655 c 0,89,90
 271 651 271 651 225 640 c 0,91,92
 195 633 195 633 142 618 c 0,93,94
 138 617 138 617 134 616 c 128,-1,95
 130 615 130 615 129 615 c 0,96,97
 122 613 122 613 77 601 c 0,98,99
 64 597 64 597 52.5 604 c 128,-1,100
 41 611 41 611 38 624 c 0,101,102
 34 637 34 637 41 648.5 c 128,-1,103
 48 660 48 660 61 664 c 0,0,1
EndSplineSet
EndUndoOperation
EndUndoes
Redoes
EndRedoes
EndUndoRedoHistory
Fore
SplineSet
336.740496352 719 m 1,0,-1
 337.086459335 719 l 1,1,2
 346.125851121 720 346.125851121 720 348.571986827 720 c 0,3,4
 351.744423027 720 351.744423027 720 355.409191164 721.614257812 c 1,5,6
 390.013251452 725 390.013251452 725 410 725 c 0,7,8
 488.284179688 725 488.284179688 725 522.202148438 669.171875 c 0,9,10
 528 657.983398438 528 657.983398438 528 646.532226562 c 0,11,12
 528 625.676757812 528 625.676757812 520.451171875 606.522460938 c 128,-1,13
 512.903320312 587.369140625 512.903320312 587.369140625 502.80859375 564.481445312 c 128,-1,14
 492.71484375 541.59375 492.71484375 541.59375 466.028320312 485.73828125 c 128,-1,15
 439.341796875 429.883789062 439.341796875 429.883789062 428.474609375 406.473632812 c 1,16,17
 441.971679688 407.744140625 441.971679688 407.744140625 455.470703125 409.299804688 c 0,18,19
 460.4140625 410.314453125 460.4140625 410.314453125 465.265625 410.314453125 c 0,20,21
 478.767578125 410.314453125 478.767578125 410.314453125 490.435546875 402.638671875 c 0,22,23
 507.225585938 391.592773438 507.225585938 391.592773438 510.848632812 371.989257812 c 0,24,25
 511.400390625 368.265625 511.400390625 368.265625 511.400390625 364.639648438 c 0,26,27
 511.400390625 349.592773438 511.400390625 349.592773438 502.138671875 337.305664062 c 0,28,29
 490.452148438 321.801757812 490.452148438 321.801757812 470.159179688 318.7890625 c 1,30,-1
 469 318.7890625 l 2,31,32
 460.006835938 318.7890625 460.006835938 318.7890625 415.006835938 313 c 1,33,-1
 414 313 l 2,34,35
 404.266482809 313 404.266482809 313 383.466567313 310.993164062 c 1,36,37
 380.896239766 305.329101562 380.896239766 305.329101562 378.327021075 298.939453125 c 1,38,39
 337.990176742 216.96484375 337.990176742 216.96484375 318.99547835 150.297851562 c 0,40,41
 307.279308868 106.216796875 307.279308868 106.216796875 307.279308868 77.673828125 c 0,42,43
 307.279308868 62.03515625 307.279308868 62.03515625 310.207796811 53.576171875 c 128,-1,44
 313.136284753 45.1181640625 313.136284753 45.1181640625 313.136284753 36.1220703125 c 128,-1,45
 313.136284753 27.125 313.136284753 27.125 305.606045595 16.7216796875 c 0,46,47
 294.283519892 1.078125 294.283519892 1.078125 273.346106288 -4.33984375 c 0,48,49
 265.541979768 -6.4541015625 265.541979768 -6.4541015625 254.797167893 -6.4541015625 c 128,-1,50
 244.052356017 -6.4541015625 244.052356017 -6.4541015625 231.680852809 0.177734375 c 0,51,52
 212.523152626 9.98046875 212.523152626 9.98046875 206.449949877 27.845703125 c 0,53,54
 199.528472506 49.8740234375 199.528472506 49.8740234375 199.528472506 77.630859375 c 0,55,56
 199.528472506 118.12109375 199.528472506 118.12109375 214.316172317 171.400390625 c 1,57,58
 231.207371418 227.362304688 231.207371418 227.362304688 262.454925458 298.708007812 c 1,59,60
 253.178238549 298.211914062 253.178238549 298.211914062 243.902660496 296.108398438 c 2,61,62
 239.311997837 295.51171875 239.311997837 295.51171875 234.543918264 295.51171875 c 0,63,64
 217.308973891 295.51171875 217.308973891 295.51171875 203.121165021 303.643554688 c 0,65,66
 184.80397747 314.142578125 184.80397747 314.142578125 181.205740676 332.331054688 c 0,67,68
 179.932774316 337.206054688 179.932774316 337.206054688 179.932774316 342.0234375 c 0,69,70
 179.932774316 354.849609375 179.932774316 354.849609375 188.771463218 366.2421875 c 0,71,72
 201.419071499 382.543945312 201.419071499 382.543945312 223.602838927 385.458007812 c 0,73,74
 266.619787522 391.482421875 266.619787522 391.482421875 308.770719805 395.208007812 c 1,75,76
 334.503934375 446.549804688 334.503934375 446.549804688 409.272460938 582.328125 c 0,77,78
 422.559570312 612.455078125 422.559570312 612.455078125 428.881835938 627.956054688 c 1,79,80
 421 630 421 630 409.4921875 630 c 0,81,82
 396.628684646 630 396.628684646 630 370.512914854 627 c 1,83,-1
 369.689035058 627 l 2,84,85
 368.318489394 626.912109375 368.318489394 626.912109375 364.150300763 626.504882812 c 128,-1,86
 359.982112131 626.096679688 359.982112131 626.096679688 356.790825385 625.579101562 c 128,-1,87
 353.598429782 625.060546875 353.598429782 625.060546875 346.52725689 625.00390625 c 0,88,89
 305.907654349 621.07421875 305.907654349 621.07421875 263.705714704 612.272460938 c 128,-1,90
 221.503775059 603.470703125 221.503775059 603.470703125 161.703186366 588.564453125 c 2,91,92
 161.451476119 573.505859375 161.451476119 573.505859375 161.199765872 588.446289062 c 2,93,94
 140.737304688 583.469726562 140.737304688 583.469726562 96.119140625 571.571289062 c 0,95,96
 76.828125 565.76171875 76.828125 565.76171875 59.947265625 576.037109375 c 128,-1,97
 43.06640625 586.3125 43.06640625 586.3125 38.5068359375 605.094726562 c 0,98,99
 36.5458984375 611.71484375 36.5458984375 611.71484375 36.5458984375 618.255859375 c 0,100,101
 36.5458984375 630.387695312 36.5458984375 630.387695312 43.177734375 641.283203125 c 0,102,103
 53.4306640625 658.126953125 53.4306640625 658.126953125 72.1298828125 663.495117188 c 0,104,105
 102.002929688 671.4609375 102.002929688 671.4609375 124.888671875 678 c 1,106,-1
 125.724609375 678 l 2,107,108
 128.868164062 678.684570312 128.868164062 678.684570312 136.0703125 680.482421875 c 0,109,110
 180.022591629 692.51953125 180.022591629 692.51953125 230.40234217 703.612304688 c 1,111,112
 289.515440319 714.840820312 289.515440319 714.840820312 336.740496352 719 c 1,0,-1
EndSplineSet
EndChar

StartChar: eight
Encoding: 56 56 27
AltUni2: 00ff18.ffffffff.0 002088.ffffffff.0 002078.ffffffff.0 00ff18.ffffffff.0 002088.ffffffff.0 002078.ffffffff.0
Width: 497
GlyphClass: 1
Flags: W
LayerCount: 2
UndoRedoHistory
Layer: 1
Undoes
UndoOperation
Index: 0
Type: 1
WasModified: 1
WasOrder2: 1
Layer: 2
Width: 437
VWidth: 1000
LBearingChange: 0
UnicodeEnc: 0
InstructionsLength: 0
SplineSet
176 -6 m 1,0,-1
 174 -6 l 2,1,2
 173 -5 173 -5 172 -5 c 0,3,4
 77 24 77 24 41 69 c 0,5,6
 1 115 1 115 18 177 c 0,7,8
 31 224 31 224 76 278 c 0,9,10
 101 308 101 308 127 334 c 1,11,12
 96 360 96 360 79 388 c 0,13,14
 32 470 32 470 105 577 c 0,15,16
 138 627 138 627 169 656 c 0,17,18
 220 702 220 702 277 706 c 0,19,20
 310 709 310 709 336 693 c 0,21,22
 349 685 349 685 373 660 c 0,23,24
 406 624 406 624 400 577 c 0,25,26
 397 543 397 543 368 497 c 0,27,28
 341 459 341 459 305 421 c 0,29,30
 296 411 296 411 230 345 c 2,31,-1
 229 344 l 1,32,33
 235 340 235 340 241 337 c 0,34,35
 243 336 243 336 251 331 c 128,-1,36
 259 326 259 326 260 326 c 0,37,38
 285 311 285 311 317 291 c 0,39,40
 352 266 352 266 370 248 c 0,41,42
 427 193 427 193 427 121 c 0,43,44
 427 77 427 77 398 45 c 0,45,46
 372 17 372 17 334 2 c 0,47,48
 259 -27 259 -27 188 -11 c 0,49,50
 184 -10 184 -10 176 -6 c 1,0,-1
173 381 m 1,51,-1
 184 392 l 2,52,53
 225 432 225 432 258 465 c 0,54,55
 295 505 295 505 313 533 c 0,56,57
 333 561 333 561 336 584 c 0,58,59
 338 602 338 602 325 616 c 0,60,61
 309 634 309 634 301.5 638.5 c 128,-1,62
 294 643 294 643 282 642 c 0,63,64
 247 639 247 639 213 608 c 0,65,66
 193 590 193 590 158 540 c 0,67,68
 131 498 131 498 126 466 c 0,69,70
 123 442 123 442 135 421 c 0,71,72
 149 398 149 398 173 381 c 1,51,-1
203 52 m 0,73,74
 254 40 254 40 309 62 c 0,75,76
 362 83 362 83 362 121 c 0,77,78
 362 165 362 165 324 202 c 0,79,80
 300 227 300 227 227 270 c 0,81,82
 226 270 226 270 218 275 c 128,-1,83
 210 280 210 280 208 281 c 0,84,85
 204 283 204 283 195 288.5 c 128,-1,86
 186 294 186 294 181 297 c 1,87,88
 148 264 148 264 127 237 c 0,89,90
 88 191 88 191 81 160 c 0,91,92
 72 131 72 131 90 111 c 0,93,94
 116 81 116 81 191 57 c 0,95,96
 197 55 197 55 201 53 c 0,97,98
 201 52 201 52 203 52 c 0,73,74
EndSplineSet
EndUndoOperation
EndUndoes
Redoes
EndRedoes
EndUndoRedoHistory
Fore
SplineSet
360.136993201 408.196289062 m 0,0,1
 350.152197608 398.948242188 350.152197608 398.948242188 288.293286158 347.08984375 c 1,2,3
 294.058570309 344.153320312 294.058570309 344.153320312 299.824974585 341.155273438 c 1,4,-1
 300.650506821 341.155273438 l 1,5,6
 362.659515041 310.010742188 362.659515041 310.010742188 370.705078125 304.874023438 c 0,7,8
 406.6328125 280.233398438 406.6328125 280.233398438 425.508789062 262.133789062 c 0,9,10
 487 204.811523438 487 204.811523438 487 129.91796875 c 0,11,12
 487 82.12109375 487 82.12109375 453.993164062 47.150390625 c 0,13,14
 425.665039062 17.8583984375 425.665039062 17.8583984375 384.40234375 2.2197265625 c 0,15,16
 328.543863325 -16.6884765625 328.543863325 -16.6884765625 271.791602437 -16.6884765625 c 0,17,18
 238.734468989 -16.6884765625 238.734468989 -16.6884765625 209.120600253 -10.5537109375 c 0,19,20
 203.470688993 -9.322265625 203.470688993 -9.322265625 195.535722425 -6 c 1,21,-1
 190.121037447 -6 l 1,22,23
 188.798169643 10.1533203125 188.798169643 10.1533203125 187.47530184 -3.693359375 c 1,24,25
 87.1025390625 24.0029296875 87.1025390625 24.0029296875 44.4755859375 71.232421875 c 0,26,27
 13 106.3515625 13 106.3515625 12.9296875 149.950195312 c 0,28,29
 12.9296875 213.564453125 12.9296875 213.564453125 79.47265625 290.1796875 c 0,30,31
 99.53125 313.275390625 99.53125 313.275390625 120.241210938 333.958984375 c 1,32,33
 95.0205078125 356.538085938 95.0205078125 356.538085938 80.9765625 379.375 c 0,34,35
 60.591796875 413.498046875 60.591796875 413.498046875 60.591796875 451.825195312 c 0,36,37
 60.591796875 509.801757812 60.591796875 509.801757812 107.53515625 575.860351562 c 0,38,39
 143.790420962 626.526367188 143.790420962 626.526367188 179.991745708 654.342773438 c 0,40,41
 249.087785757 706.475585938 249.087785757 706.475585938 327.136986135 706.473632812 c 0,42,43
 362.814092312 706.473632812 362.814092312 706.473632812 388.845703125 691.409179688 c 0,44,45
 404.8515625 681.951171875 404.8515625 681.951171875 429.05859375 657.17578125 c 0,46,47
 460.922851562 623.798828125 460.922851562 623.798828125 460.922851562 581.390625 c 0,48,49
 460.922851562 573.905273438 460.922851562 573.905273438 459.915039062 566.192382812 c 0,50,51
 456.5078125 530.200195312 456.5078125 530.200195312 425.4765625 482.938476562 c 1,52,53
 397.668945312 445.359375 397.668945312 445.359375 360.136993201 408.196289062 c 0,0,1
357.578627357 591.041015625 m 0,54,55
 340.987333624 607.314453125 340.987333624 607.314453125 334.653025897 610.627929688 c 0,56,57
 331.682453997 612.181640625 331.682453997 612.181640625 328.015164254 612.181640625 c 0,58,59
 291.637979858 612.181640625 291.637979858 612.181640625 253.561565609 581.9140625 c 0,60,61
 232.069724342 565.05078125 232.069724342 565.05078125 193.191300485 516.657226562 c 0,62,63
 158.820260234 469.958007812 158.820260234 469.958007812 158.703767219 441.51953125 c 0,64,65
 158.703767219 412.708007812 158.703767219 412.708007812 194.653063806 385.951171875 c 1,66,67
 237.920138004 408.173828125 237.920138004 408.173828125 281.188332327 460.395507812 c 1,68,69
 322.423499501 499.284179688 322.423499501 499.284179688 342.422213942 526.405273438 c 1,70,71
 363.029156341 551.557617188 363.029156341 551.557617188 365.976205612 570.80859375 c 0,72,73
 366.158786012 572.306640625 366.158786012 572.306640625 366.158786012 573.728515625 c 0,74,75
 366.158786012 582.80859375 366.158786012 582.80859375 357.578627357 591.041015625 c 0,54,55
110.502929688 156.114257812 m 0,76,77
 108 148.049804688 108 148.049804688 108 141.666992188 c 0,78,79
 108 130.2578125 108 130.2578125 116.338867188 120.81640625 c 0,80,81
 139.892385437 94.6689453125 139.892385437 94.6689453125 222.180139386 71.234375 c 0,82,83
 230.213676967 68.8994140625 230.213676967 68.8994140625 235.889351106 66.4248046875 c 0,84,85
 262.201090897 62.869140625 262.201090897 62.869140625 272.369587015 62.7646484375 c 0,86,87
 307.948122178 62.7646484375 307.948122178 62.7646484375 345.708661135 75.93359375 c 0,88,89
 392 93.193359375 392 93.193359375 392 121 c 0,90,91
 392 158.673828125 392 158.673828125 357.085772291 191.431640625 c 1,92,93
 331.290410194 214.857421875 331.290410194 214.857421875 250.93263188 256.237304688 c 0,94,95
 247.135407619 257.625976562 247.135407619 257.625976562 239.021221027 262.046875 c 128,-1,96
 230.90815456 266.467773438 230.90815456 266.467773438 227.1154108 268.163085938 c 128,-1,97
 223.32266704 269.859375 223.32266704 269.859375 216.688165772 273.39453125 c 128,-1,98
 210.053664504 276.928710938 210.053664504 276.928710938 207.965751223 278.0390625 c 0,99,100
 177.262000716 250.602539062 177.262000716 250.602539062 156.921648104 227.802734375 c 2,101,-1
 156.461276667 227.30859375 l 1,102,103
 116.826171875 184.116210938 116.826171875 184.116210938 110.502929688 156.114257812 c 0,76,77
EndSplineSet
EndChar

StartChar: nine
Encoding: 57 57 28
AltUni2: 00ff19.ffffffff.0 002089.ffffffff.0 002079.ffffffff.0 00ff19.ffffffff.0 002089.ffffffff.0 002079.ffffffff.0
Width: 504
GlyphClass: 1
Flags: W
LayerCount: 2
UndoRedoHistory
Layer: 1
Undoes
UndoOperation
Index: 0
Type: 1
WasModified: 1
WasOrder2: 1
Layer: 2
Width: 444
VWidth: 1000
LBearingChange: 0
UnicodeEnc: 0
InstructionsLength: 0
SplineSet
356 308 m 1,0,1
 378 402 378 402 362 484 c 0,2,3
 344 584 344 584 278 613 c 0,4,5
 217 640 217 640 172 599 c 0,6,7
 127 559 127 559 122 484 c 0,8,9
 117 407 117 407 164 359 c 0,10,11
 223 302 223 302 339 312 c 0,12,13
 349 312 349 312 356 308 c 1,0,1
103 76 m 0,14,15
 180 43 180 43 247 101 c 0,16,17
 304 150 304 150 338 247 c 1,18,19
 194 236 194 236 118 314 c 0,20,21
 51 381 51 381 57 488 c 0,22,23
 63 589 63 589 129 648 c 0,24,25
 206 717 206 717 304 672 c 0,26,27
 402 628 402 628 426 496 c 0,28,29
 447 384 447 384 409 253 c 0,30,31
 370 121 370 121 289 51 c 0,32,33
 192 -32 192 -32 77 16 c 0,34,35
 65 21 65 21 60 33.5 c 128,-1,36
 55 46 55 46 60 59 c 0,37,38
 65 71 65 71 77.5 76 c 128,-1,39
 90 81 90 81 103 76 c 0,14,15
EndSplineSet
EndUndoOperation
EndUndoes
Redoes
EndRedoes
EndUndoRedoHistory
Fore
SplineSet
389.733398438 326.732421875 m 0,0,1
 398.737304688 371.267578125 398.737304688 371.267578125 398.737304688 409.639648438 c 0,2,3
 398.737304688 446.674804688 398.737304688 446.674804688 392.237304688 481.329101562 c 0,4,5
 375.650390625 562.749023438 375.650390625 562.749023438 306.826405856 585.52734375 c 0,6,7
 281.611996397 593.720703125 281.611996397 593.720703125 259.761505046 593.720703125 c 0,8,9
 227.739769526 593.720703125 227.739769526 593.720703125 200.796167917 576.69921875 c 0,10,11
 156.55859375 544.516601562 156.55859375 544.516601562 151.966796875 482.989257812 c 0,12,13
 151.51953125 476.102539062 151.51953125 476.102539062 151.51953125 469.459960938 c 0,14,15
 151.51953125 406.291015625 151.51953125 406.291015625 191.916345734 369.641601562 c 0,16,17
 245.509782132 326 245.509782132 326 346.54022398 325.5078125 c 0,18,19
 364.69501352 325.5078125 364.69501352 325.5078125 382.697265625 326.944335938 c 2,20,-1
 384 327 l 2,21,22
 386.938476562 327 386.938476562 327 389.733398438 326.732421875 c 0,0,1
172.53125 94.033203125 m 0,23,24
 220.394446973 94.033203125 220.394446973 94.033203125 265.834990067 123.752929688 c 0,25,26
 321.999750169 160.750976562 321.999750169 160.750976562 358.657241327 230.818359375 c 1,27,28
 351.230124875 230.640625 351.230124875 230.640625 343.945859741 230.640625 c 0,29,30
 196.299807515 230.640625 196.299807515 230.640625 122.395507812 303.395507812 c 0,31,32
 56.5068359375 369.284179688 56.5068359375 369.284179688 56.5068359375 470.681640625 c 0,33,34
 56.5068359375 479.630859375 56.5068359375 479.630859375 57.0263671875 488.901367188 c 0,35,36
 63.392578125 589.01953125 63.392578125 589.01953125 133.99609375 647.990234375 c 0,37,38
 186.375097071 689.762695312 186.375097071 689.762695312 257.192485395 689.762695312 c 0,39,40
 302.840393304 689.762695312 302.840393304 689.762695312 351.836090946 672.0078125 c 0,41,42
 460.34765625 628.2265625 460.34765625 628.2265625 485.743164062 498.77734375 c 0,43,44
 493.474609375 457.541992188 493.474609375 457.541992188 493.474609375 413.864257812 c 0,45,46
 493.474609375 335.231445312 493.474609375 335.231445312 468.387695312 248.748046875 c 0,47,48
 428.143554688 119.959960938 428.143554688 119.959960938 338.402307024 50.99609375 c 0,49,50
 260.94002841 -1.587890625 260.94002841 -1.587890625 173.858398438 -1.587890625 c 0,51,52
 131.126953125 -1.587890625 131.126953125 -1.587890625 86.2412109375 15.9931640625 c 0,53,54
 68.4111328125 21.0380859375 68.4111328125 21.0380859375 61.06640625 33.5087890625 c 0,55,56
 57.5 39.6943359375 57.5 39.6943359375 57.5 46.125 c 0,57,58
 57.5 58.16015625 57.5 58.16015625 61.068359375 70.3388671875 c 0,59,60
 68.576171875 94.1533203125 68.576171875 94.1533203125 86.9375 103.860351562 c 0,61,62
 95.8544921875 108.5 95.8544921875 108.5 105.125 108.5 c 0,63,64
 114.780273438 108.5 114.780273438 108.5 123.897460938 103.690429688 c 0,65,66
 149.0078125 94.033203125 149.0078125 94.033203125 172.53125 94.033203125 c 0,23,24
EndSplineSet
EndChar

StartChar: colon
Encoding: 58 58 29
AltUni2: 00ff1a.ffffffff.0 00fe55.ffffffff.0 00fe13.ffffffff.0 002236.ffffffff.0 000589.ffffffff.0 00ff1a.ffffffff.0 00fe55.ffffffff.0 00fe13.ffffffff.0 002236.ffffffff.0 000589.ffffffff.0
Width: 230
GlyphClass: 1
Flags: W
LayerCount: 2
UndoRedoHistory
Layer: 1
Undoes
UndoOperation
Index: 0
Type: 1
WasModified: 0
WasOrder2: 1
Layer: 2
Width: 230
VWidth: 1000
LBearingChange: 0
UnicodeEnc: 0
InstructionsLength: 0
SplineSet
92 152 m 1,0,1
 108 173 108 173 134 167 c 0,2,3
 169 158 169 158 191 129 c 0,4,5
 222 88 222 88 196 47 c 0,6,7
 176 19 176 19 140 10 c 0,8,9
 120 6 120 6 106 9 c 0,10,11
 83 14 83 14 69 29 c 0,12,13
 53 47 53 47 53 70 c 0,14,15
 52 90 52 90 61 115 c 0,16,17
 63 121 63 121 67 129 c 0,18,19
 77 144 77 144 92 152 c 1,0,1
73 386 m 1,20,21
 71 403 71 403 83 416 c 0,22,23
 102 435 102 435 125 436 c 0,24,25
 144 437 144 437 164 426 c 0,26,27
 192 411 192 411 208 378 c 0,28,29
 228 339 228 339 214 307 c 0,30,31
 203 284 203 284 180 275 c 0,32,33
 160 268 160 268 135 271 c 0,34,35
 104 274 104 274 84 296 c 0,36,37
 58 324 58 324 64 363 c 0,38,39
 65 375 65 375 73 386 c 1,20,21
EndSplineSet
EndUndoOperation
EndUndoes
Redoes
EndRedoes
EndUndoRedoHistory
Fore
SplineSet
62.9 74.05 m 0,0,1
 62.9 72.2487060424 62.9 72.2487060424 62.9873630594 70.506621736 c 2,2,-1
 63 70.2538829249 l 2,3,4
 63 50.8540779914 63 50.8540779914 76.3939409021 35.7312267328 c 0,5,6
 88.2401802451 23.0961311344 88.2401802451 23.0961311344 108.13094352 18.7720561246 c 0,7,8
 113.067205435 17.7142857143 113.067205435 17.7142857143 120.272338042 17.7142857143 c 128,-1,9
 127.47747065 17.7142857143 127.47747065 17.7142857143 137.798740163 19.7596126828 c 0,10,11
 169.926182426 27.8605798375 169.926182426 27.8605798375 187.696213649 52.5783559505 c 1,12,13
 197.133729935 74.2866497751 197.133729935 74.2866497751 197.859649123 84.4035087719 c 0,14,15
 197.859649123 103.348900537 197.859649123 103.348900537 183.018767128 122.97716382 c 0,16,17
 163.178459839 149.130296156 163.178459839 149.130296156 131.628211495 157.282544131 c 0,18,19
 127.023060133 158.333332585 127.023060133 158.333332585 122.938271605 158.333333333 c 0,20,21
 109.395543029 158.333333333 109.395543029 158.333333333 99.9588445823 145.947666622 c 2,22,-1
 98.6280365633 144.200981097 l 1,23,24
 84.1681172079 136.489024108 84.1681172079 136.489024108 75.6682404042 123.97107999 c 0,25,26
 72.4211018008 117.412418666 72.4211018008 117.412418666 70.4120782919 111.616254933 c 0,27,28
 62.9 90.7493707885 62.9 90.7493707885 62.9 74.05 c 0,0,1
72.875 348.76171875 m 0,29,30
 72.875 322.674097563 72.875 322.674097563 90.8373135458 303.1284771 c 0,31,32
 112.000352444 280.1 112.000352444 280.1 149.55 280.1 c 0,33,34
 189.957332459 280.1 189.957332459 280.1 204.900341613 311.153737594 c 0,35,36
 209.512018571 327.231810318 209.512018571 327.231810318 209.764705882 334.539792388 c 0,37,38
 209.764705882 352.642564374 209.764705882 352.642564374 199.044909522 373.546167278 c 0,39,40
 184.416397579 403.717473159 184.416397579 403.717473159 159.288165863 417.179025864 c 0,41,42
 143.098515918 426.083333333 143.098515918 426.083333333 128.173611111 426.083333333 c 0,43,44
 107.306511741 426.083333333 107.306511741 426.083333333 90.21600128 409.076277338 c 0,45,46
 83.4404278015 397.594663393 83.4404278015 397.594663393 83.0773567579 393.3082676 c 128,-1,47
 82.7142857143 389.021871806 82.7142857143 389.021871806 83.3891934493 383.285156058 c 1,48,-1
 81.0925146705 380.127222737 l 2,49,50
 75.1201642925 371.915240968 75.1201642925 371.915240968 73.9975821463 363.415095284 c 128,-1,51
 72.875 354.914949601 72.875 354.914949601 72.875 348.76171875 c 0,29,30
EndSplineSet
EndChar

StartChar: semicolon
Encoding: 59 59 30
AltUni2: 00ff1b.ffffffff.0 00fe54.ffffffff.0 00fe14.ffffffff.0 00037e.ffffffff.0 00ff1b.ffffffff.0 00fe54.ffffffff.0 00fe14.ffffffff.0 00037e.ffffffff.0
Width: 212
GlyphClass: 1
Flags: W
LayerCount: 2
UndoRedoHistory
Layer: 1
Undoes
UndoOperation
Index: 0
Type: 1
WasModified: 0
WasOrder2: 1
Layer: 2
Width: 212
VWidth: 1000
LBearingChange: 0
UnicodeEnc: 0
InstructionsLength: 0
SplineSet
95 352 m 2,0,1
 113 369 113 369 136 359 c 0,2,3
 186 338 186 338 193 300 c 0,4,5
 200 261 200 261 168 234 c 0,6,7
 136 209 136 209 101 223 c 0,8,9
 81 232 81 232 70 252 c 0,10,11
 62 268 62 268 62 293 c 2,12,-1
 62 298 l 1,13,-1
 62 306 l 2,14,15
 65 323 65 323 76 332 c 2,16,-1
 81 337 l 2,17,18
 86 340 86 340 90 347 c 2,19,-1
 95 352 l 2,0,1
124 156 m 0,20,21
 166 142 166 142 188 99 c 0,22,23
 205 62 205 62 201 22 c 0,24,25
 197 -22 197 -22 173.5 -56.5 c 128,-1,26
 150 -91 150 -91 112 -104 c 0,27,28
 97 -109 97 -109 82 -102 c 128,-1,29
 67 -95 67 -95 63 -80 c 0,30,31
 58 -64 58 -64 65 -49.5 c 128,-1,32
 72 -35 72 -35 87 -30 c 0,33,34
 101 -26 101 -26 111.5 -9.5 c 128,-1,35
 122 7 122 7 124 28 c 0,36,37
 126 50 126 50 118 64 c 0,38,39
 112 77 112 77 98 82 c 0,40,41
 83 87 83 87 76 101.5 c 128,-1,42
 69 116 69 116 74 131 c 0,43,44
 79 147 79 147 94 154 c 128,-1,45
 109 161 109 161 124 156 c 0,20,21
EndSplineSet
EndUndoOperation
EndUndoes
Redoes
EndRedoes
EndUndoRedoHistory
Fore
SplineSet
119.648834019 377.703703704 m 0,0,1
 130.563536228 377.703703704 130.563536228 377.703703704 141.880604717 372.801893457 c 0,2,3
 209.256410256 344.466256975 209.256410256 344.466256975 209.256410256 286.386587771 c 0,4,5
 209.256410256 249.187398555 209.256410256 249.187398555 177.447131729 222.348319797 c 1,6,7
 152.648461876 202.974358974 152.648461876 202.974358974 125.741617357 202.974358974 c 0,8,9
 109.780140553 202.974358974 109.780140553 202.974358974 94.8567494093 209.313543526 c 0,10,11
 47 230.84908076 47 230.84908076 47 293 c 2,12,-1
 47 298 l 1,13,-1
 47 306 l 1,14,-1
 47 307.325417024 l 1,15,16
 51.1049136827 330.586594559 51.1049136827 330.586594559 65.8800543993 343.089098149 c 1,17,-1
 70.395478125 347.604521875 l 1,18,-1
 71.7092679407 348.918311691 l 1,19,-1
 73.2986350327 349.871931946 l 2,20,21
 74.9205771627 350.845097224 74.9205771627 350.845097224 77.9666087478 356.175652498 c 1,22,-1
 79.395478125 357.604521875 l 2,23,24
 84.395478125 362.604521875 84.395478125 362.604521875 84.7050104776 362.905336919 c 0,25,26
 100.373869426 377.703703704 100.373869426 377.703703704 119.648834019 377.703703704 c 0,0,1
216.761904762 37.1292517007 m 0,27,28
 216.761904762 -19.630466989 216.761904762 -19.630466989 185.905923524 -64.9296734877 c 0,29,30
 159.579748311 -103.578739226 159.579748311 -103.578739226 116.74091829 -118.234128444 c 0,31,32
 108.193303621 -121.083333333 108.193303621 -121.083333333 97.8057207269 -121.083333333 c 0,33,34
 87.4181378329 -121.083333333 87.4181378329 -121.083333333 75.669849499 -115.600798777 c 0,35,36
 54.4850749384 -105.714570649 54.4850749384 -105.714570649 48.5890491068 -84.1815630973 c 0,37,38
 41.9796906838 -62.6787305963 41.9796906838 -62.6787305963 51.6127633229 -42.724508701 c 0,39,40
 61.245835962 -22.7702868057 61.245835962 -22.7702868057 82.5657331619 -15.6636544057 c 0,41,42
 91.406045099 -13.1378509952 91.406045099 -13.1378509952 99.407210227 -0.564591508216 c 0,43,44
 109.4 15.1383638493 109.4 15.1383638493 109.4 36.48 c 0,45,46
 109.4 47.9707549319 109.4 47.9707549319 104.372681443 57.7269918651 c 0,47,48
 101.039040933 64.9498796357 101.039040933 64.9498796357 93.0839615296 67.8245787368 c 0,49,50
 72.1997417621 74.8657665209 72.1997417621 74.8657665209 62.483313535 94.9926546902 c 0,51,52
 56.9166666667 106.52356606 56.9166666667 106.52356606 56.9166666667 116.824620901 c 0,53,54
 56.9166666667 127.125675742 56.9166666667 127.125675742 59.7219129849 135.608523378 c 0,55,56
 66.7270684213 157.82749927 66.7270684213 157.82749927 87.669849499 167.600798777 c 0,57,58
 99.4181378329 173.083333333 99.4181378329 173.083333333 109.805720727 173.083333333 c 0,59,60
 120.193303621 173.083333333 120.193303621 173.083333333 128.74091829 170.234128444 c 0,61,62
 176.560418791 154.294294943 176.560418791 154.294294943 201.50638043 105.536279012 c 1,63,64
 216.761904762 72.3330789959 216.761904762 72.3330789959 216.761904762 37.1292517007 c 0,27,28
EndSplineSet
Validated: 33
EndChar

StartChar: less
Encoding: 60 60 31
AltUni2: 00ff1c.ffffffff.0 00fe64.ffffffff.0 003008.ffffffff.0 002039.ffffffff.0 00ff1c.ffffffff.0 00fe64.ffffffff.0 003008.ffffffff.0 002039.ffffffff.0 002329.ffffffff.0 00fe3f.ffffffff.0
Width: 390
GlyphClass: 1
Flags: W
LayerCount: 2
UndoRedoHistory
Layer: 1
Undoes
UndoOperation
Index: 0
Type: 1
WasModified: 0
WasOrder2: 1
Layer: 2
Width: 390
VWidth: 1000
LBearingChange: 0
UnicodeEnc: 0
InstructionsLength: 0
SplineSet
369 566 m 0,0,1
 333 529 333 529 257 455 c 0,2,3
 256 454 256 454 239.5 438 c 128,-1,4
 223 422 223 422 204.5 404 c 128,-1,5
 186 386 186 386 180 380 c 0,6,7
 151 352 151 352 136 334 c 0,8,9
 134 331 134 331 131 326 c 2,10,-1
 128 321 l 2,11,12
 128 320 128 320 127 319 c 128,-1,13
 126 318 126 318 126 317 c 2,14,-1
 126 316 l 2,15,16
 126 315 126 315 127 313 c 128,-1,17
 128 311 128 311 128 310 c 0,18,19
 134 301 134 301 153 279 c 0,20,21
 190 240 190 240 204 225 c 0,22,23
 237 187 237 187 273 141 c 0,24,25
 277 135 277 135 295 123 c 0,26,27
 301 118 301 118 305.5 114 c 128,-1,28
 310 110 310 110 312 109 c 0,29,30
 329 95 329 95 337 82 c 0,31,32
 353 54 353 54 340 28 c 0,33,34
 334 13 334 13 318.5 7 c 128,-1,35
 303 1 303 1 289 8 c 0,36,37
 264 20 264 20 266 46 c 0,38,39
 264 48 264 48 262 49 c 0,40,41
 257 54 257 54 247 61 c 0,42,43
 220 82 220 82 212 93 c 0,44,45
 197 112 197 112 146 173 c 1,46,-1
 96 227 l 2,47,48
 70 255 70 255 61 271 c 0,49,50
 45 299 45 299 49 329 c 0,51,52
 53 354 53 354 75 382 c 0,53,54
 90 401 90 401 125 436 c 0,55,56
 167 475 167 475 203 511 c 0,57,58
 277 584 277 584 313 620 c 0,59,60
 324 632 324 632 340.5 632 c 128,-1,61
 357 632 357 632 368 621 c 128,-1,62
 379 610 379 610 379.5 593.5 c 128,-1,63
 380 577 380 577 369 566 c 0,0,1
EndSplineSet
EndUndoOperation
EndUndoes
Redoes
EndRedoes
EndUndoRedoHistory
Fore
SplineSet
320.211620395 121.666160138 m 0,0,1
 360.827586207 88.2177177038 360.827586207 88.2177177038 360.827586207 53.4698652254 c 0,2,3
 360.827586207 36.4039191237 360.827586207 36.4039191237 353.693123146 21.847656267 c 0,4,5
 345.159937508 1.23258893113 345.159937508 1.23258893113 323.907262742 -6.9942514162 c 0,6,7
 314.155232747 -10.7692307692 314.155232747 -10.7692307692 303.605866939 -10.7692307692 c 0,8,9
 293.056501132 -10.7692307692 293.056501132 -10.7692307692 282.416882882 -5.48024921811 c 0,10,11
 252.821135328 8.78760802658 252.821135328 8.78760802658 250.95656261 38.8255463054 c 0,12,13
 248.191628639 41.4843130074 248.191628639 41.4843130074 237.802415553 49.153405622 c 0,14,15
 209.346121431 71.2860788283 209.346121431 71.2860788283 200.050153085 83.9324458689 c 0,16,17
 185.091255707 102.859511915 185.091255707 102.859511915 134.732914583 163.094613749 c 1,18,-1
 85.0073231527 216.798274876 l 2,19,20
 57.7918674172 246.107227207 57.7918674172 246.107227207 47.9668329554 263.573955139 c 0,21,22
 33.2 289.415912811 33.2 289.415912811 33.2 317.08 c 0,23,24
 33.2 353.075298673 33.2 353.075298673 63.2208185871 391.283613238 c 0,25,26
 78.7692527079 410.978296458 78.7692527079 410.978296458 114.593289971 446.802333721 c 1,27,28
 170.45321437 498.67226352 170.45321437 498.67226352 302.182202975 630.391257483 c 0,29,30
 317.606627316 646.999998459 317.606627316 646.999998459 340.5 647 c 0,31,32
 363.20904375 647 363.20904375 647 378.604521875 631.604521875 c 0,33,34
 394.518735946 615.690307804 394.518735946 615.690307804 394.520237538 593.033731738 c 0,35,36
 394.52173913 570.377155672 394.52173913 570.377155672 379.684018495 555.475150067 c 0,37,38
 340.485460557 515.191786854 340.485460557 515.191786854 299.594796102 475.469482822 c 0,39,40
 208.299952569 386.783187804 208.299952569 386.783187804 185.418191779 364.537604131 c 0,41,42
 162.536430988 342.292020457 162.536430988 342.292020457 148.058226567 325.04072812 c 0,43,44
 146.340390633 322.412732844 146.340390633 322.412732844 142.317890897 315.708566618 c 1,45,46
 148.951867296 306.644330595 148.951867296 306.644330595 164.125728867 289.062742196 c 0,47,48
 210.674961048 239.996330272 210.674961048 239.996330272 215.328628474 234.827634632 c 0,49,50
 248.581319847 196.536656688 248.581319847 196.536656688 284.818734541 150.233293468 c 1,51,-1
 285.489704743 149.305348576 l 2,52,53
 289.162204003 144.918467792 289.162204003 144.918467792 303.974748218 135.043438315 c 0,54,55
 310.778617315 129.373547401 310.778617315 129.373547401 314.296643855 126.246412698 c 0,56,57
 318.469466318 122.537237176 318.469466318 122.537237176 320.211620395 121.666160138 c 0,0,1
EndSplineSet
Validated: 33
Substitution2: "'rtla' Right to Left Alternates lookup 0 subtable" greater
EndChar

StartChar: equal
Encoding: 61 61 32
AltUni2: 00ff1d.ffffffff.0 00fe66.ffffffff.0 00208c.ffffffff.0 00207c.ffffffff.0 00ff1d.ffffffff.0 00fe66.ffffffff.0 00208c.ffffffff.0 00207c.ffffffff.0
Width: 546
GlyphClass: 1
Flags: W
LayerCount: 2
UndoRedoHistory
Layer: 1
Undoes
UndoOperation
Index: 0
Type: 1
WasModified: 0
WasOrder2: 1
Layer: 2
Width: 546
VWidth: 1000
LBearingChange: 0
UnicodeEnc: 0
InstructionsLength: 0
SplineSet
122 408 m 0,0,1
 297 401 297 401 493 409 c 0,2,3
 509 410 509 410 521 399 c 128,-1,4
 533 388 533 388 534 372 c 128,-1,5
 535 356 535 356 524 344 c 128,-1,6
 513 332 513 332 497 331 c 0,7,8
 298 323 298 323 119 330 c 0,9,10
 103 331 103 331 92 342.5 c 128,-1,11
 81 354 81 354 81 370 c 0,12,13
 82 387 82 387 94 398 c 128,-1,14
 106 409 106 409 122 408 c 0,0,1
124 201 m 0,15,16
 385 206 385 206 495 212 c 0,17,18
 511 213 511 213 522.5 202 c 128,-1,19
 534 191 534 191 536 175 c 0,20,21
 537 159 537 159 526 147 c 128,-1,22
 515 135 515 135 499 134 c 0,23,24
 387 128 387 128 126 123 c 0,25,26
 109 122 109 122 97.5 133.5 c 128,-1,27
 86 145 86 145 86 161 c 128,-1,28
 86 177 86 177 97 188.5 c 128,-1,29
 108 200 108 200 124 201 c 0,15,16
EndSplineSet
EndUndoOperation
EndUndoes
Redoes
EndRedoes
EndUndoRedoHistory
Fore
SplineSet
549.083333333 369.361111111 m 0,0,1
 549.083333333 349.169437797 549.083333333 349.169437797 534.524950205 333.287565293 c 0,2,3
 519.966567076 317.405692789 519.966567076 317.405692789 497.948166125 316.02954273 c 2,4,-1
 497.611841168 316.012276781 l 1,5,6
 298.022998088 307.988604697 298.022998088 307.988604697 118.404733038 315.011619555 c 1,7,-1
 118.051833875 315.02954273 l 2,8,9
 96.2176457104 316.39417949 96.2176457104 316.39417949 81.1607164896 332.135514584 c 0,10,11
 66 347.985354551 66 347.985354551 66 370 c 0,12,13
 66.6835497505 393.304602624 66.6835497505 393.304602624 82.9264937736 408.193967979 c 0,14,15
 99.1694377967 423.083333333 99.1694377967 423.083333333 119.361111111 423.083333333 c 0,16,17
 121.052270694 423.083333333 121.052270694 423.083333333 122.765947685 422.981562455 c 0,18,19
 296.995377968 416.019493467 296.995377968 416.019493467 492.227369683 423.981165287 c 0,20,21
 494.798048014 424.083338893 494.798048014 424.083338893 495.638888889 424.083333333 c 0,22,23
 515.830562203 424.083333333 515.830562203 424.083333333 531.712434707 409.524950205 c 0,24,25
 549.083333333 393.601626464 549.083333333 393.601626464 549.083333333 369.361111111 c 0,0,1
497.635416667 227.083333333 m 0,26,27
 517.972978782 227.083333333 517.972978782 227.083333333 533.098859349 212.615099748 c 0,28,29
 548.224739916 198.146866162 548.224739916 198.146866162 550.94133712 176.41408853 c 0,30,31
 551.083333333 174.142149117 551.083333333 174.142149117 551.083333333 172.361111111 c 0,32,33
 551.083333333 152.169437797 551.083333333 152.169437797 536.525242005 136.28788362 c 0,34,35
 521.967150677 120.406329444 521.967150677 120.406329444 499.813793207 119.021744602 c 0,36,37
 387.613453463 113.011012116 387.613453463 113.011012116 126.572518465 108.008166274 c 0,38,39
 124.930311317 107.920000094 124.930311317 107.920000094 123.3152 107.92 c 0,40,41
 101.87095625 107.92 101.87095625 107.92 86.435478125 123.355478125 c 0,42,43
 71 138.79095625 71 138.79095625 71 161 c 0,44,45
 71 183.014645449 71 183.014645449 86.1607164896 198.864485416 c 0,46,47
 101.689652093 215.099281728 101.689652093 215.099281728 123.707637872 215.997201748 c 0,48,49
 384.452563961 220.992315275 384.452563961 220.992315275 494.051833875 226.97045727 c 0,50,51
 495.857850883 227.083333333 495.857850883 227.083333333 497.635416667 227.083333333 c 0,26,27
EndSplineSet
Validated: 33
EndChar

StartChar: greater
Encoding: 62 62 33
AltUni2: 00ff1e.ffffffff.0 00fe65.ffffffff.0 003009.ffffffff.0 00203a.ffffffff.0 00ff1e.ffffffff.0 00fe65.ffffffff.0 003009.ffffffff.0 00203a.ffffffff.0 00232a.ffffffff.0 00fe40.ffffffff.0
Width: 361
GlyphClass: 1
Flags: W
LayerCount: 2
UndoRedoHistory
Layer: 1
Undoes
UndoOperation
Index: 0
Type: 1
WasModified: 0
WasOrder2: 1
Layer: 2
Width: 361
VWidth: 1000
LBearingChange: 0
UnicodeEnc: 0
InstructionsLength: 0
SplineSet
109 619 m 0,0,1
 163 558 163 558 209 510 c 0,2,3
 250 469 250 469 280 434 c 0,4,5
 312 400 312 400 326 381 c 0,6,7
 346 352 346 352 350 328 c 0,8,9
 354 301 354 301 339 273 c 0,10,11
 329 254 329 254 307 228 c 2,12,-1
 298 218 l 2,13,14
 290 207 290 207 278.5 193.5 c 128,-1,15
 267 180 267 180 262 174 c 0,16,17
 231 138 231 138 201 95 c 0,18,19
 192 82 192 82 168 62 c 0,20,21
 160 55 160 55 155 50 c 0,22,23
 154 49 154 49 151 47 c 0,24,25
 153 18 153 18 127 8 c 0,26,27
 112 1 112 1 97.5 7.5 c 128,-1,28
 83 14 83 14 76 29 c 0,29,30
 66 54 66 54 80 80 c 0,31,32
 88 96 88 96 103 108 c 0,33,34
 109 114 109 114 118 122 c 0,35,36
 133 133 133 133 138 140 c 0,37,38
 173 189 173 189 201 223 c 2,39,-1
 247 278 l 2,40,41
 266 300 266 300 270 309 c 0,42,43
 273 313 273 313 273 317 c 0,44,45
 271 323 271 323 263 335 c 0,46,47
 251 352 251 352 223 381 c 0,48,49
 193 416 193 416 153 456 c 0,50,51
 87 525 87 525 51 567 c 0,52,53
 40 579 40 579 41 595 c 128,-1,54
 42 611 42 611 54 622 c 128,-1,55
 66 633 66 633 82 632 c 128,-1,56
 98 631 98 631 109 619 c 0,0,1
EndSplineSet
EndUndoOperation
EndUndoes
Redoes
EndRedoes
EndUndoRedoHistory
Fore
SplineSet
79.3611111111 647.083333333 m 0,0,1
 103.885867197 647.083333333 103.885867197 647.083333333 120.233917495 628.935653709 c 0,2,3
 173.970977198 568.232678859 173.970977198 568.232678859 219.718720662 520.490310105 c 0,4,5
 260.901168141 479.300931565 260.901168141 479.300931565 291.163566441 444.020596392 c 0,6,7
 325.533227328 407.486965595 325.533227328 407.486965595 338.356749654 389.501418363 c 0,8,9
 365.842105263 349.64765273 365.842105263 349.64765273 365.842105263 316.587257618 c 0,10,11
 365.842105263 291.339636111 365.842105263 291.339636111 353.680228032 268.458055727 c 0,12,13
 340.390349287 243.454232468 340.390349287 243.454232468 318.151319628 217.971809622 c 2,14,-1
 309.670005399 208.548127145 l 1,15,16
 301.469397649 197.336560096 301.469397649 197.336560096 289.922404733 183.781394498 c 0,17,18
 278.4754203 170.343630164 278.4754203 170.343630164 273.449605584 164.312652505 c 0,19,20
 242.870583053 128.801529566 242.870583053 128.801529566 213.341389706 86.4763524349 c 0,21,22
 203.196842688 71.8231178532 203.196842688 71.8231178532 177.735527748 50.5905881043 c 0,23,24
 170.596442084 44.3388676392 170.596442084 44.3388676392 166.071575516 39.8601088325 c 1,25,26
 165.439440401 26.2836297661 165.439440401 26.2836297661 159.338810762 15.8295975193 c 0,27,28
 150.832907127 1.25389039708 150.832907127 1.25389039708 132.855239252 -5.81987821624 c 0,29,30
 111.876766285 -15.38510156 111.876766285 -15.38510156 91.8221358531 -6.39509481457 c 0,31,32
 70.9274115607 2.97150573028 70.9274115607 2.97150573028 62.0666956469 23.4378663364 c 0,33,34
 56.8333333333 36.5212721204 56.8333333333 36.5212721204 56.8333333333 52.5179356813 c 0,35,36
 56.8333333333 68.5145992422 56.8333333333 68.5145992422 66.6765931355 86.896511916 c 0,37,38
 75.9639508682 105.358467739 75.9639508682 105.358467739 92.9768058194 119.183740614 c 0,39,40
 99.1268615116 125.28952858 99.1268615116 125.28952858 108.571350858 133.684630221 c 1,41,42
 122.191869563 143.673010604 122.191869563 143.673010604 125.785957218 148.704733322 c 0,43,44
 163.676710401 201.751787779 163.676710401 201.751787779 200.956961162 246.325034315 c 0,45,46
 235.489521203 287.61397895 235.489521203 287.61397895 235.489521203 287.614262043 c 0,47,48
 253.818072243 309.528833938 253.818072243 309.528833938 256.825288217 316.295069882 c 1,49,50
 254.274927459 321.032592272 254.274927459 321.032592272 250.62222327 326.526531105 c 0,51,52
 239.256715869 342.571563744 239.256715869 342.571563744 212.209682879 370.584561504 c 1,53,-1
 211.60759254 371.24628919 l 1,54,55
 181.985145419 405.805810831 181.985145419 405.805810831 142.276762618 445.514193632 c 0,56,57
 118.164226381 470.722754243 118.164226381 470.722754243 39.7595197859 557.069080399 c 0,58,59
 26 572 26 572 25.9166666667 592.361111111 c 0,60,61
 25.9166666667 616.601626464 25.9166666667 616.601626464 43.8696857883 633.058560659 c 0,62,63
 59.1694377967 647.083333333 59.1694377967 647.083333333 79.3611111111 647.083333333 c 0,0,1
EndSplineSet
Validated: 33
Substitution2: "'rtla' Right to Left Alternates lookup 0 subtable" less
EndChar

StartChar: question
Encoding: 63 63 34
AltUni2: 00ff1f.ffffffff.0 00fe56.ffffffff.0 00fe16.ffffffff.0 00ff1f.ffffffff.0 00fe56.ffffffff.0 00fe16.ffffffff.0
Width: 464
GlyphClass: 1
Flags: W
LayerCount: 2
UndoRedoHistory
Layer: 1
Undoes
UndoOperation
Index: 0
Type: 1
WasModified: 0
WasOrder2: 1
Layer: 2
Width: 464
VWidth: 1000
LBearingChange: 0
UnicodeEnc: 0
InstructionsLength: 0
SplineSet
214 51 m 0,0,1
 224 64 224 64 235 71 c 0,2,3
 262 86 262 86 288 75 c 0,4,5
 313 64 313 64 321 44 c 0,6,7
 333 20 333 20 320 -4 c 0,8,9
 308 -28 308 -28 273 -44 c 0,10,11
 260 -50 260 -50 246 -53 c 0,12,13
 226 -56 226 -56 209 -49 c 0,14,15
 177 -32 177 -32 184 2 c 0,16,17
 187 20 187 20 202 38 c 0,18,19
 210 47 210 47 214 51 c 0,0,1
90 499 m 0,20,21
 96 557 96 557 144 610 c 0,22,23
 188 657 188 657 245 680 c 0,24,25
 312 706 312 706 363 689 c 0,26,27
 428 669 428 669 448 595 c 0,28,29
 464 533 464 533 438 463 c 0,30,31
 428 436 428 436 411 406 c 0,32,33
 402 390 402 390 380 354 c 0,34,35
 354 312 354 312 350 303 c 0,36,37
 330 268 330 268 323 242 c 1,38,-1
 322 241 l 1,39,-1
 322 240 l 2,40,41
 322 237 322 237 321 233 c 0,42,43
 320 230 320 230 318.5 223.5 c 128,-1,44
 317 217 317 217 316 214 c 2,45,-1
 313 202 l 2,46,47
 312 200 312 200 311 196.5 c 128,-1,48
 310 193 310 193 309.5 191 c 128,-1,49
 309 189 309 189 308 187 c 0,50,51
 308 185 308 185 307 182.5 c 128,-1,52
 306 180 306 180 305 179 c 0,53,54
 299 169 299 169 293 165 c 0,55,56
 285 157 285 157 269 155 c 0,57,58
 250 155 250 155 239 168 c 0,59,60
 234 173 234 173 230 181 c 0,61,62
 228 187 228 187 228 189 c 0,63,64
 226 201 226 201 226 212 c 0,65,66
 226 232 226 232 243 244 c 1,67,-1
 248 264 l 2,68,69
 258 300 258 300 282 341 c 0,70,71
 291 357 291 357 313 394 c 0,72,73
 355 463 355 463 365 491 c 0,74,75
 382 538 382 538 372 575 c 0,76,77
 364 607 364 607 340 615 c 0,78,79
 313 623 313 623 274 608 c 0,80,81
 233 591 233 591 202.5 557.5 c 128,-1,82
 172 524 172 524 168 491 c 0,83,84
 167 475 167 475 154 464.5 c 128,-1,85
 141 454 141 454 125 456 c 0,86,87
 109 457 109 457 98.5 470 c 128,-1,88
 88 483 88 483 90 499 c 0,20,21
EndSplineSet
EndUndoOperation
EndUndoes
Redoes
EndRedoes
EndUndoRedoHistory
Fore
SplineSet
226.962593458 83.6642455593 m 0,0,1
 245.424389422 94.6538461538 245.424389422 94.6538461538 262.7363448 94.6538461538 c 0,2,3
 280.317819236 94.6538461538 280.317819236 94.6538461538 294.029468152 88.7370886356 c 0,4,5
 321.759931897 76.5356845877 321.759931897 76.5356845877 334.696411267 50.1457498284 c 0,6,7
 341.767635623 36.4500483893 341.767635623 36.4500483893 341.767635623 21.9160929284 c 0,0,0
 341.767635623 21.4384990444 341.767635623 21.4384990444 341.76 20.96 c 0,1,2
 341.76 4.79038134611 341.76 4.79038134611 333.314693022 -10.9136571191 c 0,3,4
 318.898604692 -39.5127591574 318.898604692 -39.5127591574 279.273008135 -57.6273185572 c 0,5,6
 254.848865009 -68.9 254.848865009 -68.9 236.387640793 -68.9 c 0,7,8
 216.109121426 -68.9 216.109121426 -68.9 201.978146841 -62.2559469005 c 0,9,10
 167.743589744 -44.0688384424 167.743589744 -44.0688384424 167.743589744 -9.65746219592 c 0,11,12
 167.743589744 20.3191818882 167.743589744 20.3191818882 190.626452599 47.7786173146 c 0,13,14
 198.493737707 56.6293130617 198.493737707 56.6293130617 202.701847003 60.9051720866 c 0,15,16
 214.060631175 75.4539027881 214.060631175 75.4539027881 226.962593458 83.6642455593 c 0,0,1
74.68 493.9568 m 0,17,18
 74.68 497.302862799 74.68 497.302862799 75.0958163043 500.709355567 c 0,19,20
 81.7548885451 564.540382017 81.7548885451 564.540382017 133.049208178 620.24664861 c 0,21,22
 180.016409184 670.416158775 180.016409184 670.416158775 239.581111154 693.989745392 c 0,23,24
 282.696087474 710.720930233 282.696087474 710.720930233 320.173607355 710.720930233 c 0,25,26
 345.188021332 710.720930233 345.188021332 710.720930233 367.576365961 703.288865804 c 0,27,28
 440.350130269 680.806882628 440.350130269 680.806882628 462.504399151 598.836086209 c 0,29,30
 469.095238095 573.296585301 469.095238095 573.296585301 469.095238095 546.600907029 c 0,31,32
 469.095238095 478.095212016 469.095238095 478.095212016 424.083112927 398.662049953 c 0,33,34
 414.953565416 382.431743267 414.953565416 382.431743267 391.127216841 343.710262736 c 0,35,36
 367.300868266 304.988782205 367.300868266 304.988782205 363.408168407 296.230207522 c 0,37,38
 343.987370523 262.243811227 343.987370523 262.243811227 336.666651894 235.052570604 c 0,39,40
 336.119661095 230.915679664 336.119661095 230.915679664 335.288649347 228.422644421 c 0,41,42
 334.4576376 225.929609179 334.4576376 225.929609179 333.009221474 219.653139298 c 2,43,-1
 327.55336329 198.355358685 l 1,44,-1
 327.157076903 196.770213136 l 2,45,46
 325.657076903 193.770213136 325.657076903 193.770213136 324.590240177 189.502866235 c 0,47,48
 320.857071603 174.570191938 320.857071603 174.570191938 317.105032544 170.038633823 c 0,49,50
 300.943877995 143.874886563 300.943877995 143.874886563 269.94478549 140 c 1,51,-1
 269 140 l 2,52,53
 243.425254829 140 243.425254829 140 227.953545191 157.842832208 c 0,54,55
 221.500579944 164.454899443 221.500579944 164.454899443 216.100637049 175.254785233 c 1,56,57
 211.00000113 190.556692989 211.00000113 190.556692989 211.000000565 213.505024413 c 0,58,59
 211 236.453355837 211 236.453355837 229.687692261 252.608863519 c 1,60,-1
 233.44663671 267.644641315 l 2,61,62
 243.08999582 304.194615848 243.08999582 304.194615848 268.980058018 348.450225497 c 0,63,64
 278.0648744 364.593739348 278.0648744 364.593739348 300.177511069 401.783178253 c 0,65,66
 341.382466412 469.47703346 341.382466412 469.47703346 351.043085058 496.353573687 c 0,67,68
 360.703703704 523.230113914 360.703703704 523.230113914 360.703703704 546.22085048 c 0,69,70
 360.703703704 559.293933228 360.703703704 559.293933228 357.480895312 571.218324278 c 0,71,72
 351.478101144 595.229500947 351.478101144 595.229500947 335.491128763 600.687589831 c 0,73,74
 328.278364634 602.782607459 328.278364634 602.782607459 319.765595463 602.782608696 c 0,75,76
 302.298334879 602.782608696 302.298334879 602.782608696 279.557005704 594.063195225 c 0,77,78
 241.762407045 578.347555602 241.762407045 578.347555602 214.130859647 547.998149313 c 0,79,80
 186.499312248 517.648743025 186.499312248 517.648743025 182.937119924 489.556003337 c 0,81,82
 181.335172923 467.299725004 181.335172923 467.299725004 163.414763041 452.825547347 c 0,83,84
 148.377418707 440.68 148.377418707 440.68 130.0432 440.68 c 0,85,86
 102.902854627 440.68 102.902854627 440.68 86.8255473469 460.585236959 c 0,87,88
 74.68 475.622581293 74.68 475.622581293 74.68 493.9568 c 0,17,18
EndSplineSet
Validated: 33
EndChar

StartChar: at
Encoding: 64 64 35
AltUni2: 00ff20.ffffffff.0 00fe6b.ffffffff.0 00ff20.ffffffff.0 00fe6b.ffffffff.0
Width: 537
GlyphClass: 1
Flags: W
LayerCount: 2
UndoRedoHistory
Layer: 1
Undoes
EndUndoes
Redoes
RedoOperation
Index: 0
Type: 1
WasModified: 0
WasOrder2: 1
Layer: 2
Width: 537
VWidth: 1000
LBearingChange: 0
UnicodeEnc: 0
InstructionsLength: 0
SplineSet
309.921303668 342.441130609 m 2,0,1
 308.105263158 327.004786276 308.105263158 327.004786276 308.105263158 317.435129556 c 0,2,3
 308.105263158 307.865472835 308.105263158 307.865472835 308.531482782 302.150307236 c 1,4,5
 309.703015004 309.650427843 309.703015004 309.650427843 310.372227871 327.509004189 c 0,6,7
 311.041440738 345.367580535 311.041440738 345.367580535 314.218393818 367.606252093 c 0,8,9
 316.220712127 377.217379979 316.220712127 377.217379979 318.549917206 386.106313111 c 1,10,11
 312.264877921 368.689135136 312.264877921 368.689135136 309.940067106 342.651281114 c 2,12,-1
 309.921303668 342.441130609 l 2,0,1
495.438881292 230.232366244 m 0,13,14
 472.14714193 208.714285714 472.14714193 208.714285714 443.803443164 208.714285714 c 0,15,16
 415.459744398 208.714285714 415.459744398 208.714285714 392.610848797 225.209365374 c 1,17,18
 388.731125956 219.522082206 388.731125956 219.522082206 387.390508601 218.163176848 c 0,19,20
 386.049891245 216.80427149 386.049891245 216.80427149 384.123043255 214.395711502 c 0,21,22
 382.196195265 211.987151515 382.196195265 211.987151515 380.604521875 210.395478125 c 0,23,24
 339.309108501 169.100064751 339.309108501 169.100064751 300.193515946 169.000246909 c 0,25,26
 299.074379734 168.974410092 299.074379734 168.974410092 297.960552268 168.974358974 c 0,27,28
 250.859352519 168.974358974 250.859352519 168.974358974 225.079844969 213.378446501 c 0,29,30
 200.267388784 254.55625178 200.267388784 254.55625178 200.267388784 315.807554523 c 0,0,0
 200.267388784 333.977964707 200.267388784 333.977964707 202.063528392 352.388395696 c 0,1,2
 210.604308077 445.269374763 210.604308077 445.269374763 260.067380908 488.237531018 c 1,3,4
 307.408212751 513.381803795 307.408212751 513.381803795 321.08263604 513.381803795 c 0,0,0
 322.279470507 513.381803795 322.279470507 513.381803795 323.218407597 513.189189189 c 0,1,2
 376.194361084 513.189189189 376.194361084 513.189189189 426.946245801 458.252084889 c 0,3,4
 430.679148842 454.319587469 430.679148842 454.319587469 433.569688839 450.129998524 c 1,5,6
 431.731544389 476.353985311 431.731544389 476.353985311 423.67429789 505.515792372 c 0,7,8
 415.533923189 528.390611031 415.533923189 528.390611031 380.564591435 545.44882199 c 0,9,10
 352.496006502 558.814814815 352.496006502 558.814814815 326.972565158 558.814814815 c 0,11,12
 318.289628451 558.814814815 318.289628451 558.814814815 304.868024201 556.199263837 c 0,13,14
 291.446423588 553.583713568 291.446423588 553.583713568 283.084425263 550 c 1,15,-1
 282.264277295 550 l 1,16,-1
 274.604521875 541.395478125 l 1,17,18
 260.491950684 527.282906934 260.491950684 527.282906934 252.169823035 519.971184463 c 0,19,20
 189.706638908 459.271230902 189.706638908 459.271230902 173.652666293 382.778764387 c 0,21,22
 168.311111111 358.407918871 168.311111111 358.407918871 168.311111111 334.468148148 c 0,23,24
 168.311111111 291.101385342 168.311111111 291.101385342 185.864445811 248.731267101 c 0,25,26
 213.065330362 183.073959565 213.065330362 183.073959565 272.090749536 144.630483187 c 0,27,28
 338 103 338 103 419.18194707 102.97826087 c 1,29,-1
 425.5312 103.08 l 2,30,31
 446.12904375 103.08 446.12904375 103.08 461.373403165 87.835640585 c 0,32,33
 476.61776258 72.59128117 476.61776258 72.59128117 478 50.4754824501 c 1,34,35
 478 27.9853545508 478 27.9853545508 462.83928351 12.1355145844 c 0,36,37
 447.29099621 -4.11951304785 447.29099621 -4.11951304785 424.267795224 -4.99765256136 c 0,38,39
 420.397479176 -5.0655528429 420.397479176 -5.0655528429 416.55253964 -5.06557377049 c 0,40,41
 302.643588822 -5.06557377049 302.643588822 -5.06557377049 213.801232939 54.4388202741 c 0,42,43
 126.941411692 109.962218214 126.941411692 109.962218214 86.1744080971 207.175836198 c 0,44,45
 60.1034482759 268.922846301 60.1034482759 268.922846301 60.1034482759 334.794292509 c 0,46,47
 60.1034482759 371.151850197 60.1034482759 371.151850197 67.3599794383 405.27839441 c 0,48,49
 91.3168114315 512.563337684 91.3168114315 512.563337684 178.023003591 598.224876926 c 1,50,51
 187.395300642 605.722714566 187.395300642 605.722714566 195.862634856 616.071678606 c 1,52,-1
 196.395478125 616.604521875 l 2,53,54
 203.071176611 623.280220361 203.071176611 623.280220361 204.535881608 625.389173264 c 0,55,56
 206.000586606 627.498126168 206.000586606 627.498126168 208.444245534 629.330868582 c 0,57,58
 211.154554814 631.363598564 211.154554814 631.363598564 211.627659237 631.836702987 c 0,59,60
 226.485822036 645.456685553 226.485822036 645.456685553 252.25908171 654.234128444 c 0,61,62
 256.200269419 655.54785768 256.200269419 655.54785768 266.926642411 657.961189724 c 0,63,64
 277.653015407 660.374521769 277.653015407 660.374521769 292.556077558 663.772367267 c 0,65,66
 307.459139708 667.170212766 307.459139708 667.170212766 328.050248981 667.170212766 c 0,67,68
 375.959294211 667.170212766 375.959294211 667.170212766 427.576375527 642.483782571 c 1,69,70
 505.386788023 603.578576323 505.386788023 603.578576323 526.339685721 537.411530961 c 0,71,72
 541.25 488.953009554 541.25 488.953009554 541.25 431.1875 c 0,73,74
 541.25 406.619175613 541.25 406.619175613 538.981044589 361.240067396 c 2,75,-1
 538.965663102 360.978028792 l 2,76,77
 532.57932464 266.247341612 532.57932464 266.247341612 495.438881292 230.232366244 c 0,13,14
431.886680009 384.889722206 m 1,78,79
 431.000000176 381.103908965 431.000000176 381.103908965 431 376.25 c 1,80,81
 431.454057272 380.686111101 431.454057272 380.686111101 431.886680009 384.889722206 c 1,78,79
EndSplineSet
EndRedoOperation
EndRedoes
EndUndoRedoHistory
Fore
SplineSet
302 265 m 1,0,1
 308 269 308 269 313 275 c 0,2,3
 315 277 315 277 316 277 c 0,4,5
 324 289 324 289 325 318 c 0,6,7
 326 344 326 344 329 365 c 0,8,9
 334 389 334 389 342 411 c 1,10,11
 331 419 331 419 326 420 c 0,12,13
 323 420 323 420 321 418 c 0,14,15
 300 400 300 400 295 344 c 0,16,17
 289 293 289 293 302 265 c 1,0,1
437 311 m 1,18,19
 437 312 437 312 438 313 c 0,20,21
 443 328 443 328 446 368 c 0,22,23
 449 422 449 422 449 442 c 0,24,25
 448 474 448 474 438 510 c 0,26,27
 428 539 428 539 387 559 c 0,28,29
 345 579 345 579 307 572 c 0,30,31
 287 568 287 568 280 565 c 0,32,33
 278 565 278 565 273 562 c 0,34,35
 270 559 270 559 264 552 c 0,36,37
 250 538 250 538 242 531 c 0,38,39
 176 467 176 467 159 386 c 0,40,41
 143 313 143 313 172 243 c 128,-1,42
 201 173 201 173 264 132 c 0,43,44
 335 87 335 87 423 88 c 0,45,46
 439 89 439 89 450.5 77.5 c 128,-1,47
 462 66 462 66 463 50 c 0,48,49
 463 34 463 34 452 22.5 c 128,-1,50
 441 11 441 11 424 10 c 0,51,52
 310 8 310 8 222 67 c 0,53,54
 139 120 139 120 100 213 c 0,55,56
 62 303 62 303 82 402 c 0,57,58
 105 505 105 505 188 587 c 0,59,60
 198 595 198 595 207 606 c 0,61,62
 210 609 210 609 212.5 611.5 c 128,-1,63
 215 614 215 614 216 615.5 c 128,-1,64
 217 617 217 617 219 618.5 c 128,-1,65
 221 620 221 620 222 621 c 0,66,67
 234 632 234 632 257 640 c 0,68,69
 260 641 260 641 271 643.5 c 128,-1,70
 282 646 282 646 291 648 c 0,71,72
 352 662 352 662 421 629 c 0,73,74
 493 593 493 593 512 533 c 0,75,76
 524 494 524 494 526 445 c 0,77,78
 527 422 527 422 524 362 c 0,79,80
 518 273 518 273 485 241 c 0,81,82
 460 219 460 219 429 225 c 0,83,84
 408 229 408 229 389 248 c 1,85,86
 381 234 381 234 376 228 c 0,87,88
 375 227 375 227 373 224.5 c 128,-1,89
 371 222 371 222 370 221 c 0,90,91
 333 184 333 184 300 184 c 0,92,93
 260 183 260 183 238 221 c 0,94,95
 209 269 209 269 217 351 c 0,96,97
 225 438 225 438 270 477 c 0,98,99
 301 505 301 505 343 496 c 0,100,101
 380 487 380 487 416 448 c 0,102,103
 436 427 436 427 422 403 c 0,104,105
 422 402 422 402 421.5 399.5 c 128,-1,106
 421 397 421 397 420 396 c 0,107,108
 412 380 412 380 420 349 c 0,109,110
 427 326 427 326 437 311 c 1,18,19
EndSplineSet
EndChar

StartChar: A
Encoding: 65 65 36
AltUni2: 00ff21.ffffffff.0 001d2c.ffffffff.0 0013aa.ffffffff.0 000410.ffffffff.0 000391.ffffffff.0 00ff21.ffffffff.0 001d2c.ffffffff.0 0013aa.ffffffff.0 000410.ffffffff.0 000391.ffffffff.0
Width: 496
GlyphClass: 1
Flags: W
LayerCount: 2
UndoRedoHistory
Layer: 1
Undoes
UndoOperation
Index: 0
Type: 1
WasModified: 1
WasOrder2: 1
Layer: 2
Width: 436
VWidth: 1000
LBearingChange: 0
UnicodeEnc: 0
InstructionsLength: 0
SplineSet
128 247 m 1,0,1
 182 270 182 270 226 296 c 0,2,3
 285 331 285 331 347 380 c 1,4,5
 350 507 350 507 343 575 c 0,6,7
 336 656 336 656 311 690 c 1,8,9
 262 647 262 647 220 562.5 c 128,-1,10
 178 478 178 478 152 372 c 0,11,12
 136 309 136 309 128 247 c 1,0,1
76 -13 m 0,13,14
 53 62 53 62 56.5 168 c 128,-1,15
 60 274 60 274 89 387 c 0,16,17
 118 505 118 505 165.5 598 c 128,-1,18
 213 691 213 691 271 741 c 0,19,20
 283 752 283 752 304 755 c 0,21,22
 314 756 314 756 324 755 c 0,23,24
 339 754 339 754 351 743 c 0,25,26
 396 697 396 697 408 581 c 0,27,28
 415 507 415 507 412 365 c 0,29,30
 412 354 412 354 411 344 c 0,31,32
 409 219 409 219 411 189 c 0,33,34
 413 110 413 110 424 70 c 0,35,36
 428 57 428 57 421 45.5 c 128,-1,37
 414 34 414 34 401 30 c 128,-1,38
 388 26 388 26 376.5 33 c 128,-1,39
 365 40 365 40 361 53 c 0,40,41
 347 104 347 104 346 187 c 0,42,43
 345 230 345 230 346 297 c 1,44,45
 299 264 299 264 260 240 c 0,46,47
 184 197 184 197 122 176 c 1,48,49
 117 73 117 73 138 6 c 0,50,51
 142 -7 142 -7 135.5 -18.5 c 128,-1,52
 129 -30 129 -30 116 -34 c 128,-1,53
 103 -38 103 -38 91.5 -32 c 128,-1,54
 80 -26 80 -26 76 -13 c 0,13,14
EndSplineSet
EndUndoOperation
EndUndoes
Redoes
EndRedoes
EndUndoRedoHistory
Fore
SplineSet
350.19564721 655.630859375 m 1,0,1
 303.404987759 616.740234375 303.404987759 616.740234375 262.066760019 549.162109375 c 0,2,3
 213.036646812 469.098632812 213.036646812 469.098632812 182.610244527 368.419921875 c 0,4,5
 169.202148438 319.72265625 169.202148438 319.72265625 161.674804688 271.658203125 c 1,6,7
 205.027988869 289.454101562 205.027988869 289.454101562 244.176657418 308.923828125 c 0,8,9
 310.095500899 341.833984375 310.095500899 341.833984375 377.1640625 387.415039062 c 1,10,11
 377.8984375 435.94140625 377.8984375 435.94140625 377.900390625 450.889648438 c 0,12,13
 377.900390625 525.670898438 377.900390625 525.670898438 373.079101562 571.913085938 c 2,14,15
 373.073242188 570.4375 373.073242188 570.4375 373.06640625 572.03515625 c 2,16,17
 367.895507812 626.083984375 367.895507812 626.083984375 350.19564721 655.630859375 c 1,0,1
56.0380859375 140.541015625 m 0,18,19
 56.0380859375 260.431640625 56.0380859375 260.431640625 89.4501953125 390.661132812 c 0,20,21
 118.859375 506.4921875 118.859375 506.4921875 167.383789062 598.4765625 c 0,22,23
 223.410075094 690.55078125 223.410075094 690.55078125 294.87069637 740.869140625 c 0,24,25
 318.757429549 755.5 318.757429549 755.5 357.785422869 755.5 c 0,26,27
 364.48521872 755.5 364.48521872 755.5 370.270507812 754.986328125 c 0,28,29
 391.260742188 753.87109375 391.260742188 753.87109375 406.721679688 742.708984375 c 0,30,31
 455.3828125 695.651367188 455.3828125 695.651367188 467.932617188 580.883789062 c 0,32,33
 472.900390625 528.959960938 472.900390625 528.959960938 472.900390625 444.080078125 c 0,34,35
 472.900390625 362.893554688 472.900390625 362.893554688 470.98828125 343.133789062 c 0,36,37
 470 281.184570312 470 281.184570312 470 242.75 c 0,38,39
 470 211.453125 470 211.453125 470.995117188 190.07421875 c 0,40,41
 473.043945312 111.716796875 473.043945312 111.716796875 483.412109375 78.515625 c 0,42,43
 485 69.603515625 485 69.603515625 485.454101562 61.8310546875 c 0,44,45
 485.454101562 53.2353515625 485.454101562 53.2353515625 478.822265625 45.515625 c 0,46,47
 468.850585938 33.9892578125 468.850585938 33.9892578125 450.411132812 29.9970703125 c 0,48,49
 443.538085938 28.5458984375 443.538085938 28.5458984375 434.075195312 28.5458984375 c 128,-1,50
 424.612304688 28.5458984375 424.612304688 28.5458984375 413.716796875 32.990234375 c 0,51,52
 396.959960938 40.1416015625 396.959960938 40.1416015625 391.533203125 53.216796875 c 0,53,54
 377.03125 104.70703125 377.03125 104.70703125 376.001953125 187.436523438 c 0,55,56
 375.333984375 201.255859375 375.333984375 201.255859375 375.333984375 213.799804688 c 0,57,58
 375.333984375 232.497070312 375.333984375 232.497070312 375.651367188 268.125 c 1,59,60
 328.238557345 248.765625 328.238557345 248.765625 302.380408657 239.990234375 c 0,61,62
 217.589816004 200.30859375 217.589816004 200.30859375 151.553710938 179.306640625 c 1,63,64
 151.041015625 148.03125 151.041015625 148.03125 151.038085938 137.720703125 c 0,65,66
 151.038085938 65.076171875 151.038085938 65.076171875 167.33984375 14.8974609375 c 0,67,68
 169.5234375 5.859375 169.5234375 5.859375 169.5234375 -6.0068359375 c 0,69,70
 169.5234375 -11.86328125 169.5234375 -11.86328125 163.568359375 -18.484375 c 0,71,72
 154.118164062 -30.0283203125 154.118164062 -30.0283203125 135.411132812 -34.0029296875 c 0,73,74
 128.065429688 -35.599609375 128.065429688 -35.599609375 118.892578125 -35.599609375 c 128,-1,75
 109.719726562 -35.599609375 109.719726562 -35.599609375 99.5771484375 -32.0087890625 c 0,76,77
 82.5029296875 -25.9375 82.5029296875 -25.9375 76.65625 -12.9873046875 c 0,78,79
 56.0380859375 52.369140625 56.0380859375 52.369140625 56.0380859375 140.541015625 c 0,18,19
EndSplineSet
EndChar

StartChar: B
Encoding: 66 66 37
AltUni2: 00ff22.ffffffff.0 00212c.ffffffff.0 001d2e.ffffffff.0 0013f4.ffffffff.0 000412.ffffffff.0 000392.ffffffff.0 00ff22.ffffffff.0 00212c.ffffffff.0 001d2e.ffffffff.0 0013f4.ffffffff.0 000412.ffffffff.0 000392.ffffffff.0
Width: 512
GlyphClass: 1
Flags: W
LayerCount: 2
UndoRedoHistory
Layer: 1
Undoes
UndoOperation
Index: 0
Type: 1
WasModified: 1
WasOrder2: 1
Layer: 2
Width: 452
VWidth: 1000
LBearingChange: 0
UnicodeEnc: 0
InstructionsLength: 0
SplineSet
132.375 401.75 m 1,0,1
 139.724609375 403.849609375 139.724609375 403.849609375 149.174804688 407.525390625 c 128,-1,2
 158.625 411.200195312 158.625 411.200195312 164.400390625 413.825195312 c 128,-1,3
 170.174804688 416.450195312 170.174804688 416.450195312 172.275390625 416.450195312 c 0,4,5
 193.275390625 424.849609375 193.275390625 424.849609375 219.525390625 436.400390625 c 0,6,7
 246.825195312 450.049804688 246.825195312 450.049804688 262.575195312 465.799804688 c 0,8,9
 277.275390625 480.5 277.275390625 480.5 290.924804688 499.400390625 c 0,10,11
 324.525390625 540.349609375 324.525390625 540.349609375 310.875 580.25 c 0,12,13
 298.275390625 618.049804688 298.275390625 618.049804688 252.075195312 644.299804688 c 0,14,15
 203.775390625 669.5 203.775390625 669.5 149.174804688 664.25 c 0,16,17
 148.125 663.200195312 148.125 663.200195312 143.924804688 663.200195312 c 128,-1,18
 139.724609375 663.200195312 139.724609375 663.200195312 138.674804688 662.150390625 c 0,19,20
 132.375 537.200195312 132.375 537.200195312 132.375 401.75 c 1,0,1
137.625 38.4501953125 m 1,21,22
 138.674804688 39.5 138.674804688 39.5 141.825195312 40.025390625 c 128,-1,23
 144.974609375 40.5498046875 144.974609375 40.5498046875 146.025390625 40.5498046875 c 0,24,25
 152.325195312 40.5498046875 152.325195312 40.5498046875 169.125 44.75 c 0,26,27
 174.375 45.7998046875 174.375 45.7998046875 181.724609375 47.375 c 128,-1,28
 189.075195312 48.9501953125 189.075195312 48.9501953125 192.224609375 48.9501953125 c 0,29,30
 294.075195312 67.849609375 294.075195312 67.849609375 323.474609375 97.25 c 0,31,32
 358.125 130.849609375 358.125 130.849609375 354.974609375 173.900390625 c 0,33,34
 351.825195312 213.799804688 351.825195312 213.799804688 315.075195312 255.799804688 c 128,-1,35
 278.325195312 297.799804688 278.325195312 297.799804688 227.924804688 316.700195312 c 128,-1,36
 177.525390625 335.599609375 177.525390625 335.599609375 137.625 324.049804688 c 0,37,38
 136.575195312 324.049804688 136.575195312 324.049804688 135 323.525390625 c 128,-1,39
 133.424804688 323 133.424804688 323 132.375 321.950195312 c 0,40,41
 132.375 267.349609375 132.375 267.349609375 134.474609375 143.450195312 c 2,42,-1
 135.525390625 109.849609375 l 2,43,44
 136.575195312 102.5 136.575195312 102.5 136.575195312 87.7998046875 c 0,45,46
 137.625 68.900390625 137.625 68.900390625 137.625 43.7001953125 c 2,47,-1
 137.625 38.4501953125 l 1,21,22
1.125 657.950195312 m 0,48,49
 58.875 723.049804688 58.875 723.049804688 141.825195312 731.450195312 c 0,50,51
 216.375 740.900390625 216.375 740.900390625 284.625 704.150390625 c 0,52,53
 354.974609375 665.299804688 354.974609375 665.299804688 375.974609375 602.299804688 c 0,54,55
 400.125 527.75 400.125 527.75 345.525390625 457.400390625 c 0,56,57
 322.424804688 429.049804688 322.424804688 429.049804688 310.875 417.5 c 0,58,59
 282.525390625 391.25 282.525390625 391.25 256.275390625 378.650390625 c 1,60,61
 320.325195312 352.400390625 320.325195312 352.400390625 365.474609375 300.950195312 c 0,62,63
 416.924804688 243.200195312 416.924804688 243.200195312 423.224609375 180.200195312 c 0,64,65
 429.525390625 103.549804688 429.525390625 103.549804688 370.724609375 47.900390625 c 0,66,67
 345.525390625 22.7001953125 345.525390625 22.7001953125 294.075195312 3.7998046875 c 0,68,69
 262.575195312 -6.7001953125 262.575195312 -6.7001953125 204.825195312 -18.25 c 0,70,71
 201.674804688 -18.25 201.674804688 -18.25 193.799804688 -19.8251953125 c 128,-1,72
 185.924804688 -21.400390625 185.924804688 -21.400390625 180.674804688 -22.4501953125 c 0,73,74
 178.575195312 -23.5 178.575195312 -23.5 169.125 -25.0751953125 c 128,-1,75
 159.674804688 -26.650390625 159.674804688 -26.650390625 157.575195312 -26.650390625 c 0,76,77
 99.8251953125 -38.2001953125 99.8251953125 -38.2001953125 83.025390625 -43.4501953125 c 0,78,79
 69.375 -48.7001953125 69.375 -48.7001953125 56.775390625 -42.400390625 c 128,-1,80
 44.1748046875 -36.099609375 44.1748046875 -36.099609375 39.974609375 -22.4501953125 c 0,81,82
 34.724609375 -8.7998046875 34.724609375 -8.7998046875 41.025390625 4.3251953125 c 128,-1,83
 47.3251953125 17.4501953125 47.3251953125 17.4501953125 60.974609375 21.650390625 c 0,84,85
 64.125 21.650390625 64.125 21.650390625 66.224609375 22.7001953125 c 0,86,87
 64.125 34.25 64.125 34.25 69.375 43.7001953125 c 1,88,-1
 69.375 45.7998046875 l 2,89,90
 69.375 67.849609375 69.375 67.849609375 68.3251953125 85.7001953125 c 0,91,92
 68.3251953125 99.349609375 68.3251953125 99.349609375 67.275390625 106.700195312 c 2,93,-1
 67.275390625 118.25 l 2,94,95
 67.275390625 126.650390625 67.275390625 126.650390625 66.224609375 128.75 c 2,96,-1
 66.224609375 142.400390625 l 1,97,98
 59.9248046875 398.599609375 59.9248046875 398.599609375 68.3251953125 629.599609375 c 1,99,-1
 52.5751953125 613.849609375 l 2,100,101
 44.1748046875 603.349609375 44.1748046875 603.349609375 30 602.299804688 c 128,-1,102
 15.8251953125 601.25 15.8251953125 601.25 5.3251953125 610.700195312 c 0,103,104
 -5.1748046875 619.099609375 -5.1748046875 619.099609375 -6.224609375 633.275390625 c 128,-1,105
 -7.275390625 647.450195312 -7.275390625 647.450195312 1.125 657.950195312 c 0,48,49
EndSplineSet
EndUndoOperation
EndUndoes
Redoes
EndRedoes
EndUndoRedoHistory
Fore
SplineSet
318.604608789 508.545898438 m 1,0,1
 342.227389802 533.8828125 342.227389802 533.8828125 342.227389802 557.108398438 c 0,2,3
 342.227389802 566.219726562 342.227389802 566.219726562 338.659949295 575.3984375 c 0,4,5
 326.403044834 607.759765625 326.403044834 607.759765625 279.843230316 631.115234375 c 0,6,7
 238.232337932 650.155273438 238.232337932 650.155273438 192.23843155 650.155273438 c 0,8,9
 177.948696294 650.155273438 177.948696294 650.155273438 175.484221841 649.461914062 c 0,10,11
 169.548844151 540.236328125 169.548844151 540.236328125 169.057280809 422.954101562 c 1,12,13
 176.525048962 425.5703125 176.525048962 425.5703125 183.139516416 428.216796875 c 128,-1,14
 189.753983869 430.86328125 189.753983869 430.86328125 193.464565846 431.258789062 c 0,15,16
 215.968846071 439.231445312 215.968846071 439.231445312 243.756045193 449.98828125 c 0,17,18
 272.035917281 462.477539062 272.035917281 462.477539062 287.860262249 476.404296875 c 128,-1,19
 303.591398817 490.249023438 303.591398817 490.249023438 318.604608789 508.545898438 c 1,0,1
357.600117884 108.120117188 m 0,20,21
 385.237304688 134.39453125 385.237304688 134.39453125 385.237304688 166.790039062 c 0,22,23
 385.237304688 204.268554688 385.237304688 204.268554688 347.98411806 244.671875 c 0,24,25
 307.814626988 285.07421875 307.814626988 285.07421875 254.560452103 302.650390625 c 0,26,27
 221.894237146 313.430664062 221.894237146 313.430664062 194.044899092 313.430664062 c 0,28,29
 181.026792706 313.430664062 181.026792706 313.430664062 169.033978709 311.072265625 c 1,30,31
 169.44897801 198.543945312 169.44897801 198.543945312 172.555924641 111.1171875 c 0,32,33
 173.770962698 102.977539062 173.770962698 102.977539062 173.785387808 88.22265625 c 0,34,35
 174.66864835 74.025390625 174.66864835 74.025390625 174.897230852 56.486328125 c 1,36,37
 181.792433126 57.5888671875 181.792433126 57.5888671875 189.007207054 59.0390625 c 0,38,39
 212.223865756 63.7041015625 212.223865756 63.7041015625 218.190312912 63.91796875 c 0,40,41
 327.046626636 81.845703125 327.046626636 81.845703125 357.600117884 108.120117188 c 0,20,21
66.224609375 150.637695312 m 1,42,43
 60.4140625 377.98046875 60.4140625 377.98046875 67.1103515625 584.7734375 c 1,44,45
 55.9345703125 578.366210938 55.9345703125 578.366210938 40.09765625 578.366210938 c 128,-1,46
 24.2607421875 578.366210938 24.2607421875 578.366210938 10.62109375 589.962890625 c 0,47,48
 -6.341796875 603.264648438 -6.341796875 603.264648438 -6.341796875 625.645507812 c 0,49,50
 -6.341796875 642.461914062 -6.341796875 642.461914062 4.646484375 655.663085938 c 0,51,52
 66.4775390625 722.66015625 66.4775390625 722.66015625 160.758404432 731.354492188 c 0,53,54
 188.201620177 733.383789062 188.201620177 733.383789062 192.566880194 733.383789062 c 128,-1,55
 196.933249835 733.383789062 196.933249835 733.383789062 197.060856572 733.3828125 c 0,56,57
 267.574119994 733.3828125 267.574119994 733.3828125 333.185065481 703.520507812 c 0,58,59
 412.35546875 663.4765625 412.35546875 663.4765625 435.248046875 597.514648438 c 0,60,61
 443.380859375 573.40234375 443.380859375 573.40234375 443.380859375 549.5390625 c 0,62,63
 443.380859375 495.822265625 443.380859375 495.822265625 402.381835938 445.084960938 c 0,64,65
 379.436523438 417.374023438 379.436523438 417.374023438 366.061523438 405.01171875 c 0,66,67
 347.538049294 390.276367188 347.538049294 390.276367188 329.420111938 379.755859375 c 1,68,69
 383.958007812 354.502929688 383.958007812 354.502929688 421.676757812 313.219726562 c 0,70,71
 483.833984375 246.2109375 483.833984375 246.2109375 483.833984375 174.491210938 c 128,-1,72
 483.833984375 102.772460938 483.833984375 102.772460938 426.1796875 50.271484375 c 0,73,74
 398.642578125 23.9091796875 398.642578125 23.9091796875 341.571602138 4.71484375 c 0,75,76
 308.441564434 -5.498046875 308.441564434 -5.498046875 235.992007486 -18.25 c 1,77,-1
 234.290954205 -18.25 l 2,78,79
 231.822041257 -18.3544921875 231.822041257 -18.3544921875 228.469867767 -18.9443359375 c 0,80,81
 188.436860422 -26.3759765625 188.436860422 -26.3759765625 182.521455961 -26.6123046875 c 0,82,83
 119.903165854 -37.65625 119.903165854 -37.65625 102.901367188 -42.6455078125 c 0,84,85
 83.3369140625 -49.953125 83.3369140625 -49.953125 65.0810546875 -40.8251953125 c 128,-1,86
 46.9853515625 -31.7763671875 46.9853515625 -31.7763671875 40.7890625 -12.353515625 c 0,87,88
 33.974609375 7.2646484375 33.974609375 7.2646484375 42.0498046875 23.43359375 c 128,-1,89
 50.1240234375 39.603515625 50.1240234375 39.603515625 65.8671875 46.4619140625 c 1,90,91
 66.587890625 53.1552734375 66.587890625 53.1552734375 69.3740234375 59.2822265625 c 0,92,93
 69.369140625 62.0849609375 69.369140625 62.0849609375 68.84765625 85.2431640625 c 128,-1,94
 68.3251953125 108.401367188 68.3251953125 108.401367188 67.275390625 115.466796875 c 1,95,96
 67.275390625 125.426757812 67.275390625 125.426757812 67.275390625 116.501953125 c 1,97,98
 67.275390625 131.259765625 67.275390625 131.259765625 67.275390625 127.604492188 c 2,99,100
 67.275390625 130.703125 67.275390625 130.703125 67.099609375 132.606445312 c 2,101,102
 66.662109375 142.211914062 66.662109375 142.211914062 66.224609375 134.288085938 c 1,103,104
 66.224609375 144.659179688 66.224609375 144.659179688 66.224609375 137.697265625 c 1,105,106
 66.224609375 152.516601562 66.224609375 152.516601562 66.224609375 150.637695312 c 1,42,43
EndSplineSet
EndChar

